<?xml version="1.0" standalone="no"?>
<!DOCTYPE svg PUBLIC "-//W3C//DTD SVG 1.1//EN" "http://www.w3.org/Graphics/SVG/1.1/DTD/svg11.dtd" >
<svg>
<metadata>
Created by FontForge 20090914 at Mon Mar 27 14:41:20 2017
 By www-data
Copyright (c) 2010-13 by Vernon Adams
</metadata>
<defs>
<font id="Oswald-DemiBold" horiz-adv-x="896" >
  <font-face 
    font-family="Oswald"
    font-weight="600"
    font-stretch="normal"
    units-per-em="2048"
    panose-1="2 0 7 3 0 0 0 0 0 0"
    ascent="1638"
    descent="-410"
    x-height="1184"
    cap-height="1658"
    bbox="-188 -704 3973 2260"
    underline-thickness="68"
    underline-position="-130"
    unicode-range="U+0020-U+FB04"
  />
<missing-glyph horiz-adv-x="748" 
d="M68 0v1365h544v-1365h-544zM136 68h408v1229h-408v-1229z" />
    <glyph glyph-name=".notdef" horiz-adv-x="748" 
d="M68 0v1365h544v-1365h-544zM136 68h408v1229h-408v-1229z" />
    <glyph glyph-name="space" unicode=" " horiz-adv-x="515" 
 />
    <glyph glyph-name="exclam" unicode="!" horiz-adv-x="500" 
d="M189 404l-91 1251h308l-109 -1251h-108zM94 0v293h295v-293h-295z" />
    <glyph glyph-name="quotedbl" unicode="&#x22;" horiz-adv-x="745" 
d="M451 1069v589h266l-119 -589h-147zM88 1069v589h266l-119 -589h-147z" />
    <glyph glyph-name="numbersign" unicode="#" horiz-adv-x="1071" 
d="M440 763h165l27 219h-164zM120 -1l69 563h-104l4 201h129l26 219h-153l4 203h183l58 473h225l-59 -473h163l59 473h223l-59 -473h98l-3 -203h-128l-27 -219h152l-3 -201h-178l-70 -563h-223l70 563h-164l-70 -563h-222z" />
    <glyph glyph-name="dollar" unicode="$" horiz-adv-x="1002" 
d="M485 -203l0.00195312 182.001c-140.667 6 -246.334 51.667 -317.001 137s-109 211.666 -115 378.999l292 52c3.33301 -208 57.666 -312 162.999 -312c39.333 0 68 12.667 86 38s27 58 27 98c0 45.333 -8.16699 87 -24.5 125s-35.833 69.667 -58.5 95s-55 56.333 -97 93
l-178 154c-45.333 39.333 -81.833 76.166 -109.5 110.499s-51 78 -70 131s-28.5 111.833 -28.5 176.5c0 126 36 225.5 108 298.5s170.667 113.833 296 122.5v174h97v-173c56.667 -4 106.5 -16.167 149.5 -36.5s77 -44.833 102 -73.5s45.667 -63.834 62 -105.501
s27.666 -81.167 33.999 -118.5s10.833 -79 13.5 -125l-290 -46c-1.33301 34 -3 62.333 -5 85s-5.83301 46.167 -11.5 70.5s-13.167 43.333 -22.5 57s-22 24.834 -38 33.501s-35 12.334 -57 11.001c-37.333 -2 -66.166 -16.333 -86.499 -43s-30.5 -59 -30.5 -97
c0 -30 3.5 -57.167 10.5 -81.5s18.5 -47.5 34.5 -69.5s30.667 -39.667 44 -53s32.333 -31.333 57 -54l175 -152c79.333 -70.667 141 -144 185 -220s66 -165.667 66 -269c0 -110.667 -33.5 -203.667 -100.5 -279s-156.167 -119 -267.5 -131v-184h-95z" />
    <glyph glyph-name="percent" unicode="%" horiz-adv-x="2031" 
d="M675 0l487 1658h193l-488 -1658h-192zM1566 -5c-133.333 0 -229.5 35.833 -288.5 107.5s-88.5 180.167 -88.5 325.5v78c0 148 28.667 255.667 86 323s154.333 101 291 101c136 0 233.167 -33.167 291.5 -99.5s87.5 -172.5 87.5 -318.5v-87
c0 -146 -29.667 -254.167 -89 -324.5s-156 -105.5 -290 -105.5zM1566 201c20.667 0 38.334 3.83594 53.001 11.5029s26 17.5 34 29.5s14.333 28.833 19 50.5s7.5 42.667 8.5 63s1.5 46.833 1.5 79.5v68c0 33.333 -0.5 59.666 -1.5 78.999s-3.5 39.166 -7.5 59.499
s-10.167 35.5 -18.5 45.5s-19.666 18.333 -33.999 25s-32.5 10 -54.5 10s-40.167 -3.33301 -54.5 -10s-25.666 -15 -33.999 -25s-14.5 -25.333 -18.5 -46s-6.5 -40.5 -7.5 -59.5s-1.5 -45.167 -1.5 -78.5v-69c0 -32 0.666992 -58.5 2 -79.5s4.16602 -42.167 8.49902 -63.5
s10.666 -37.833 18.999 -49.5s19.666 -21.334 33.999 -29.001s31.833 -11.5 52.5 -11.5zM463 728.003c-133.333 0 -229.333 35.667 -288 107s-88 179.666 -88 324.999v79c0 148 28.667 255.667 86 323s154 101 290 101c136.667 0 234 -33.167 292 -99.5s87 -172.5 87 -318.5
v-88c0 -145.333 -29.667 -253.166 -89 -323.499s-156 -105.5 -290 -105.5zM463 934.003c20.667 0 38.335 3.83301 53.002 11.5s26.167 17.5 34.5 29.5s14.666 28.667 18.999 50s7.16602 42.333 8.49902 63s2 47 2 79v68c0 34 -0.5 60.5 -1.5 79.5s-3.5 38.833 -7.5 59.5
s-10.167 36 -18.5 46s-19.833 18.333 -34.5 25s-33 10 -55 10s-40.167 -3.33301 -54.5 -10s-25.666 -15 -33.999 -25s-14.5 -25.333 -18.5 -46s-6.5 -40.5 -7.5 -59.5s-1.5 -45.167 -1.5 -78.5v-69c0 -26.667 0.5 -49 1.5 -67s2.83301 -36.667 5.5 -56s6.66699 -35 12 -47
s12.166 -23.167 20.499 -33.5s18.833 -17.833 31.5 -22.5s27.667 -7 45 -7z" />
    <glyph glyph-name="ampersand" unicode="&#x26;" horiz-adv-x="1187" 
d="M499 993c28.667 47.333 56 105.667 82 175s39 130 39 182c0 32 -9.5 57.333 -28.5 76s-43.167 28 -72.5 28c-30 0 -54 -12.5 -72 -37.5s-27 -56.833 -27 -95.5c0 -24.667 3.33301 -54 10 -88s13.5 -62.667 20.5 -86l28 -89.5c11.667 -36.333 18.5 -57.833 20.5 -64.5z
M468 195.001c66.667 0 121.668 28.334 165.001 85.001c-122.667 230 -188.334 355.667 -197.001 377c-57.333 -90.667 -86 -183.334 -86 -278.001c0 -54.667 11.167 -99 33.5 -133s50.5 -51 84.5 -51zM463.001 -22.998c-111.333 0 -201.167 35.502 -269.5 106.502
s-102.5 163.5 -102.5 277.5c0 96 22.167 188.333 66.5 277s100.166 165 167.499 229c-10.667 22 -28.834 57.167 -54.501 105.5s-45.167 86.166 -58.5 113.499s-26 62 -38 104s-18 82 -18 120c0 106.667 32 195 96 265s149.667 105 257 105c106 0 193.667 -30.833 263 -92.5
s104 -144.834 104 -249.501c0 -28 -2.83301 -56 -8.5 -84s-11.834 -52.667 -18.501 -74s-17.834 -45.5 -33.501 -72.5s-28.167 -47.833 -37.5 -62.5s-25.166 -35.167 -47.499 -61.5l-45.5 -53.5c-8 -9.33301 -24.5 -27.166 -49.5 -53.499l-44.5 -46.5l202 -360
c16 30 29.333 77.333 40 142s17.667 128.667 21 192h232c0 -180 -44 -350 -132 -510c13.333 -17.333 33 -32.833 59 -46.5s52.667 -21.5 80 -23.5v-245c-21.333 -4 -38 -6 -50 -6c-13.333 0 -26.666 1.5 -39.999 4.5s-25.166 6.16699 -35.499 9.5
s-22.5 9.16602 -36.5 17.499l-32 19.5c-7.33301 4.66699 -18 13 -32 25s-23.167 20 -27.5 24l-29 26.5c-15 13.667 -23.5 21.5 -25.5 23.5c-36.667 -46 -82.667 -81.833 -138 -107.5s-116.666 -38.5 -183.999 -38.5z" />
    <glyph glyph-name="quotesingle" unicode="'" horiz-adv-x="558" 
d="M111 1069v589h258l-104 -589h-154z" />
    <glyph glyph-name="parenleft" unicode="(" horiz-adv-x="674" 
d="M605 -381c-48 0 -92.0039 6.16699 -132.004 18.5s-75.167 28.833 -105.5 49.5s-57.333 48 -81 82s-43.667 69 -60 105s-30.5 78.833 -42.5 128.5s-21.167 97.334 -27.5 143.001s-11.5 98.667 -15.5 159s-6.5 115.166 -7.5 164.499s-1.5 106.666 -1.5 171.999
c0 68.667 0.5 128.667 1.5 180s3.5 108 7.5 170s9.33301 116 16 162s15.834 94 27.501 144s25.667 92.833 42 128.5s36.333 70.167 60 103.5s50.667 60.166 81 80.499s65.5 36.5 105.5 48.5s84 18 132 18v-215c-26.667 0 -50.167 -8.66699 -70.5 -26
s-37.166 -44.166 -50.499 -80.499s-24.166 -76.833 -32.499 -121.5s-14.666 -100.167 -18.999 -166.5s-7.33301 -131.666 -9 -195.999s-2.5 -140.833 -2.5 -229.5c0 -88 0.833008 -164.833 2.5 -230.5s5 -130.667 10 -195s11.833 -118.5 20.5 -162.5
s19.667 -83.167 33 -117.5s29.833 -59.833 49.5 -76.5s42.5 -25 68.5 -25v-215z" />
    <glyph glyph-name="parenright" unicode=")" horiz-adv-x="634" 
d="M69 -381l-0.00292969 215.997c22 0 41.833 6.66699 59.5 20s32.834 31.666 45.501 54.999s23.667 53.5 33 90.5s17 76.833 23 119.5s10.667 92.834 14 150.501s5.66602 115.667 6.99902 174s2 124.5 2 198.5c0 89.333 -0.833008 166 -2.5 230s-4.66699 129.333 -9 196
s-10.666 122.167 -18.999 166.5s-19.166 84.5 -32.499 120.5s-30.166 62.667 -50.499 80s-43.833 26 -70.5 26v214c48 0 92 -6 132 -18s75.167 -28.167 105.5 -48.5s57.333 -47.166 81 -80.499s43.667 -67.666 60 -102.999s30.333 -78.166 42 -128.499
s20.834 -98.333 27.501 -144s12 -99.5 16 -161.5s6.5 -118.5 7.5 -169.5s1.5 -110.833 1.5 -179.5c0 -85.333 -1 -159 -3 -221s-6.66699 -131 -14 -207s-17.5 -140.667 -30.5 -194s-31.167 -107 -54.5 -161s-51.333 -97.5 -84 -130.5s-73.334 -59.667 -122.001 -80
s-103.667 -30.5 -165 -30.5z" />
    <glyph glyph-name="asterisk" unicode="*" horiz-adv-x="857" 
d="M343 929l-182 108l149 212l-224 86l70 187l207 -113l-27 248h232l-26 -249l206 115l70 -189l-225 -86l152 -210l-185 -109l-108 228z" />
    <glyph glyph-name="plus" unicode="+" horiz-adv-x="907" 
d="M345 423v331h-292v192h292v326h211v-326h298v-192h-298v-331h-211z" />
    <glyph glyph-name="comma" unicode="," horiz-adv-x="461" 
d="M131 -285l-25 108c41.333 10 75 29.5 101 58.5s39 68.5 39 118.5h-161v294h297v-263c0 -188.667 -83.667 -294 -251 -316z" />
    <glyph glyph-name="hyphen" unicode="-" horiz-adv-x="760" 
d="M123 583v206h514v-206h-514z" />
    <glyph glyph-name="period" unicode="." horiz-adv-x="470" 
d="M93 0v298h297v-298h-297z" />
    <glyph glyph-name="slash" unicode="/" horiz-adv-x="841" 
d="M82 0l488 1658h188l-489 -1658h-187z" />
    <glyph glyph-name="zero" unicode="0" horiz-adv-x="1071" 
d="M536 -27c-142.667 0 -252 43.499 -328 130.499s-114 203.167 -114 348.5v742c0 150.667 36.833 269.334 110.5 356.001s184.167 130 331.5 130c146.667 0 257 -43.5 331 -130.5s111 -205.5 111 -355.5v-742c0 -144.667 -38.167 -260.667 -114.5 -348
s-185.5 -131 -327.5 -131zM536 249.999c80.667 0 120.996 69.667 120.996 209v727c0 28.667 -1 53 -3 73s-6.66699 42.333 -14 67s-19.666 43.667 -36.999 57s-39.666 20 -66.999 20c-18.667 0 -35 -3.16699 -49 -9.5s-25.167 -15.5 -33.5 -27.5
s-15.166 -24.5 -20.499 -37.5s-9.16602 -28.833 -11.499 -47.5s-3.83301 -34.5 -4.5 -47.5s-1 -28.833 -1 -47.5v-727c0 -139.333 40 -209 120 -209z" />
    <glyph glyph-name="one" unicode="1" horiz-adv-x="1059" 
d="M434 0v1326l-247 -85v236c56 22.667 116.167 50.667 180.5 84s110.5 65.666 138.5 96.999h245v-1658h-317z" />
    <glyph glyph-name="two" unicode="2" horiz-adv-x="1058" 
d="M103 0l0.000976562 223.002l399 621l47 71.5c26.667 40.333 44.167 68 52.5 83s20.666 38.833 36.999 71.5s27.5 62.834 33.5 90.501s9 56.5 9 86.5c0 57.333 -11.667 100.666 -35 129.999c-20 25.333 -47.333 38 -82 38c-5.33301 0 -11 -0.333008 -17 -1
c-87.333 -8 -131 -90 -131 -246v-75h-308v80c0 76 8.33301 144.167 25 204.5s42.334 113.666 77.001 159.999s81.334 82 140.001 107s127.334 37.5 206.001 37.5c144 0 253 -38.333 327 -115s111 -184.334 111 -323.001c0 -47.333 -4.83301 -92.5 -14.5 -135.5
s-24.834 -85.167 -45.501 -126.5s-39.834 -76.5 -57.501 -105.5s-41.834 -65.833 -72.501 -110.5c-10 -14 -17.333 -24.667 -22 -32l-320 -483h488v-251h-847z" />
    <glyph glyph-name="three" unicode="3" horiz-adv-x="1046" 
d="M538 -27c-298.667 0 -448.001 165.665 -448.001 496.998v59h317v-52c0.666992 -84.667 10.334 -145.667 29.001 -183s53.667 -56 105 -56c27.333 0 49.5 5.16699 66.5 15.5s29.833 26.666 38.5 48.999s14.5 46.666 17.5 72.999s4.5 60.166 4.5 101.499
c0 88 -13 153.333 -39 196s-73.667 65.334 -143 68.001h-53v240h47c71.333 1.33301 120.5 20.333 147.5 57s40.5 97.334 40.5 182.001c0 70 -9.83301 122 -29.5 156s-54.167 51 -103.5 51s-82.833 -18.667 -100.5 -56s-26.834 -91.666 -27.501 -162.999v-72h-317v90
c0 144.667 39 256.834 117 336.501s187 119.5 327 119.5c142.667 0 252.834 -38.333 330.501 -115s116.5 -187 116.5 -331c0 -94 -19.667 -173.167 -59 -237.5s-90.333 -105.166 -153 -122.499c141.333 -51.333 212 -182 212 -392c0 -78 -8.16699 -147.333 -24.5 -208
s-41.666 -114 -75.999 -160s-80.333 -81.333 -138 -106s-125.834 -37 -204.501 -37z" />
    <glyph glyph-name="four" unicode="4" horiz-adv-x="1071" 
d="M323 635h244v697zM567 0v392h-497v259l426 1007h360v-1023h165v-243h-165v-392h-289z" />
    <glyph glyph-name="five" unicode="5" horiz-adv-x="1056" 
d="M537 -27c-68.667 0 -128.328 8.00195 -178.995 24.002s-91.834 38.167 -123.501 66.5s-57 64.5 -76 108.5s-32.167 90.667 -39.5 140s-11 106.666 -11 171.999h308c0 -48 1.66699 -87.333 5 -118s9.66602 -58.667 18.999 -84s23.333 -43.666 42 -54.999
c17.333 -10.667 39.666 -16 66.999 -16h5c15.333 0.666992 29.166 3 41.499 7s22.833 11 31.5 21s16.167 20 22.5 30s11.333 24.333 15 43s6.66699 35.167 9 49.5s4 34.833 5 61.5s1.66699 49.167 2 67.5s0.5 43.833 0.5 76.5c0 31.333 -0.666992 58.666 -2 81.999
s-3.5 47.166 -6.5 71.499s-7.83301 44.666 -14.5 60.999s-15 31.166 -25 44.499s-22.667 23.333 -38 30s-33.333 10 -54 10c-74.667 0 -122 -49 -142 -147h-273l21 939h767v-275h-505l-18 -362c18 20.667 46 38.334 84 53.001s80 23.667 126 27c12 0.666992 23.333 1 34 1
c108.667 0 192.334 -41.333 251.001 -124c64 -91.333 96 -222.666 96 -393.999c0 -62.667 -2.33301 -118.5 -7 -167.5s-12.834 -97.5 -24.501 -145.5s-28.334 -89.333 -50.001 -124s-48.5 -65.5 -80.5 -92.5s-71.833 -47.333 -119.5 -61s-102.167 -20.5 -163.5 -20.5z" />
    <glyph glyph-name="six" unicode="6" horiz-adv-x="1070" 
d="M554 216c25.333 0 46.334 6.33008 63.001 18.9971s29.167 32.334 37.5 59.001s14.166 55.834 17.499 87.501s5 70.834 5 117.501c0 30 -0.166992 52.667 -0.5 68s-1.33301 35.166 -3 59.499s-4 43 -7 56s-7.5 27.5 -13.5 43.5s-13.5 27.833 -22.5 35.5
s-20.167 14.334 -33.5 20.001s-28.666 8.5 -45.999 8.5c-28.667 0 -54.334 -8.16699 -77.001 -24.5s-39.667 -35.5 -51 -57.5v-259c0 -155.333 43.667 -233 131 -233zM550.001 -22.0029c-77.333 0 -145.001 13.666 -203.001 40.999s-104.5 66 -139.5 116
s-61.167 107.5 -78.5 172.5s-26 137.5 -26 217.5v577c0 68.667 4 130.5 12 185.5s22.167 107.5 42.5 157.5s47 91.667 80 125s75.833 59.833 128.5 79.5s113.667 29.5 183 29.5c146.667 0 253.334 -35.333 320.001 -106s101 -176 103 -316v-26h-301
c0 74 -7.66699 126.833 -23 158.5s-47.666 47.5 -96.999 47.5s-83 -24.333 -101 -73s-27 -136.667 -27 -264v-170c18 30.667 45.667 54.834 83 72.501s80.333 26.834 129 27.501h6c48.667 0 93 -7.33301 133 -22c41.333 -16 75.666 -38 102.999 -66
s49.666 -62.333 66.999 -103s29.833 -84.334 37.5 -131.001s11.5 -97.667 11.5 -153c0 -69.333 -4.5 -132.333 -13.5 -189s-24.167 -109.5 -45.5 -158.5s-48.666 -90.167 -81.999 -123.5s-75.5 -59.333 -126.5 -78s-109.5 -28 -175.5 -28z" />
    <glyph glyph-name="seven" unicode="7" horiz-adv-x="960" 
d="M211 0l342 1417h-444v241h753v-203l-344 -1455h-307z" />
    <glyph glyph-name="eight" unicode="8" horiz-adv-x="1058" 
d="M529 993c76.667 0 115 84.667 115 254c0 59.333 -9.5 106.5 -28.5 141.5s-47.833 52.5 -86.5 52.5c-40 0 -69.667 -17.333 -89 -52s-29 -81.667 -29 -141c0 -170 39.333 -255 118 -255zM529 212c24 0 44.502 5.66895 61.502 17.002s30.167 25.166 39.5 41.499
s16.5 37 21.5 62s8.16699 47.5 9.5 67.5s2 43 2 69c0 36.667 -1.5 68.834 -4.5 96.501s-8.83301 55 -17.5 82s-22.5 47.833 -41.5 62.5s-42.5 22 -70.5 22s-51.5 -7.33301 -70.5 -22s-33 -35.5 -42 -62.5s-15.167 -54.333 -18.5 -82s-5 -59.834 -5 -96.501
c0 -26 0.666992 -49.333 2 -70s4.83301 -43.334 10.5 -68.001s13.167 -45.167 22.5 -61.5s22.666 -30 39.999 -41s37.666 -16.5 60.999 -16.5zM529.002 -23.998c-296 0 -443.997 167.335 -443.997 502.002v11c0.666992 89.333 17 167.333 49 234s79.333 117 142 151
c-108 81.333 -163 201.666 -165 360.999v15c-0.666992 133.333 33.666 237.333 102.999 312c72 77.333 177 116 315 116s242.333 -38.667 313 -116c68.667 -75.333 102.667 -180.333 102 -315v-12c-2.66699 -163.333 -57.334 -283.666 -164.001 -360.999
c62.667 -34.667 110.167 -85.334 142.5 -152.001s49.166 -144.334 50.499 -233.001v-18c0 -330 -148 -495 -444 -495z" />
    <glyph glyph-name="nine" unicode="9" horiz-adv-x="1070" 
d="M533 867c52.667 0 93.334 27.335 122.001 82.002v259c0 32.667 -1.66699 61.667 -5 87s-9.16602 49.666 -17.499 72.999s-21.166 41.333 -38.499 54s-38.666 19 -63.999 19c-20.667 0 -38.334 -4.5 -53.001 -13.5s-26.334 -21.167 -35.001 -36.5s-15.667 -35.333 -21 -60
s-8.83301 -50.5 -10.5 -77.5s-2.5 -58.833 -2.5 -95.5c0 -30.667 0.166992 -53.334 0.5 -68.001s1.16602 -34.5 2.49902 -59.5s3.5 -43.667 6.5 -56s7.5 -26.666 13.5 -42.999s13.5 -28.333 22.5 -36s20.167 -14.334 33.5 -20.001s28.666 -8.5 45.999 -8.5zM529 -21.998
c-147.333 0 -253.997 35.499 -319.997 106.499s-99.667 177.167 -101 318.5v23h301c0 -73.333 8 -125.833 24 -157.5s48.667 -47.5 98 -47.5s82.333 24 99 72s25 136.333 25 265v169c-18 -30.667 -45.333 -54.667 -82 -72s-79.334 -26.666 -128.001 -27.999h-6
c-49.333 -0.666992 -94 7 -134 23c-41.333 16 -75.333 39 -102 69s-48.834 66 -66.501 108s-30.334 86.833 -38.001 134.5s-11.5 99.167 -11.5 154.5c0 375.333 147.667 563 443 563c77.333 0 145 -13 203 -39s104.667 -63.167 140 -111.5s61.5 -104.333 78.5 -168
s25.5 -135.167 25.5 -214.5v-591c0 -68.667 -4 -130.5 -12 -185.5s-22.333 -107.5 -43 -157.5s-47.667 -91.667 -81 -125s-76.333 -59.833 -129 -79.5s-113.667 -29.5 -183 -29.5z" />
    <glyph glyph-name="colon" unicode=":" horiz-adv-x="524" 
d="M131 842v292h294v-292h-294zM131 140v291h294v-291h-294z" />
    <glyph glyph-name="semicolon" unicode=";" horiz-adv-x="545" 
d="M130 878v297h294v-297h-294zM177 -205l-25 108c94 9.33301 141 62.333 141 159h-162v293h298v-263c-1.33301 -197.333 -85.333 -296.333 -252 -297z" />
    <glyph glyph-name="less" unicode="&#x3c;" horiz-adv-x="804" 
d="M686 164l-623 434v256l623 436v-279l-399 -284l399 -286v-277z" />
    <glyph glyph-name="equal" unicode="=" horiz-adv-x="895" 
d="M124 906v198h647v-198h-647zM124 523v198h647v-198h-647z" />
    <glyph glyph-name="greater" unicode="&#x3e;" horiz-adv-x="804" 
d="M113 164v277l399 286l-399 284v279l624 -436v-256z" />
    <glyph glyph-name="question" unicode="?" horiz-adv-x="995" 
d="M271 0v297h303v-297h-303zM280 431v262c224.667 192 337 378.333 337 559c0 7.33301 -0.333008 14.666 -1 21.999c-2 46.667 -15.333 82 -40 106s-56 36 -94 36c-37.333 0 -66 -12.333 -86 -37c-17.333 -21.333 -26 -48.333 -26 -81
c0 -5.33301 0.333008 -10.666 1 -15.999c0 -28 6 -60.667 18 -98l-281 -61c-17.333 66.667 -26 116 -26 148c-2 19.333 -3 38.333 -3 57c0.666992 97.333 29 178 85 242c66.667 76 171 114 313 114c143.333 0 253.5 -37 330.5 -111s115.5 -177.667 115.5 -311
c0 -119.333 -34 -233.833 -102 -343.5s-154.667 -206.167 -260 -289.5v-198h-281z" />
    <glyph glyph-name="at" unicode="@" horiz-adv-x="1934" 
d="M965 426c8.66699 1.33301 17.6709 3.83301 27.0039 7.5s20.166 9.16699 32.499 16.5s23.666 17.5 33.999 30.5s17.833 27.833 22.5 44.5l64 476c-2 7.33301 -8.83301 13 -20.5 17s-22.834 6 -33.501 6c-52 0 -98.5 -20.333 -139.5 -61s-71.833 -91.5 -92.5 -152.5
s-31.334 -124.833 -32.001 -191.5c-0.666992 -58.667 10.333 -106.667 33 -144c20 -33.333 50 -50 90 -50c4.66699 0 9.66699 0.333008 15 1zM969.004 -268c-291.333 0 -512.335 82.668 -663.002 248.001c-129.333 142 -193.666 332.333 -192.999 571
c0 39.333 1.66699 79.666 5 120.999c20 308 117.5 549.5 292.5 724.5s406.167 262.5 693.5 262.5c108.667 0 207 -14.667 295 -44s162 -69.833 222 -121.5s109.5 -113.167 148.5 -184.5s65.833 -149 80.5 -233c10 -56 15 -114.333 15 -175c0 -30 -1.33301 -60.667 -4 -92
c-3.33301 -57.333 -12.166 -114.166 -26.499 -170.499s-35.666 -111.166 -63.999 -164.499s-62 -100.166 -101 -140.499s-86.833 -72.833 -143.5 -97.5s-118 -37 -184 -37c-60.667 0 -114.5 14 -161.5 42s-76.833 68 -89.5 120c-14.667 -40 -38.667 -73.667 -72 -101
s-73.333 -43 -120 -47c-10.667 -0.666992 -21 -1 -31 -1c-42.667 0 -82 8 -118 24c-45.333 20 -82.166 49 -110.499 87s-49.833 82.333 -64.5 133c-12.667 44.667 -19 92.667 -19 144v21c1.33301 52.667 8.16602 106.834 20.499 162.501s31.5 111.5 57.5 167.5
s56.667 106 92 150s79.333 79.833 132 107.5s109.334 41.5 170.001 41.5c18.667 0 36 -3.5 52 -10.5s30 -17.5 42 -31.5s21 -25.167 27 -33.5s13 -19.833 21 -34.5c0.666992 -1.33301 1.33398 -2.5 2.00098 -3.5s1.33398 -2.16699 2.00098 -3.5l20 103h242l-97 -696
c-5.33301 -38.667 -8 -70.334 -8 -95.001c0 -20.667 2 -36.334 6 -47.001c6 -15.333 15.333 -24 28 -26c7.33301 -1.33301 14.666 -2 21.999 -2c58 0 112.333 38.667 163 116c57.333 86.667 89.666 191.667 96.999 315c2 29.333 3 57.666 3 84.999
c0 44.667 -2.66699 87 -8 127c-9.33301 65.333 -27.833 125.833 -55.5 181.5s-63.667 103.167 -108 142.5s-100 70 -167 92s-143.5 33 -229.5 33c-112.667 0 -213.834 -20 -303.501 -60s-164 -95.667 -223 -167s-105.333 -153.833 -139 -247.5
s-54.5 -196.834 -62.5 -309.501c-3.33301 -40 -5 -78.333 -5 -115c0 -183.333 44 -329 132 -437c106 -129.333 278.333 -194 517 -194c55.333 0 120.166 5.83301 194.499 17.5s141.5 27.167 201.5 46.5l39 -197c-174 -44.667 -328.667 -67 -464 -67z" />
    <glyph glyph-name="A" unicode="A" horiz-adv-x="1099" 
d="M453 576h197l-99 660zM41 0l324 1658h370l323 -1658h-313l-61 367h-263l-61 -367h-319z" />
    <glyph glyph-name="B" unicode="B" horiz-adv-x="1174" 
d="M460 989l81 -0.000976562c83.333 0 140.333 18.333 171 55s46 96.334 46 179.001c0 76.667 -19.833 130 -59.5 160s-102.167 45 -187.5 45h-51v-439zM460 236.999h92c84.667 0 143.5 20 176.5 60s49.5 104.667 49.5 194c0 96.667 -17.833 165.667 -53.5 207
s-96.5 62 -182.5 62h-82v-523zM123 -0.000976562l0.000976562 1658h420c61.333 0 116.166 -3.66699 164.499 -11s95 -20.5 140 -39.5s82.167 -44.333 111.5 -76s52.333 -72.834 69 -123.501c16 -49.333 24 -106.333 24 -171v-8c-2.66699 -199.333 -83.667 -312 -243 -338
c193.333 -30 291 -164.667 293 -404v-11c0 -156 -40.667 -274 -122 -354c-83.333 -81.333 -204 -122 -362 -122h-495z" />
    <glyph glyph-name="C" unicode="C" horiz-adv-x="1129" 
d="M584 -22c-90.667 0 -168.001 13.1641 -232.001 39.4971s-114.333 64.833 -151 115.5s-63 108.667 -79 174s-24 141.333 -24 228v585c0 90 8 168 24 234s42.333 124 79 174s86.834 87.667 150.501 113s141.167 38 232.5 38c86.667 0 160.5 -11.167 221.5 -33.5
s109 -55.166 144 -98.499s60.333 -93.166 76 -149.499s23.5 -122.166 23.5 -197.499v-144h-329v156v39c0 7.33301 -0.333008 19.333 -1 36s-1.83398 28.5 -3.50098 35.5l-7 30.5c-3 13.333 -6.66699 23 -11 29l-16.5 22c-6.66699 8.66699 -14.5 14.834 -23.5 18.501
s-19.667 7 -32 10s-25.833 4.5 -40.5 4.5c-26 0 -48.167 -4.5 -66.5 -13.5s-32.5 -20.167 -42.5 -33.5s-17.667 -31.5 -23 -54.5s-8.66602 -44.333 -9.99902 -64s-2 -44.5 -2 -74.5v-741c0 -80.667 10.167 -140 30.5 -178s58.166 -57 113.499 -57c21.333 0 40 2.66699 56 8
s28.833 14.166 38.5 26.499s17.334 24.333 23.001 36s9.66699 28.167 12 49.5s3.83301 39.333 4.5 54s1 35 1 61v162h329v-140c0 -76.667 -7.5 -143.834 -22.5 -201.501s-39.5 -109.667 -73.5 -156s-82 -81.666 -144 -105.999s-137 -36.5 -225 -36.5z" />
    <glyph glyph-name="D" unicode="D" horiz-adv-x="1167" 
d="M123 0l-0.00292969 1658h403c104.667 0 191.834 -9.66699 261.501 -29s125.334 -51 167.001 -95s71.167 -97.5 88.5 -160.5s26 -141.833 26 -236.5v-598c0 -96 -8.66699 -176.667 -26 -242s-46.666 -120.833 -87.999 -166.5s-96.333 -78.834 -165 -99.501
s-154 -31 -256 -31h-411zM459.997 235.001l70.002 -0.00195312c23.333 0 44.166 1.33301 62.499 4s34.166 7.33398 47.499 14.001s24.666 13.5 33.999 20.5s17.166 17.167 23.499 30.5s11.333 25.833 15 37.5s6.33398 27.834 8.00098 48.501s2.66699 39 3 55
s0.5 37.667 0.5 65v665c0 39.333 -1 70.666 -3 93.999s-6.66699 45.833 -14 67.5s-18.166 37.834 -32.499 48.501s-33.5 19.167 -57.5 25.5s-54 9.5 -90 9.5h-67v-1185z" />
    <glyph glyph-name="E" unicode="E" 
d="M123 0v1658h722v-234h-385v-439h299v-236h-299v-519h389v-230h-726z" />
    <glyph glyph-name="F" unicode="F" horiz-adv-x="866" 
d="M123 0v1658h702v-231h-365v-447h303v-236h-303v-744h-337z" />
    <glyph glyph-name="G" unicode="G" horiz-adv-x="1169" 
d="M548 -23c-82 0 -152.333 13.334 -211 40.001s-105.334 65.667 -140.001 117s-59.834 111.166 -75.501 179.499s-23.5 147.833 -23.5 238.5v546c0 74.667 4.83301 141 14.5 199s26.167 111.5 49.5 160.5s53.333 89.333 90 121s82.834 56.334 138.501 74.001
s120.167 26.5 193.5 26.5c86.667 0 161 -10.833 223 -32.5s111.167 -54.167 147.5 -97.5s62.666 -94 78.999 -152s24.5 -126 24.5 -204v-94h-327v112c0 30.667 -0.666992 55.667 -2 75s-4.66602 39.5 -9.99902 60.5s-13 37.5 -23 49.5s-23.833 21.833 -41.5 29.5
s-39.5 11.5 -65.5 11.5c-27.333 0 -50.333 -4.83301 -69 -14.5s-33 -21.334 -43 -35.001s-17.833 -32.834 -23.5 -57.501s-9 -46.667 -10 -66s-1.5 -44.666 -1.5 -75.999v-719c0 -80.667 11 -142 33 -184s63 -63 123 -63c60.667 0 102.834 22.5 126.501 67.5
s35.5 109.167 35.5 192.5v163h-163v208h467v-853h-221l-22 152c-50 -116.667 -141 -175 -273 -175z" />
    <glyph glyph-name="H" unicode="H" horiz-adv-x="1224" 
d="M128 0v1658h338v-680h292v680h338v-1658h-338v737h-292v-737h-338z" />
    <glyph glyph-name="I" unicode="I" horiz-adv-x="591" 
d="M129 0v1658h335v-1658h-335z" />
    <glyph glyph-name="J" unicode="J" horiz-adv-x="693" 
d="M23 -38l-0.000976562 236.002h7c78.667 0 131.667 12 159 36c28.667 24 43 74.333 43 151v1273h338l-1 -1285c-1.33301 -72 -8 -132.333 -20 -181s-32.5 -90.834 -61.5 -126.501s-68.167 -61.834 -117.5 -78.501s-110.666 -25 -183.999 -25h-163z" />
    <glyph glyph-name="K" unicode="K" horiz-adv-x="1127" 
d="M123 0v1658h337v-695l301 695h326l-311 -746l334 -912h-341l-262 759l-47 -80v-679h-337z" />
    <glyph glyph-name="L" unicode="L" horiz-adv-x="885" 
d="M123 0v1658h337v-1428h387v-230h-724z" />
    <glyph glyph-name="M" unicode="M" horiz-adv-x="1421" 
d="M119 0l27 1658h355l209 -1058l220 1058h345l27 -1658h-247l-23 1119l-215 -1119h-206l-221 1125l-21 -1125h-250z" />
    <glyph glyph-name="N" unicode="N" horiz-adv-x="1131" 
d="M123 0v1658h235l370 -861v861h280v-1658h-225l-372 916v-916h-288z" />
    <glyph glyph-name="O" unicode="O" horiz-adv-x="1177" 
d="M587 -22c-90 0 -166.667 12.1689 -230 36.502s-113.833 60.666 -151.5 108.999s-65 105.166 -82 170.499s-25.5 142.333 -25.5 231v612c0 88.667 8.5 165.5 25.5 230.5s44.333 121.167 82 168.5s88.167 83 151.5 107s140 36 230 36
c175.333 0 301.166 -45.667 377.499 -137s114.5 -226.333 114.5 -405v-612c0 -178.667 -38.167 -314.5 -114.5 -407.5s-202.166 -139.5 -377.499 -139.5zM587 221.002c25.333 0 47.166 4.16699 65.499 12.5s32.666 18.833 42.999 31.5s18.5 29.334 24.5 50.001
s9.83301 40.5 11.5 59.5s2.5 41.833 2.5 68.5v776c0 26.667 -0.833008 49.5 -2.5 68.5s-5.5 38.5 -11.5 58.5s-14.167 36.167 -24.5 48.5s-24.666 22.5 -42.999 30.5s-40.166 12 -65.499 12s-47 -4 -65 -12s-32 -18.167 -42 -30.5s-17.833 -28.666 -23.5 -48.999
s-9.33398 -39.833 -11.001 -58.5s-2.5 -41.334 -2.5 -68.001v-776c0 -26.667 0.833008 -49.5 2.5 -68.5s5.33398 -38.833 11.001 -59.5s13.5 -37.334 23.5 -50.001s24 -23.167 42 -31.5s39.667 -12.5 65 -12.5z" />
    <glyph glyph-name="P" unicode="P" horiz-adv-x="1117" 
d="M460 958h108c74.667 0 124.667 16.833 150 50.5s38 92.834 38 177.501c0 43.333 -1.83301 77.5 -5.5 102.5s-11.667 48.667 -24 71s-31.333 38.166 -57 47.499s-59.5 14 -101.5 14h-108v-463zM123 0l0.000976562 1658h518c288 0 432 -158.667 432 -476
c0 -86 -11.333 -159.5 -34 -220.5s-55.334 -108.667 -98.001 -143s-91 -59 -145 -74s-116 -22.5 -186 -22.5h-150v-722h-337z" />
    <glyph glyph-name="Q" unicode="Q" horiz-adv-x="1177" 
d="M587 221c25.333 0 47.166 4.16699 65.499 12.5s32.666 18.833 42.999 31.5s18.5 29.334 24.5 50.001s9.83301 40.5 11.5 59.5s2.5 41.833 2.5 68.5v776c0 26.667 -0.833008 49.5 -2.5 68.5s-5.5 38.5 -11.5 58.5s-14.167 36.167 -24.5 48.5s-24.666 22.5 -42.999 30.5
s-40.166 12 -65.499 12s-47 -4 -65 -12s-32 -18.167 -42 -30.5s-17.833 -28.666 -23.5 -48.999s-9.33398 -39.833 -11.001 -58.5s-2.5 -41.334 -2.5 -68.001v-776c0 -26.667 0.833008 -49.5 2.5 -68.5s5.33398 -38.833 11.001 -59.5s13.5 -37.334 23.5 -50.001
s24 -23.167 42 -31.5s39.667 -12.5 65 -12.5zM952 -329c-50 22 -107.332 63.1689 -171.999 123.502s-117.334 121.833 -158.001 184.5c-8 -0.666992 -19.667 -1 -35 -1c-90 0 -166.667 12.167 -230 36.5s-113.833 60.666 -151.5 108.999s-65 105.166 -82 170.499
s-25.5 142.333 -25.5 231v612c0 88.667 8.5 165.5 25.5 230.5s44.333 121.167 82 168.5s88.167 83 151.5 107s140 36 230 36c175.333 0 301.166 -45.667 377.499 -137s114.5 -226.333 114.5 -405v-612c0 -252.667 -74.667 -416.667 -224 -492
c64.667 -74 119.334 -123.667 164.001 -149z" />
    <glyph glyph-name="R" unicode="R" horiz-adv-x="1185" 
d="M460 952h84c81.333 0 139 19.167 173 57.5s51 99.5 51 183.5c0 82 -14.833 141.833 -44.5 179.5s-83.167 56.5 -160.5 56.5h-103v-477zM123 0v1658h419c88 0 163.667 -6.83301 227 -20.5s119.5 -36.834 168.5 -69.501s85.667 -78 110 -136s36.5 -129.333 36.5 -214
c0 -106.667 -15.167 -193 -45.5 -259s-82.5 -116 -156.5 -150l229 -809h-344l-190 748h-117v-748h-337z" />
    <glyph glyph-name="S" unicode="S" horiz-adv-x="1033" 
d="M553 -22c-154 0 -269.002 42.3301 -345.002 126.997s-117.333 214.667 -124 390l292 52c1.33301 -103.333 15.166 -181.166 41.499 -233.499s66.833 -78.5 121.5 -78.5c39.333 0 67.833 12.667 85.5 38s26.5 58 26.5 98c0 65.333 -14.167 120.166 -42.5 164.499
s-73.833 93.833 -136.5 148.5l-178 154c-45.333 39.333 -81.833 76.166 -109.5 110.499s-51 78 -70 131s-28.5 111.833 -28.5 176.5c0 134 39.667 237.833 119 311.5s188.333 110.834 327 111.501c46.667 0 89.334 -4.66699 128.001 -14s71.834 -22 99.501 -38
s52.167 -36 73.5 -60s38.666 -48.833 51.999 -74.5s24.666 -54.667 33.999 -87s16 -63 20 -92s7 -60.5 9 -94.5l-290 -46c-1.33301 34 -3 62.333 -5 85s-5.83301 46.167 -11.5 70.5s-13.167 43.333 -22.5 57s-22 24.834 -38 33.501s-35 12.334 -57 11.001
c-37.333 -2 -66.166 -16.333 -86.499 -43s-30.5 -59 -30.5 -97c0 -30 3.5 -57.167 10.5 -81.5s18.5 -47.5 34.5 -69.5s30.5 -39.667 43.5 -53s31.833 -31.333 56.5 -54l175 -152c37.333 -33.333 69.833 -65.666 97.5 -96.999s53.834 -67 78.501 -107s43.5 -84 56.5 -132
s19.5 -99 19.5 -153c0 -120.667 -39.167 -219.667 -117.5 -297s-181.166 -116 -308.499 -116z" />
    <glyph glyph-name="T" unicode="T" horiz-adv-x="892" 
d="M280 0v1409h-265v249h863v-249h-261v-1409h-337z" />
    <glyph glyph-name="U" unicode="U" horiz-adv-x="1180" 
d="M590 -22c-92.667 0 -170.5 12.165 -233.5 36.498s-112.333 61.333 -148 111s-60.834 107.334 -75.501 173.001s-22 145.167 -22 238.5v1121h331v-1164c0 -31.333 0.833008 -58.166 2.5 -80.499s5.33398 -46.166 11.001 -71.499s13.667 -45.833 24 -61.5
s24.833 -28.667 43.5 -39s41 -15.5 67 -15.5s48.5 5.16699 67.5 15.5s33.5 23.333 43.5 39s18 36.167 24 61.5s9.66699 49 11 71s2 49 2 81v1164h331v-1121c0 -93.333 -7.33301 -172.833 -22 -238.5s-39.667 -123.334 -75 -173.001s-84.5 -86.667 -147.5 -111
s-141.167 -36.5 -234.5 -36.5z" />
    <glyph glyph-name="V" unicode="V" horiz-adv-x="1069" 
d="M363 0l-317 1658h293l196 -1134l184 1134h306l-319 -1658h-343z" />
    <glyph glyph-name="W" unicode="W" horiz-adv-x="1449" 
d="M278 0l-216 1658h285l115 -1011l149 1011h225l155 -1008l115 1008h282l-217 -1658h-284l-162 1048l-158 -1048h-289z" />
    <glyph glyph-name="X" unicode="X" horiz-adv-x="1040" 
d="M17 0l328 887l-316 771h318l196 -478l164 478h289l-304 -846l331 -812h-315l-215 522l-190 -522h-286z" />
    <glyph glyph-name="Y" unicode="Y" horiz-adv-x="1007" 
d="M343 0v657l-325 1001h316l179 -586l167 586h309l-323 -1001v-657h-323z" />
    <glyph glyph-name="Z" unicode="Z" horiz-adv-x="879" 
d="M67 0v211l419 1216h-401v231h739v-178l-435 -1250h438v-230h-760z" />
    <glyph glyph-name="bracketleft" unicode="[" horiz-adv-x="693" 
d="M111 -384l1 2042h506v-127h-250l-1 -1787h250v-128h-506z" />
    <glyph glyph-name="backslash" unicode="\" horiz-adv-x="841" 
d="M571 0l-489 1658h188l488 -1658h-187z" />
    <glyph glyph-name="bracketright" unicode="]" horiz-adv-x="661" 
d="M44 -384v128h250l-1 1786h-250v128h506l1 -2042h-506z" />
    <glyph glyph-name="asciicircum" unicode="^" horiz-adv-x="967" 
d="M64 975l289 683h260l290 -683h-270l-151 425l-149 -425h-269z" />
    <glyph glyph-name="underscore" unicode="_" horiz-adv-x="742" 
d="M0 -329v213h742v-213h-742z" />
    <glyph glyph-name="grave" unicode="`" horiz-adv-x="623" 
d="M346 1247l-253 411h316l123 -411h-186z" />
    <glyph glyph-name="a" unicode="a" horiz-adv-x="954" 
d="M457 204c18 0 36.499 6.66699 55.499 20s34.167 28 45.5 44v324c-55.333 -28.667 -101.5 -66.167 -138.5 -112.5s-55.5 -94.5 -55.5 -144.5c0 -40 8.33301 -71.833 25 -95.5s39.334 -35.5 68.001 -35.5zM341.999 -20c-53.333 0.666992 -100.833 15.3311 -142.5 43.998
s-72.667 64.334 -93 107.001s-30.5 87.667 -30.5 135c0 30.667 3 60 9 88s13.333 53 22 75s21 43.167 37 63.5s31 38 45 53s32.5 30.167 55.5 45.5s42.833 27.833 59.5 37.5s38.334 20.5 65.001 32.5s47.834 21.167 63.501 27.5l65 25.5l60.5 23v109
c0 42.667 -5.5 74.5 -16.5 95.5s-32.167 31.5 -63.5 31.5c-52.667 0 -80.334 -37 -83.001 -111l-6 -81l-293 12c0 13.333 1 27 3 41c8.66699 126.667 47 219.834 115 279.501s165 89.5 291 89.5c116.667 0 204.5 -32 263.5 -96s88.5 -151.667 88.5 -263v-547
c0 -90.667 7.33301 -189.667 22 -297h-277c-16.667 87.333 -26.334 144 -29.001 170c-16 -54 -43.5 -99.167 -82.5 -135.5s-88.5 -54.5 -148.5 -54.5z" />
    <glyph glyph-name="b" unicode="b" horiz-adv-x="1010" 
d="M524 190h2c32 0 54.667 15.333 68 46c13.333 32 19.666 75 18.999 129v485c0 102.667 -29.333 154 -88 154h-6c-30 -0.666992 -64 -14.667 -102 -42v-739c34.667 -21.333 70.334 -32.333 107.001 -33zM654 -20c-79.333 0 -158.334 36 -237.001 108v-88h-309v1658h309
v-562c76.667 71.333 157.334 107 242.001 107h7c47.333 -0.666992 88.5 -12.5 123.5 -35.5s61.667 -53.167 80 -90.5s31.833 -76.333 40.5 -117s13 -83.667 13 -129v-453c0 -118.667 -22.5 -214.667 -67.5 -288s-112.167 -110 -201.5 -110z" />
    <glyph glyph-name="c" unicode="c" horiz-adv-x="932" 
d="M477 -20c-131.333 0 -229.835 36.334 -295.502 109.001s-98.5 175.667 -98.5 309v389c0 133.333 32.667 236 98 308s164 108 296 108c254.667 0 382 -120 382 -360v-112h-295v119c0 51.333 -6.66699 87.166 -20 107.499s-35 30.5 -65 30.5c-32 0 -54.333 -12 -67 -36
s-19 -67.333 -19 -130v-464c0 -62 6.83301 -104.333 20.5 -127s35.834 -34 66.501 -34s52.334 10.667 65.001 32s19 55.333 19 102v142h295v-129c0 -119.333 -32.333 -209.833 -97 -271.5s-159.667 -92.5 -285 -92.5z" />
    <glyph glyph-name="d" unicode="d" horiz-adv-x="1003" 
d="M492 188c27.333 0 59.333 10 96 30v751c-33.333 20 -65.333 30 -96 30c-33.333 0 -57.5 -14.167 -72.5 -42.5s-22.5 -64.833 -22.5 -109.5v-492c0 -111.333 31.667 -167 95 -167zM369 -20c-188 0 -282 132.001 -282 396.001v419c0 79.333 9 148.666 27 207.999
s48.5 107.5 91.5 144.5s96.833 55.5 161.5 55.5c78 0 151.667 -30.667 221 -92v547h309v-1658h-309v86c-70 -70 -143 -105.333 -219 -106z" />
    <glyph glyph-name="e" unicode="e" horiz-adv-x="940" 
d="M390 723h181v116c0 50.667 -7.5 87 -22.5 109s-38.5 33 -70.5 33s-54.667 -12.5 -68 -37.5s-20 -68.833 -20 -131.5v-89zM480 -20c-132.667 0 -232.001 36.1699 -298.001 108.503s-99 176.166 -99 311.499v383c0 135.333 33.333 239.166 100 311.499
s165.334 108.5 296.001 108.5c134 0 231.167 -36.167 291.5 -108.5s90.5 -179.833 90.5 -322.5v-198h-471v-194c0 -58.667 6 -102.834 18 -132.501s35.667 -44.5 71 -44.5c61.333 0 92 44.333 92 133v110h289v-96c0 -120 -32.667 -211.667 -98 -275s-159.333 -95 -282 -95z
" />
    <glyph glyph-name="f" unicode="f" horiz-adv-x="642" 
d="M156 0l0.000976562 969.999h-120v214h120v74c0 47.333 2 87.5 6 120.5s12.167 65.333 24.5 97s29.666 56.834 51.999 75.501s52.5 33.667 90.5 45s83.667 17 137 17c40 0 92 -3.66699 156 -11v-230c-46.667 6.66699 -71 10 -73 10c-56 0 -84 -35.333 -84 -106v-92h157
v-214h-157v-970h-309z" />
    <glyph glyph-name="g" unicode="g" horiz-adv-x="990" 
d="M485 556c42 0 69.333 16.335 82 49.002s19 91.667 19 177c0 36 -0.5 64.667 -1.5 86s-3.33301 42.333 -7 63s-9.16699 36.167 -16.5 46.5s-17.166 18.666 -29.499 24.999s-27.5 9.5 -45.5 9.5c-18.667 0 -34.167 -3.33301 -46.5 -10s-22 -15.334 -29 -26.001
s-12.333 -26.5 -16 -47.5s-6 -42 -7 -63s-1.5 -48.833 -1.5 -83.5c0 -39.333 1.16699 -71.5 3.5 -96.5s6.83301 -48 13.5 -69s16.667 -36.333 30 -46s30.666 -14.5 51.999 -14.5zM534 -152.998c55.333 0 95.833 6.33398 121.5 19.001s39.5 33.667 41.5 63
c0.666992 5.33301 1 10.333 1 15c0 28 -8.33301 48.667 -25 62c-19.333 16 -54.333 26.667 -105 32l-183 19c-35.333 -46.667 -53 -87.667 -53 -123c0 -30.667 14 -52.834 42 -66.501s81.333 -20.5 160 -20.5zM535 -356.997c-39.333 0 -74.501 0.668945 -105.501 2.00195
s-66.833 4.16602 -107.5 8.49902s-75.667 11.5 -105 21.5s-57.5 22.5 -84.5 37.5s-47.667 34.833 -62 59.5s-21.5 53 -21.5 85c0 88 55.667 168.667 167 242c-46 16.667 -79.667 36 -101 58s-33.666 47.333 -36.999 76c-1.33301 9.33301 -2 18 -2 26
c0 32.667 9.33301 62.334 28 89.001c23.333 33.333 61.333 71 114 113c-42.667 32 -75 72 -97 120s-33 111 -33 189c0 146 34 254.667 102 326s164.667 107 290 107s213 -36 263 -108c48.667 56 102 98.667 160 128l42 21l72 -161c-22 -6 -55.5 -18.333 -100.5 -37
s-78.167 -34.334 -99.5 -47.001c14.667 -23.333 27.334 -55.666 38.001 -96.999s16 -85.333 16 -132c0 -128 -30.333 -227.667 -91 -299s-154.667 -107 -282 -107c-26.667 0 -57.5 3.16699 -92.5 9.5s-60.833 13.166 -77.5 20.499c-22.667 -29.333 -34 -54 -34 -74v-6
c2.66699 -22.667 38.667 -38.334 108 -47.001c12.667 -2.66699 50 -7.5 112 -14.5s103.667 -12.167 125 -15.5c107.333 -12.667 184.166 -42 230.499 -88s69.5 -112 69.5 -198c0 -101.333 -31 -178 -93 -230s-165.667 -78 -311 -78z" />
    <glyph glyph-name="h" unicode="h" horiz-adv-x="1014" 
d="M108 0l-0.000976562 1658h310v-584c88 86 185 129 291 129c68.667 0 120.334 -25.167 155.001 -75.5s52 -113.833 52 -190.5v-937h-309v882c0 32.667 -5 57 -15 73c-9.33301 15.333 -27.333 23 -54 23h-3c-31.333 0 -70.333 -16.667 -117 -50v-928h-310z" />
    <glyph glyph-name="i" unicode="i" horiz-adv-x="529" 
d="M110 1378v235h311v-235h-311zM111 0v1184h309v-1184h-309z" />
    <glyph glyph-name="j" unicode="j" horiz-adv-x="544" 
d="M132 1378v235h311v-235h-311zM-24 -325l-0.000976562 222c26.667 -4.66699 46.334 -7 59.001 -7c65.333 0 98 36 98 108v1186h309v-1222c0 -94.667 -26.5 -170 -79.5 -226s-127.5 -84 -223.5 -84c-56 0 -110.333 7.66699 -163 23z" />
    <glyph glyph-name="k" unicode="k" horiz-adv-x="1051" 
d="M108 1v1658h307v-932l290 457h343l-302 -480l298 -704h-332l-208 571l-89 -119v-451h-307z" />
    <glyph glyph-name="l" unicode="l" horiz-adv-x="542" 
d="M121 0v1658h310v-1658h-310z" />
    <glyph glyph-name="m" unicode="m" horiz-adv-x="1509" 
d="M106 0l-0.00195312 1184h299v-99c80 80.667 173.667 121 281 121c46.667 0 87.334 -12 122.001 -36s60.667 -59.667 78 -107c84 95.333 184.333 143 301 143c68 0 122.333 -24.833 163 -74.5s61 -119.5 61 -209.5v-922h-300v893c0 36.667 -6.33301 63.167 -19 79.5
s-31.667 23.833 -57 22.5c-41.333 0 -83.666 -18 -126.999 -54c0.666992 -4 1 -10.333 1 -19v-922h-298v893c0.666992 36.667 -5.66602 63 -18.999 79c-12 15.333 -29.667 23 -53 23h-6c-38.667 0 -81.334 -18.667 -128.001 -56v-939h-299z" />
    <glyph glyph-name="n" unicode="n" horiz-adv-x="1008" 
d="M106 0l-0.000976562 1184h309v-117c95.333 90.667 191.333 136 288 136c68.667 0 120.334 -25.167 155.001 -75.5s52 -113.833 52 -190.5v-937h-310v882c0 32.667 -5 57 -15 73s-28.667 23.667 -56 23c-32 0 -70 -15.667 -114 -47v-931h-309z" />
    <glyph glyph-name="o" unicode="o" horiz-adv-x="962" 
d="M479 -20c-128 0 -226 34.5 -294 103.5s-102 168.167 -102 297.5v422c0 128.667 34 227.5 102 296.5s166 103.5 294 103.5c128.667 0 227.5 -34.5 296.5 -103.5s103.5 -167.833 103.5 -296.5v-422c0 -128.667 -34.5 -227.667 -103.5 -297s-167.833 -104 -296.5 -104z
M480 192c36.667 0 61.334 14.168 74.001 42.501s19 69.833 19 124.5v465c0 55.333 -6.33301 97.166 -19 125.499s-37.334 42.5 -74.001 42.5c-36 0 -60.167 -14.5 -72.5 -43.5s-18.5 -70.5 -18.5 -124.5v-465c0 -54 6.16699 -95.333 18.5 -124s36.5 -43 72.5 -43z" />
    <glyph glyph-name="p" unicode="p" horiz-adv-x="1008" 
d="M520 190c23.333 0 42.001 8.33301 56.001 25s23.333 37.167 28 61.5s7 53.833 7 88.5v485c-0.666992 46 -8.33398 83.667 -23.001 113c-14 27.333 -36.333 41 -67 41h-6c-28.667 -0.666992 -62 -14.667 -100 -42v-739c34.667 -21.333 69.667 -32.333 105 -33z
M106.001 -390v1574h309v-89c77.333 72 158 108 242 108h7c47.333 -0.666992 88.5 -12.5 123.5 -35.5s61.667 -53.167 80 -90.5s31.833 -76.333 40.5 -117s13 -83.667 13 -129v-453c0 -118.667 -22.5 -214.667 -67.5 -288s-112.167 -110 -201.5 -110
c-78.667 0 -157.667 36.333 -237 109v-479h-309z" />
    <glyph glyph-name="q" unicode="q" horiz-adv-x="1005" 
d="M493 188c27.333 0 60.334 11 99.001 33v746c-36 21.333 -69 32 -99 32c-32.667 0 -56.834 -14.167 -72.501 -42.5s-23.5 -64.833 -23.5 -109.5v-492c0 -111.333 32 -167 96 -167zM592.001 -390l0.000976562 480c-72.667 -72.667 -147.334 -109.334 -224.001 -110.001
c-187.333 0 -281 132 -281 396v419c0 122.667 22.833 221.334 68.5 296.001s115.834 112 210.501 112c79.333 0 154.666 -32.333 225.999 -97v78h309v-1574h-309z" />
    <glyph glyph-name="r" unicode="r" horiz-adv-x="738" 
d="M110 0l0.00195312 1184h309v-190c73.333 136.667 154 205 242 205c14 0 29 -2.33301 45 -7v-287c-22.667 8 -47 12 -73 12c-44.667 -2 -83.834 -13.5 -117.501 -34.5s-65.834 -54.167 -96.501 -99.5v-783h-309z" />
    <glyph glyph-name="s" unicode="s" horiz-adv-x="841" 
d="M435 -20c-197.333 0 -328.669 102.333 -394.002 307l223 90c38 -122 91.667 -183 161 -183h8c25.333 1.33301 46 10.666 62 27.999c14.667 16 22 35.333 22 58v6c-1.33301 35.333 -47.666 92 -138.999 170l-122 104c-124 105.333 -186 212 -186 320c0 96 34 174 102 234
c66.667 59.333 149.667 89 249 89c94.667 0 172.834 -27.167 234.501 -81.5s103.834 -129.166 126.501 -224.499l-202 -90c-12 48.667 -30.167 90.167 -54.5 124.5s-53.833 51.833 -88.5 52.5h-6c-24 0 -43.333 -7.33301 -58 -22c-16 -16 -24.333 -35 -25 -57
c-0.666992 -15.333 6.5 -33.5 21.5 -54.5s29.667 -38.333 44 -52s36.833 -33.834 67.5 -60.501l122 -110c24.667 -21.333 44.167 -38.833 58.5 -52.5s31.666 -32.167 51.999 -55.5s36 -45 47 -65s20.667 -43.667 29 -71s12.5 -55.666 12.5 -84.999
c0 -66.667 -17 -124.667 -51 -174s-78.333 -85.833 -133 -109.5s-115.667 -35.5 -183 -35.5z" />
    <glyph glyph-name="t" unicode="t" horiz-adv-x="704" 
d="M439 -15c-48 1.33301 -89.667 9.16504 -125 23.498s-63.5 32.833 -84.5 55.5s-37.833 51.334 -50.5 86.001s-21.334 69.834 -26.001 105.501s-7 76.5 -7 122.5v603h-114v203h114v354h312v-354h175v-203h-175v-644c0 -66.667 35.667 -101 107 -103h7
c21.333 0 48 2.66699 80 8v-242c-81.333 -10 -146.666 -15 -195.999 -15h-17z" />
    <glyph glyph-name="u" unicode="u" horiz-adv-x="1001" 
d="M303 -19c-68.667 0 -120.334 25.167 -155.001 75.5s-52 113.833 -52 190.5v937h309v-889c0.666992 -32.667 6.33398 -57 17.001 -73s28.667 -24 54 -24h3c30.667 0.666992 66 14.667 106 42v944h310v-1184h-310v110c-91.333 -86 -185.333 -129 -282 -129z" />
    <glyph glyph-name="v" unicode="v" horiz-adv-x="846" 
d="M257 0l-233 1184h299l106 -803l102 803h296l-235 -1184h-335z" />
    <glyph glyph-name="w" unicode="w" horiz-adv-x="1221" 
d="M224 0l-177 1184h257l93 -715l108 715h225l98 -725l104 725h243l-184 -1184h-263l-115 698l-123 -698h-266z" />
    <glyph glyph-name="x" unicode="x" horiz-adv-x="878" 
d="M19 0l254 642l-244 542h308l138 -303l119 303h252l-244 -587l269 -597h-309l-153 340l-125 -340h-265z" />
    <glyph glyph-name="y" unicode="y" horiz-adv-x="888" 
d="M126 -331l-0.000976562 218c77.333 0 130 7.66699 158 23c22.667 12.667 34.334 36.667 35.001 72c0 8 -0.666992 16.333 -2 25c-4.66699 34 -18.667 94.333 -42 181c-12 50.667 -56.333 216.667 -133 498s-121 447.333 -133 498h296l147 -725l120 725h296l-280 -1247
c-38.667 -178.667 -175.667 -268 -411 -268h-10h-41z" />
    <glyph glyph-name="z" unicode="z" horiz-adv-x="780" 
d="M69 0v201l333 756h-305v227h628v-184l-331 -772h333v-228h-658z" />
    <glyph glyph-name="braceleft" unicode="{" horiz-adv-x="734" 
d="M674 -401c-70.667 0 -130.003 2.66797 -178.003 8.00098s-89.167 15.5 -123.5 30.5s-61 32 -80 51s-33.833 46.667 -44.5 83s-17.5 73.166 -20.5 110.499s-4.5 87 -4.5 149v200c0 50.667 -0.333008 90.167 -1 118.5s-2.66699 55.5 -6 81.5s-7.5 44.5 -12.5 55.5
s-12.833 20.833 -23.5 29.5s-22.5 14 -35.5 16s-30.167 3 -51.5 3v219c21.333 0 38.5 1 51.5 3s24.833 7.33301 35.5 16s18.5 18.5 23.5 29.5s9.16699 29.333 12.5 55s5.33301 52.834 6 81.501s1 68 1 118v200c0 46 0.833008 84.5 2.5 115.5s5 62.167 10 93.5
s11.833 56.666 20.5 75.999s21 38.166 37 56.499s34.667 32.5 56 42.5s47.833 19 79.5 27s67.334 13.5 107.001 16.5s85.834 4.5 138.501 4.5v-212c-25.333 0 -45.666 -0.833008 -60.999 -2.5s-29.333 -5.83398 -42 -12.501s-22 -14.5 -28 -23.5
s-11.167 -23.167 -15.5 -42.5s-7 -40.166 -8 -62.499s-1.5 -52.166 -1.5 -89.499v-224c0 -116 -12.667 -204 -38 -264s-69 -97.333 -131 -112c62 -14 105.667 -51 131 -111s38 -148 38 -264v-224c0 -44.667 1 -79.5 3 -104.5s5.66699 -47.167 11 -66.5s14.333 -33 27 -41
s27.5 -13.667 44.5 -17s40.5 -5 70.5 -5v-212z" />
    <glyph glyph-name="bar" unicode="|" horiz-adv-x="529" 
d="M134 -351v2009h262l-1 -2009h-261z" />
    <glyph glyph-name="braceright" unicode="}" horiz-adv-x="756" 
d="M82 -401l-0.000976562 211.996c25.333 0 45.666 0.833008 60.999 2.5s29.333 5.83398 42 12.501s22.167 14.5 28.5 23.5s11.5 23.333 15.5 43s6.5 40.667 7.5 63s1.5 52.166 1.5 89.499v224c0 116 12.833 204 38.5 264s69.167 97 130.5 111
c-61.333 14.667 -104.833 52 -130.5 112s-38.5 148 -38.5 264v224c0 37.333 -0.5 67 -1.5 89s-3.5 42.833 -7.5 62.5s-9.16699 34 -15.5 43s-15.833 16.833 -28.5 23.5s-26.667 10.834 -42 12.501s-35.666 2.5 -60.999 2.5v212c52.667 0 98.834 -1.5 138.501 -4.5
s75.334 -8.5 107.001 -16.5s58.334 -17 80.001 -27s40.334 -24.167 56.001 -42.5s28 -37.166 37 -56.499s16 -44.666 21 -75.999s8.33301 -62.5 10 -93.5s2.5 -69.5 2.5 -115.5v-200c0 -50.667 0.333008 -90 1 -118s2.66699 -55 6 -81s7.33301 -44.5 12 -55.5
s12.334 -21 23.001 -30s22.5 -14.333 35.5 -16s30.167 -2.5 51.5 -2.5v-219c-21.333 0 -38.333 -0.833008 -51 -2.5s-24.5 -7 -35.5 -16s-18.833 -19 -23.5 -30s-8.66699 -29.5 -12 -55.5s-5.33301 -53.167 -6 -81.5s-1 -67.833 -1 -118.5v-200
c0 -46 -0.833008 -84.333 -2.5 -115s-5 -61.667 -10 -93s-12 -56.666 -21 -75.999s-21.333 -38.333 -37 -57s-34.334 -33 -56.001 -43s-48.334 -19 -80.001 -27s-67.334 -13.5 -107.001 -16.5s-85.834 -4.5 -138.501 -4.5z" />
    <glyph glyph-name="asciitilde" unicode="~" horiz-adv-x="975" 
d="M658 695c-32 0 -70.3311 10.167 -114.998 30.5l-127.5 60.5c-40.333 20 -71.5 30 -93.5 30c-17.333 0 -39.833 -8.66699 -67.5 -26s-52.834 -39.666 -75.501 -66.999l-100 133c30 45.333 68.5 87 115.5 125s90.167 57 129.5 57c32 0 70.167 -9.83301 114.5 -29.5
s86.333 -39.334 126 -59.001s70.167 -29.5 91.5 -29.5c33.333 0 80.666 31.333 141.999 94l108 -117c-26 -50.667 -63 -97 -111 -139s-93.667 -63 -137 -63z" />
    <glyph glyph-name="uni00A0" unicode="&#xa0;" horiz-adv-x="515" 
 />
    <glyph glyph-name="exclamdown" unicode="&#xa1;" horiz-adv-x="471" 
d="M97 1035v292h295v-292h-295zM80 -327l109 1250h108l91 -1250h-308z" />
    <glyph glyph-name="cent" unicode="&#xa2;" horiz-adv-x="898" 
d="M417 -236v218.997c-112.667 10.667 -197.167 51.834 -253.5 123.501s-84.5 168.834 -84.5 291.501v389c0 122.667 28.333 219.667 85 291s141 112.333 253 123v216h82v-214c120 -4 209.333 -35.667 268 -95s88 -147.666 88 -264.999v-112h-294v114
c0 51.333 -6.66699 87 -20 107s-35 30 -65 30c-32 0 -54.333 -12 -67 -36s-19 -67 -19 -129v-453c0 -62 6.66699 -104.333 20 -127s35.333 -34 66 -34c31.333 0 53.333 10.5 66 31.5s19 54.833 19 101.5v137h294v-129c0 -234.667 -118.667 -355.667 -356 -363v-217h-82z" />
    <glyph glyph-name="sterling" unicode="&#xa3;" horiz-adv-x="958" 
d="M31 0v169.998l121 58v442h-121v240h121v182c0 50.667 1 95.167 3 133.5s6.16699 79 12.5 122s15.166 79.833 26.499 110.5s26.666 60.667 45.999 90s42.5 53 69.5 71s60 32.5 99 43.5s83.167 16.5 132.5 16.5c68.667 0 126.834 -10.333 174.501 -31
s84.334 -51 110.001 -91s44 -84.333 55 -133s16.5 -105.667 16.5 -171v-55h-263c0 28 -0.333008 51 -1 69s-2.66699 37.833 -6 59.5s-8.16602 38.5 -14.499 50.5s-15.333 22.333 -27 31s-25.834 13 -42.501 13c-14 0 -26 -2.83301 -36 -8.5s-18.167 -14.667 -24.5 -27
s-11.5 -25.166 -15.5 -38.499s-7 -31.333 -9 -54s-3.33301 -43.167 -4 -61.5s-1 -42.166 -1 -71.499v-252h240v-238h-240v-414h437v-256h-859z" />
    <glyph glyph-name="currency" unicode="&#xa4;" horiz-adv-x="1138" 
d="M569 521c94 0 173.333 33.667 238 101s97 148.666 97 243.999s-32.167 176.666 -96.5 243.999s-143.833 101 -238.5 101c-94 0 -173.167 -33.667 -237.5 -101s-96.5 -148.666 -96.5 -243.999s32.167 -176.666 96.5 -243.999s143.5 -101 237.5 -101zM114 381l-30 29.999
l163 162c-74 82.667 -111 180.334 -111 293.001s37 210.334 111 293.001l-163 162l30 30l162 -162c81.333 76.667 178 115 290 115h2.5h3.5c112 0 208.667 -38.333 290 -115l162 162l30 -30l-162 -162c73.333 -83.333 110 -181 110 -293
c0 -112.667 -37 -210.334 -111 -293.001l163 -162l-30 -30l-162 162c-81.333 -76.667 -178 -115 -290 -115h-2.5h-3.5c-112 0 -208.667 38.333 -290 115z" />
    <glyph glyph-name="yen" unicode="&#xa5;" horiz-adv-x="968" 
d="M333 0v242h-171v164h171v131h-171v167h134l-289 954h317l179 -667l167 667h309l-286 -954h135v-167h-172v-131h172v-164h-172v-242h-323z" />
    <glyph glyph-name="brokenbar" unicode="&#xa6;" horiz-adv-x="444" 
d="M111 824v834h222v-834h-222zM111 -351v834h222v-834h-222z" />
    <glyph glyph-name="section" unicode="&#xa7;" horiz-adv-x="949" 
d="M516 726c55.333 29.333 83 64.667 83 106c0 40.667 -21 74 -63 100l-97 59c-26 -10 -47.333 -25 -64 -45s-25 -42.333 -25 -67c0 -16 4 -31.833 12 -47.5s18.667 -27.5 32 -35.5zM469 -13.999c-101.333 0 -182.844 30.167 -244.511 90.5
s-104.834 140.166 -129.501 239.499l212 59c6.66699 -18.667 14.834 -36.834 24.501 -54.501s21.334 -35.167 35.001 -52.5s29.834 -31.166 48.501 -41.499s38.334 -15.5 59.001 -15.5c36 0 64.5 8.66699 85.5 26s32.167 41.666 33.5 72.999v6c0 32 -9.66699 60.667 -29 86
c-20.667 26.667 -56 55 -106 85l-196 120c-54 32.667 -95.667 70.334 -125 113.001c-26.667 38.667 -40 85.667 -40 141v15c2.66699 60.667 20.334 112.667 53.001 156s73.334 73.666 122.001 90.999c-48 27.333 -90 64.5 -126 111.5s-55 97.5 -57 151.5v14
c0 60 15.667 112.667 47 158c34 49.333 80 86 138 110s123.333 36 196 36c102.667 0 186.334 -30.667 251.001 -92s108.667 -142 132 -242l-208 -56c-7.33301 22.667 -15.166 42.834 -23.499 60.501s-19 35.334 -32 53.001s-29.167 31.334 -48.5 41.001
s-40.666 14.5 -63.999 14.5c-33.333 -0.666992 -59.666 -9.5 -78.999 -26.5s-29 -41.5 -29 -73.5c0 -16.667 3.5 -32.334 10.5 -47.001s17.333 -28 31 -40s24.834 -21 33.501 -27s20.667 -13.333 36 -22l188 -117c116 -72 174 -165.667 174 -281
c0 -56.667 -13.667 -104.667 -41 -144s-66.333 -75 -117 -107c54.667 -44 95.834 -87.5 123.501 -130.5s41.5 -92.833 41.5 -149.5c0 -101.333 -33.833 -182 -101.5 -242s-160.5 -90 -278.5 -90z" />
    <glyph glyph-name="dieresis" unicode="&#xa8;" horiz-adv-x="859" 
d="M509 1372v286h261v-286h-261zM89 1372v286h261v-286h-261z" />
    <glyph glyph-name="copyright" unicode="&#xa9;" horiz-adv-x="1797" 
d="M899 -25c-112.667 0 -215.333 16.667 -308 50s-170 77.833 -232 133.5s-114.333 120.834 -157 195.501s-73.5 152.167 -92.5 232.5s-28.5 163.166 -28.5 248.499s9.5 168.333 28.5 249s49.833 158.334 92.5 233.001s95 139.667 157 195s139.333 99.666 232 132.999
s195.334 50 308.001 50s215.167 -16.667 307.5 -50s169.5 -77.666 231.5 -132.999s114.333 -120.333 157 -195s73.5 -152.334 92.5 -233.001s28.5 -163.667 28.5 -249s-9.5 -168.333 -28.5 -249s-49.667 -158.334 -92 -233.001s-94.5 -139.667 -156.5 -195
s-139.333 -99.666 -232 -132.999s-195.334 -50 -308.001 -50zM903.001 60c96.667 0 185.331 14.5 265.998 43.5s148.667 68 204 117s102 106.833 140 173.5s65.833 136.834 83.5 210.501s26.5 150.167 26.5 229.5c0 80 -8.83301 156.833 -26.5 230.5
s-45.5 143.5 -83.5 209.5s-84.667 123.333 -140 172s-123.166 87.167 -203.499 115.5s-169.166 42.5 -266.499 42.5s-186.333 -14.167 -267 -42.5s-148.667 -66.833 -204 -115.5s-102 -106 -140 -172s-65.833 -135.833 -83.5 -209.5s-26.5 -150.5 -26.5 -230.5
c0 -79.333 8.83301 -155.833 26.5 -229.5s45.5 -143.834 83.5 -210.501s84.667 -124.5 140 -173.5s123.333 -88 204 -117s169.667 -43.5 267 -43.5zM899.998 254c-144 0 -251.669 36 -323.002 108s-107 174.333 -107 307v348c0 132 35.667 233.833 107 305.5
s179 107.5 323 107.5c276.667 0 415 -118.667 415 -356v-100h-317v101c0 52 -7.66699 88.167 -23 108.5s-39.666 30.5 -72.999 30.5c-35.333 0 -60.5 -12.333 -75.5 -37s-22.5 -68 -22.5 -130v-413c0 -62 7.83301 -104.667 23.5 -128s40.5 -35 74.5 -35
c34.667 0 59.334 11 74.001 33s22 56 22 102v116h317v-107c0 -118.667 -35 -208.5 -105 -269.5s-173.333 -91.5 -310 -91.5z" />
    <glyph glyph-name="ordfeminine" unicode="&#xaa;" horiz-adv-x="974" 
d="M474 836c18 0 35.5 5.66699 52.5 17s30.833 26 41.5 44v251c-50 -24 -91.5 -55.5 -124.5 -94.5s-49.5 -78.167 -49.5 -117.5c0 -30.667 7.33301 -55 22 -73s34 -27 58 -27zM372 642c-74.667 0.666992 -133.999 24.498 -177.999 71.498s-66 103.167 -66 168.5
c0 31.333 4.33301 60.833 13 88.5s19.167 51.5 31.5 71.5s29.666 39.333 51.999 58s42.5 33.834 60.5 45.501s42.167 24 72.5 37s54.166 22.5 71.499 28.5l74 25l65 22v111c0 72 -21.667 108 -65 108c-28 0 -47.167 -12.167 -57.5 -36.5s-17.5 -64.833 -21.5 -121.5l-264 6
c0.666992 116.667 32.834 205.5 96.501 266.5s152.5 91.5 266.5 91.5c110.667 0 191.834 -30.667 243.501 -92s77.5 -146.666 77.5 -255.999v-677h-246l-13 136c-18 -44.667 -45.333 -81.167 -82 -109.5s-80.334 -42.5 -131.001 -42.5z" />
    <glyph glyph-name="guillemotleft" unicode="&#xab;" horiz-adv-x="986" 
d="M892 68l-384 479v116l384 480v-317l-192 -221l192 -221v-316zM454 68l-383 479v116l383 480v-317l-192 -221l192 -221v-316z" />
    <glyph glyph-name="logicalnot" unicode="&#xac;" horiz-adv-x="964" 
d="M725 444v298h-633v213h786v-511h-153z" />
    <glyph glyph-name="uni00AD" unicode="&#xad;" horiz-adv-x="748" 
d="M129 670v205h502v-205h-502z" />
    <glyph glyph-name="registered" unicode="&#xae;" horiz-adv-x="1824" 
d="M913 -28c-112 0 -214.167 16.668 -306.5 50.001s-169.5 77.666 -231.5 132.999s-114.167 120.166 -156.5 194.499s-73 151.5 -92 231.5s-28.5 162.333 -28.5 247c0 85.333 9.5 168 28.5 248s49.667 157.167 92 231.5s94.5 139.166 156.5 194.499
s139.167 99.5 231.5 132.5s194.5 49.5 306.5 49.5s214 -16.5 306 -49.5s168.833 -77.167 230.5 -132.5s113.667 -120.166 156 -194.499s73 -151.5 92 -231.5s28.5 -162.667 28.5 -248s-9.33301 -168 -28 -248s-49.167 -157.167 -91.5 -231.5s-94.333 -139.166 -156 -194.499
s-138.667 -99.5 -231 -132.5s-194.5 -49.5 -306.5 -49.5zM912 81.001c92.667 0 177.5 13.999 254.5 41.999s141.833 65.667 194.5 113s97.334 103 134.001 167s63.334 131.667 80.001 203s25 145 25 221c0 76.667 -8.33301 150.5 -25 221.5s-43.334 138.333 -80.001 202
s-81.334 119.167 -134.001 166.5s-117.5 84.833 -194.5 112.5s-161.833 41.5 -254.5 41.5c-93.333 0 -178.833 -13.833 -256.5 -41.5s-142.834 -65 -195.501 -112s-97.334 -102.5 -134.001 -166.5s-63.334 -131.5 -80.001 -202.5s-25 -144.833 -25 -221.5
c0 -76 8.33301 -149.5 25 -220.5s43.334 -138.667 80.001 -203s81.334 -120.166 134.001 -167.499s117.834 -85 195.501 -113s163.167 -42 256.5 -42zM828 884l41 0.000976562c62 0 105.333 13.167 130 39.5s37 68.166 37 125.499c0 100.667 -45.667 151 -137 151h-71v-316z
M573 313.001l0.000976562 1040h335c124 0 216.833 -22.5 278.5 -67.5s92.5 -119.5 92.5 -223.5c0 -66 -11.833 -119 -35.5 -159s-62.834 -73 -117.501 -99l183 -491h-266l-147 441h-68v-441h-255z" />
    <glyph glyph-name="macron" unicode="&#xaf;" horiz-adv-x="422" 
d="M-22 1505v153h488v-153h-488z" />
    <glyph glyph-name="degree" unicode="&#xb0;" horiz-adv-x="1066" 
d="M532 892c-121.333 0 -218 35.833 -290 107.5s-108 167.5 -108 287.5c0 119.333 36 214.5 108 285.5s168.667 106.5 290 106.5s218.333 -35.5 291 -106.5s109 -166.167 109 -285.5c0 -120 -36.167 -215.833 -108.5 -287.5s-169.5 -107.5 -291.5 -107.5zM532 1068
c61.333 0 109.333 20.165 144 60.498s52 92.833 52 157.5s-17.167 116.834 -51.5 156.501s-82.5 59.5 -144.5 59.5c-61.333 0 -109.166 -19.667 -143.499 -59s-51.5 -91.333 -51.5 -156c0 -65.333 17.167 -118.166 51.5 -158.499s82.166 -60.5 143.499 -60.5z" />
    <glyph glyph-name="plusminus" unicode="&#xb1;" horiz-adv-x="930" 
d="M129 0v197h673v-197h-673zM365 372v242h-236v192h236v242h201v-242h236v-192h-236v-242h-201z" />
    <glyph glyph-name="uni00B2" unicode="&#xb2;" horiz-adv-x="890" 
d="M151 620l0.00195312 174.002l287 445c6.66699 10.667 18.167 28 34.5 52s28.666 42.833 36.999 56.5s17.833 31 28.5 52s18.334 41.5 23.001 61.5s7 40.667 7 62c0 42 -8.33301 73.667 -25 95c-14.667 18.667 -34.667 28 -60 28c-4 0 -8 -0.333008 -12 -1
c-22.667 -2 -41.334 -17.167 -56.001 -45.5s-24.334 -58.333 -29.001 -90s-7 -63.834 -7 -96.501h-225v57c0 74 10.333 137.667 31 191s55.5 96.166 104.5 128.499s110.5 48.5 184.5 48.5c102 0 180.667 -27.833 236 -83.5s83 -133.5 83 -233.5
c0 -21.333 -1.33301 -41.833 -4 -61.5s-7.5 -39.667 -14.5 -60l-17.5 -50.5c-4.66699 -13.333 -13.5 -31 -26.5 -53l-27 -46c-5 -8.66699 -15.833 -25.5 -32.5 -50.5s-27 -40.833 -31 -47.5l-224 -348h345v-184h-610z" />
    <glyph glyph-name="uni00B3" unicode="&#xb3;" horiz-adv-x="889" 
d="M476 602c-122 0 -208.168 32.166 -258.501 96.499s-75.5 158.833 -75.5 283.5v59h239v-64c0 -60.667 7.5 -104.5 22.5 -131.5s38.833 -40.5 71.5 -40.5c33.333 0 57.333 12.333 72 37s22 62.667 22 114c0 61.333 -10 108.333 -30 141s-53.333 49 -100 49h-67v162h62
c48.667 0 83.334 16.833 104.001 50.5s31 81.834 31 144.501c0 96 -32.333 144 -97 144c-60.667 0 -91 -48 -91 -144v-91h-239v92c0 104.667 28.833 186.5 86.5 245.5s137.834 88.5 240.501 88.5c106.667 0 188.667 -27.667 246 -83s86 -137.333 86 -246
c0 -66 -14.833 -124 -44.5 -174s-63.834 -80 -102.501 -90c98 -38.667 147 -129.667 147 -273c0 -115.333 -26.667 -205.833 -80 -271.5s-135 -98.5 -245 -98.5z" />
    <glyph glyph-name="acute" unicode="&#xb4;" horiz-adv-x="623" 
d="M113 1247l123 411h316l-253 -411h-186z" />
    <glyph glyph-name="mu" unicode="&#xb5;" horiz-adv-x="984" 
d="M91 -377l-1 1561h309v-882c0 -32.667 5 -57 15 -73c9.33301 -15.333 27.333 -23 54 -23h3c28 0 63.333 14 106 42v936h309v-1184h-309v99c-50 -46 -100.333 -77.667 -151 -95c-10 -3.33301 -18.667 -6 -26 -8l1 -373h-310z" />
    <glyph glyph-name="paragraph" unicode="&#xb6;" horiz-adv-x="1053" 
d="M391 -196l-0.00195312 1211c-96.667 1.33301 -174.167 30 -232.5 86s-87.5 134 -87.5 234c0 58.667 10.167 109.5 30.5 152.5s48.833 76.5 85.5 100.5s77.834 41.667 123.501 53s96.834 17 153.501 17h453v-1854h-179v1686h-159v-1686h-188z" />
    <glyph glyph-name="periodcentered" unicode="&#xb7;" horiz-adv-x="431" 
d="M69 625v291h295v-291h-295z" />
    <glyph glyph-name="cedilla" unicode="&#xb8;" horiz-adv-x="558" 
d="M96 -526l0.000976562 138.001c21.333 -6 45.333 -10.333 72 -13c16.667 -1.33301 33 -2 49 -2c10 0.666992 20 1 30 1c26 1.33301 47.833 7.16602 65.5 17.499s26.5 24.5 26.5 42.5c0 20 -5.5 37.333 -16.5 52s-26.5 26.5 -46.5 35.5s-39.5 15.833 -58.5 20.5
s-40.5 8.66699 -64.5 12v222h123v-131c74 -4 137.167 -24 189.5 -60s79.166 -82.333 80.499 -139v-7c0 -46.667 -13 -86.667 -39 -120c-27.333 -34.667 -63 -59 -107 -73c-42 -13.333 -88.333 -20 -139 -20h-7c-53.333 0.666992 -106 8.66699 -158 24z" />
    <glyph glyph-name="uni00B9" unicode="&#xb9;" horiz-adv-x="878" 
d="M378 618l-0.998047 938.999l-206 -46v172c1.33301 0.666992 7.5 2.83398 18.5 6.50098l24.5 8c5.33301 1.66699 14.166 4.66699 26.499 9s22.333 8 30 11s17.667 7.16699 30 12.5s22.666 10.166 30.999 14.499l28.5 15c10.667 5.66699 19.834 11.334 27.501 17.001
s15.167 11.667 22.5 18s13.666 12.833 18.999 19.5h179v-1196h-230z" />
    <glyph glyph-name="ordmasculine" unicode="&#xba;" horiz-adv-x="974" 
d="M484 837c36 0 60.333 13.167 73 39.5s19 65.5 19 117.5v336c0 52 -6.33301 91.167 -19 117.5s-37 39.5 -73 39.5c-34.667 0 -58.5 -13.5 -71.5 -40.5s-19.5 -65.833 -19.5 -116.5v-336c0 -50.667 6.5 -89.5 19.5 -116.5s36.833 -40.5 71.5 -40.5zM486 641
c-111.333 0 -196.833 29.332 -256.5 87.999s-89.5 143.667 -89.5 255v357c0 110.667 29.833 195.334 89.5 254.001s145.167 88 256.5 88c108.667 0 193.834 -30 255.501 -90s92.5 -144 92.5 -252v-357c0 -108.667 -30.833 -193 -92.5 -253s-146.834 -90 -255.501 -90z" />
    <glyph glyph-name="guillemotright" unicode="&#xbb;" horiz-adv-x="1014" 
d="M537 68v316l201 222l-201 220v317l393 -480v-116zM99 68v316l202 222l-202 220v317l394 -480v-116z" />
    <glyph glyph-name="onequarter" unicode="&#xbc;" horiz-adv-x="1472" 
d="M934 375h151v269zM265 0l707 1658h175l-708 -1658h-174zM229 828v557l-120 -42v146c92.667 48 165 104.333 217 169h96v-830h-193zM1085 1v231h-279v137l296 497h154v-491h110v-143h-110v-231h-171z" />
    <glyph glyph-name="onehalf" unicode="&#xbd;" horiz-adv-x="1472" 
d="M233 0l707 1658h176l-708 -1658h-175zM190 828v557l-121 -42v146c94 48 166.333 104.333 217 169h97v-830h-193zM891 1l0.000976562 140.998l187 264c2.66699 4 9.66699 13.667 21 29s18.833 25.833 22.5 31.5l19 29c9 13.667 15.333 24.834 19 33.501l13 31.5
c5 12.333 8.5 24.166 10.5 35.499s3 22.666 3 33.999c0 61.333 -21.333 92 -64 92c-26.667 0 -45.334 -14 -56.001 -42c-7.33301 -19.333 -11 -41.666 -11 -66.999c0 -11.333 0.666992 -23.333 2 -36h-177c-2.66699 32.667 -4 51 -4 55
c1.33301 70.667 23 126.834 65 168.501s101 62.5 177 62.5c78 0 138.833 -20.167 182.5 -60.5s65.5 -97.166 65.5 -170.499c0 -28 -3.66699 -55.5 -11 -82.5s-19 -55 -35 -84s-31 -53.833 -45 -74.5s-33.667 -48 -59 -82c-17.333 -19.333 -60 -75 -128 -167h266v-141h-463z
" />
    <glyph glyph-name="threequarters" unicode="&#xbe;" horiz-adv-x="1472" 
d="M966 375h151v269zM298 0l707 1658h175l-708 -1658h-174zM1117 1v231h-279v137l296 497h154v-491h110v-143h-110v-231h-171zM325 879c-72 0 -127.833 20.667 -167.5 62s-59.5 97.666 -59.5 168.999h157c0 -65.333 21.667 -98 65 -98c21.333 0 36 8.5 44 25.5
s12 40.833 12 71.5c0 40 -8.83301 67 -26.5 81s-50.167 21 -97.5 21v120c46.667 0 79.167 7.16699 97.5 21.5s27.5 40.833 27.5 79.5c0 33.333 -4 58.666 -12 75.999s-23.333 26 -46 26c-25.333 0 -42.333 -8.5 -51 -25.5s-13 -41.167 -13 -72.5h-157
c0 76.667 20 134.334 60 173.001s96.667 58 170 58c70.667 0 123.5 -19.167 158.5 -57.5s52.5 -93.5 52.5 -165.5c0 -48 -13.333 -86.667 -40 -116s-60 -45.666 -100 -48.999c95.333 -13.333 143 -69.333 143 -168c0 -74 -18.5 -131.167 -55.5 -171.5
s-90.833 -60.5 -161.5 -60.5z" />
    <glyph glyph-name="questiondown" unicode="&#xbf;" horiz-adv-x="1067" 
d="M464 1014v297h304v-297h-304zM561 -373c-142.667 0 -252.5 36.998 -329.5 110.998s-115.5 177.667 -115.5 311c0 119.333 34 233.666 102 342.999s154.667 205.666 260 288.999v199h280v-262c-224 -191.333 -336 -377.666 -336 -558.999
c0 -7.33301 0.333008 -14.666 1 -21.999c1.33301 -46.667 14.333 -82.167 39 -106.5s56 -36.5 94 -36.5c37.333 0 66 12.333 86 37c17.333 21.333 26.333 48.333 27 81c0 5.33301 -0.333008 11 -1 17c0 24.667 -6.33301 57.334 -19 98.001l282 61
c17.333 -68 26 -117.333 26 -148c2 -18.667 3 -36.667 3 -54c0 -97.333 -28.667 -178.666 -86 -243.999c-66.667 -76 -171 -114.333 -313 -115z" />
    <glyph glyph-name="Agrave" unicode="&#xc0;" horiz-adv-x="1099" 
d="M456 1801l-254 411h317l123 -411h-186zM453 576h197l-99 660zM41 0l324 1658h370l323 -1658h-313l-61 367h-263l-61 -367h-319z" />
    <glyph glyph-name="Aacute" unicode="&#xc1;" horiz-adv-x="1099" 
d="M457 1801l124 411h315l-253 -411h-186zM453 576h197l-99 660zM41 0l324 1658h370l323 -1658h-313l-61 367h-263l-61 -367h-319z" />
    <glyph glyph-name="Acircumflex" unicode="&#xc2;" horiz-adv-x="1099" 
d="M226 1801l189 382h265l193 -382h-228l-96 241l-96 -241h-227zM453 576h197l-99 660zM41 0l324 1658h370l323 -1658h-313l-61 367h-263l-61 -367h-319z" />
    <glyph glyph-name="Atilde" unicode="&#xc3;" horiz-adv-x="1099" 
d="M726 1801l-7.00098 0.000976562c-27.333 0 -58.666 7.33301 -93.999 22c-38.667 16 -75.5 32.667 -110.5 50s-61.833 26 -80.5 26c-36 0 -54 -28 -54 -84h-154c0 86.667 12.5 153.334 37.5 200.001s70.167 72 135.5 76h13c30 0 61.667 -6 95 -18
c37.333 -14.667 71.333 -30.334 102 -47.001s52.334 -25.667 65.001 -27c19.333 -2.66699 33.166 3 41.499 17s12.5 34.333 12.5 61h144v-7c0 -174.667 -48.667 -264.334 -146 -269.001zM452.999 576.001h197l-99 660zM40.999 0.000976562l324 1658h370l323 -1658h-313
l-61 367h-263l-61 -367h-319z" />
    <glyph glyph-name="Adieresis" unicode="&#xc4;" horiz-adv-x="1099" 
d="M629 1801v286h261v-286h-261zM209 1801v286h261v-286h-261zM453 576h197l-99 660zM41 0l324 1658h370l323 -1658h-313l-61 367h-263l-61 -367h-319z" />
    <glyph glyph-name="Aring" unicode="&#xc5;" horiz-adv-x="1099" 
d="M548 1783c33.333 0 59.333 10.5 78 31.5s28 47.5 28 79.5s-9.33301 58.5 -28 79.5s-44.667 31.5 -78 31.5s-59.333 -10.5 -78 -31.5s-28 -47.5 -28 -79.5s9.33301 -58.5 28 -79.5s44.667 -31.5 78 -31.5zM548 1664c-69.333 0 -126.333 20.5 -171 61.5
s-67 97.167 -67 168.5s22.333 127.333 67 168s101.667 61 171 61c70 0 127.667 -20.333 173 -61s68 -96.667 68 -168s-22.667 -127.5 -68 -168.5s-103 -61.5 -173 -61.5zM453 576h197l-99 660zM41 0l324 1658h370l323 -1658h-313l-61 367h-263l-61 -367h-319z" />
    <glyph glyph-name="AE" unicode="&#xc6;" horiz-adv-x="1409" 
d="M505 581h199v535zM-53 0l719 1641h700v-232h-366v-434h259v-236h-259v-509h366v-230h-662v364h-273l-151 -364h-333z" />
    <glyph glyph-name="Ccedilla" unicode="&#xc7;" horiz-adv-x="1129" 
d="M436 -526l0.000976562 138.001c21.333 -6 45.333 -10.333 72 -13c16.667 -1.33301 33 -2 49 -2c10 0.666992 20 1 30 1c26 1.33301 47.833 7.16602 65.5 17.499s26.5 24.5 26.5 42.5c0 20 -5.5 37.333 -16.5 52s-26.5 26.5 -46.5 35.5s-39.5 15.833 -58.5 20.5
s-40.5 8.66699 -64.5 12v222h123v-131c74 -4 137.167 -24 189.5 -60s79.166 -82.333 80.499 -139v-7c0 -46.667 -13 -86.667 -39 -120c-27.333 -34.667 -63 -59 -107 -73c-42 -13.333 -88.333 -20 -139 -20h-7c-53.333 0.666992 -106 8.66699 -158 24zM584.001 -21.999
c-90.667 0 -168.001 13.1641 -232.001 39.4971s-114.333 64.833 -151 115.5s-63 108.667 -79 174s-24 141.333 -24 228v585c0 90 8 168 24 234s42.333 124 79 174s86.834 87.667 150.501 113s141.167 38 232.5 38c86.667 0 160.5 -11.167 221.5 -33.5
s109 -55.166 144 -98.499s60.333 -93.166 76 -149.499s23.5 -122.166 23.5 -197.499v-144h-329v156v39c0 7.33301 -0.333008 19.333 -1 36s-1.83398 28.5 -3.50098 35.5l-7 30.5c-3 13.333 -6.66699 23 -11 29l-16.5 22c-6.66699 8.66699 -14.5 14.834 -23.5 18.501
s-19.667 7 -32 10s-25.833 4.5 -40.5 4.5c-26 0 -48.167 -4.5 -66.5 -13.5s-32.5 -20.167 -42.5 -33.5s-17.667 -31.5 -23 -54.5s-8.66602 -44.333 -9.99902 -64s-2 -44.5 -2 -74.5v-741c0 -80.667 10.167 -140 30.5 -178s58.166 -57 113.499 -57c21.333 0 40 2.66699 56 8
s28.833 14.166 38.5 26.499s17.334 24.333 23.001 36s9.66699 28.167 12 49.5s3.83301 39.333 4.5 54s1 35 1 61v162h329v-140c0 -76.667 -7.5 -143.834 -22.5 -201.501s-39.5 -109.667 -73.5 -156s-82 -81.666 -144 -105.999s-137 -36.5 -225 -36.5z" />
    <glyph glyph-name="Egrave" unicode="&#xc8;" 
d="M393 1801l-254 411h317l123 -411h-186zM123 0v1658h722v-234h-385v-439h299v-236h-299v-519h389v-230h-726z" />
    <glyph glyph-name="Eacute" unicode="&#xc9;" 
d="M393 1801l124 411h315l-253 -411h-186zM123 0v1658h722v-234h-385v-439h299v-236h-299v-519h389v-230h-726z" />
    <glyph glyph-name="Ecircumflex" unicode="&#xca;" 
d="M163 1801l189 382h265l193 -382h-228l-96 241l-96 -241h-227zM123 0v1658h722v-234h-385v-439h299v-236h-299v-519h389v-230h-726z" />
    <glyph glyph-name="Edieresis" unicode="&#xcb;" 
d="M565 1801v286h261v-286h-261zM145 1801v286h261v-286h-261zM123 0v1658h722v-234h-385v-439h299v-236h-299v-519h389v-230h-726z" />
    <glyph glyph-name="Igrave" unicode="&#xcc;" horiz-adv-x="591" 
d="M204 1801l-254 411h317l123 -411h-186zM129 0v1658h335v-1658h-335z" />
    <glyph glyph-name="Iacute" unicode="&#xcd;" horiz-adv-x="591" 
d="M203 1801l124 411h315l-253 -411h-186zM129 0v1658h335v-1658h-335z" />
    <glyph glyph-name="Icircumflex" unicode="&#xce;" horiz-adv-x="591" 
d="M-27 1801l189 382h265l193 -382h-228l-96 241l-96 -241h-227zM129 0v1658h335v-1658h-335z" />
    <glyph glyph-name="Idieresis" unicode="&#xcf;" horiz-adv-x="591" 
d="M376 1801v286h261v-286h-261zM-44 1801v286h261v-286h-261zM129 0v1658h335v-1658h-335z" />
    <glyph glyph-name="Eth" unicode="&#xd0;" horiz-adv-x="1122" 
d="M111 0l-0.00292969 765.001h-91v173h91v720h403c104.667 0 191.834 -9.66699 261.501 -29s125.334 -51 167.001 -95s71.167 -97.5 88.5 -160.5s26 -141.833 26 -236.5v-598c0 -96 -8.66699 -176.667 -26 -242s-46.666 -120.833 -87.999 -166.5
s-96.333 -78.834 -165 -99.501s-154 -31 -256 -31h-411zM447.997 235.001l70.0029 -0.00195312c23.333 0 44.166 1.33301 62.499 4s34.166 7.33398 47.499 14.001s24.666 13.5 33.999 20.5s17.166 17.167 23.499 30.5s11.333 25.833 15 37.5s6.33398 27.834 8.00098 48.501
s2.66699 39 3 55s0.5 37.667 0.5 65v665c0 39.333 -1 70.5 -3 93.5s-6.5 45.5 -13.5 67.5s-17.667 38.333 -32 49s-33.5 19.167 -57.5 25.5s-54 9.5 -90 9.5h-68v-482h91v-173h-91v-530z" />
    <glyph glyph-name="Ntilde" unicode="&#xd1;" horiz-adv-x="1131" 
d="M742 1801l-7.00098 0.000976562c-27.333 0 -58.666 7.33301 -93.999 22c-38.667 16 -75.5 32.667 -110.5 50s-61.833 26 -80.5 26c-36 0 -54 -28 -54 -84h-154c0 86.667 12.5 153.334 37.5 200.001s70.167 72 135.5 76h13c30 0 61.667 -6 95 -18
c37.333 -14.667 71.333 -30.334 102 -47.001s52.334 -25.667 65.001 -27c19.333 -2.66699 33.166 3 41.499 17s12.5 34.333 12.5 61h144v-7c0 -174.667 -48.667 -264.334 -146 -269.001zM122.999 0.000976562v1658h235l370 -861v861h280v-1658h-225l-372 916v-916h-288z" />
    <glyph glyph-name="Ograve" unicode="&#xd2;" horiz-adv-x="1177" 
d="M496 1801l-254 411h317l123 -411h-186zM587 -22c-90 0 -166.667 12.1689 -230 36.502s-113.833 60.666 -151.5 108.999s-65 105.166 -82 170.499s-25.5 142.333 -25.5 231v612c0 88.667 8.5 165.5 25.5 230.5s44.333 121.167 82 168.5s88.167 83 151.5 107s140 36 230 36
c175.333 0 301.166 -45.667 377.499 -137s114.5 -226.333 114.5 -405v-612c0 -178.667 -38.167 -314.5 -114.5 -407.5s-202.166 -139.5 -377.499 -139.5zM587 221.002c25.333 0 47.166 4.16699 65.499 12.5s32.666 18.833 42.999 31.5s18.5 29.334 24.5 50.001
s9.83301 40.5 11.5 59.5s2.5 41.833 2.5 68.5v776c0 26.667 -0.833008 49.5 -2.5 68.5s-5.5 38.5 -11.5 58.5s-14.167 36.167 -24.5 48.5s-24.666 22.5 -42.999 30.5s-40.166 12 -65.499 12s-47 -4 -65 -12s-32 -18.167 -42 -30.5s-17.833 -28.666 -23.5 -48.999
s-9.33398 -39.833 -11.001 -58.5s-2.5 -41.334 -2.5 -68.001v-776c0 -26.667 0.833008 -49.5 2.5 -68.5s5.33398 -38.833 11.001 -59.5s13.5 -37.334 23.5 -50.001s24 -23.167 42 -31.5s39.667 -12.5 65 -12.5z" />
    <glyph glyph-name="Oacute" unicode="&#xd3;" horiz-adv-x="1177" 
d="M495 1801l124 411h315l-253 -411h-186zM587 -22c-90 0 -166.667 12.1689 -230 36.502s-113.833 60.666 -151.5 108.999s-65 105.166 -82 170.499s-25.5 142.333 -25.5 231v612c0 88.667 8.5 165.5 25.5 230.5s44.333 121.167 82 168.5s88.167 83 151.5 107s140 36 230 36
c175.333 0 301.166 -45.667 377.499 -137s114.5 -226.333 114.5 -405v-612c0 -178.667 -38.167 -314.5 -114.5 -407.5s-202.166 -139.5 -377.499 -139.5zM587 221.002c25.333 0 47.166 4.16699 65.499 12.5s32.666 18.833 42.999 31.5s18.5 29.334 24.5 50.001
s9.83301 40.5 11.5 59.5s2.5 41.833 2.5 68.5v776c0 26.667 -0.833008 49.5 -2.5 68.5s-5.5 38.5 -11.5 58.5s-14.167 36.167 -24.5 48.5s-24.666 22.5 -42.999 30.5s-40.166 12 -65.499 12s-47 -4 -65 -12s-32 -18.167 -42 -30.5s-17.833 -28.666 -23.5 -48.999
s-9.33398 -39.833 -11.001 -58.5s-2.5 -41.334 -2.5 -68.001v-776c0 -26.667 0.833008 -49.5 2.5 -68.5s5.33398 -38.833 11.001 -59.5s13.5 -37.334 23.5 -50.001s24 -23.167 42 -31.5s39.667 -12.5 65 -12.5z" />
    <glyph glyph-name="Ocircumflex" unicode="&#xd4;" horiz-adv-x="1177" 
d="M265 1801l189 382h265l193 -382h-228l-96 241l-96 -241h-227zM587 -22c-90 0 -166.667 12.1689 -230 36.502s-113.833 60.666 -151.5 108.999s-65 105.166 -82 170.499s-25.5 142.333 -25.5 231v612c0 88.667 8.5 165.5 25.5 230.5s44.333 121.167 82 168.5
s88.167 83 151.5 107s140 36 230 36c175.333 0 301.166 -45.667 377.499 -137s114.5 -226.333 114.5 -405v-612c0 -178.667 -38.167 -314.5 -114.5 -407.5s-202.166 -139.5 -377.499 -139.5zM587 221.002c25.333 0 47.166 4.16699 65.499 12.5s32.666 18.833 42.999 31.5
s18.5 29.334 24.5 50.001s9.83301 40.5 11.5 59.5s2.5 41.833 2.5 68.5v776c0 26.667 -0.833008 49.5 -2.5 68.5s-5.5 38.5 -11.5 58.5s-14.167 36.167 -24.5 48.5s-24.666 22.5 -42.999 30.5s-40.166 12 -65.499 12s-47 -4 -65 -12s-32 -18.167 -42 -30.5
s-17.833 -28.666 -23.5 -48.999s-9.33398 -39.833 -11.001 -58.5s-2.5 -41.334 -2.5 -68.001v-776c0 -26.667 0.833008 -49.5 2.5 -68.5s5.33398 -38.833 11.001 -59.5s13.5 -37.334 23.5 -50.001s24 -23.167 42 -31.5s39.667 -12.5 65 -12.5z" />
    <glyph glyph-name="Otilde" unicode="&#xd5;" horiz-adv-x="1177" 
d="M765 1801l-7.00098 0.000976562c-27.333 0 -58.666 7.33301 -93.999 22c-38.667 16 -75.5 32.667 -110.5 50s-61.833 26 -80.5 26c-36 0 -54 -28 -54 -84h-154c0 86.667 12.5 153.334 37.5 200.001s70.167 72 135.5 76h13c30 0 61.667 -6 95 -18
c37.333 -14.667 71.333 -30.334 102 -47.001s52.334 -25.667 65.001 -27c19.333 -2.66699 33.166 3 41.499 17s12.5 34.333 12.5 61h144v-7c0 -174.667 -48.667 -264.334 -146 -269.001zM586.999 -21.999c-90 0 -166.667 12.1689 -230 36.502
s-113.833 60.666 -151.5 108.999s-65 105.166 -82 170.499s-25.5 142.333 -25.5 231v612c0 88.667 8.5 165.5 25.5 230.5s44.333 121.167 82 168.5s88.167 83 151.5 107s140 36 230 36c175.333 0 301.166 -45.667 377.499 -137s114.5 -226.333 114.5 -405v-612
c0 -178.667 -38.167 -314.5 -114.5 -407.5s-202.166 -139.5 -377.499 -139.5zM586.999 221.003c25.333 0 47.166 4.16699 65.499 12.5s32.666 18.833 42.999 31.5s18.5 29.334 24.5 50.001s9.83301 40.5 11.5 59.5s2.5 41.833 2.5 68.5v776
c0 26.667 -0.833008 49.5 -2.5 68.5s-5.5 38.5 -11.5 58.5s-14.167 36.167 -24.5 48.5s-24.666 22.5 -42.999 30.5s-40.166 12 -65.499 12s-47 -4 -65 -12s-32 -18.167 -42 -30.5s-17.833 -28.666 -23.5 -48.999s-9.33398 -39.833 -11.001 -58.5s-2.5 -41.334 -2.5 -68.001
v-776c0 -26.667 0.833008 -49.5 2.5 -68.5s5.33398 -38.833 11.001 -59.5s13.5 -37.334 23.5 -50.001s24 -23.167 42 -31.5s39.667 -12.5 65 -12.5z" />
    <glyph glyph-name="Odieresis" unicode="&#xd6;" horiz-adv-x="1177" 
d="M668 1801v286h261v-286h-261zM248 1801v286h261v-286h-261zM587 -22c-90 0 -166.667 12.1689 -230 36.502s-113.833 60.666 -151.5 108.999s-65 105.166 -82 170.499s-25.5 142.333 -25.5 231v612c0 88.667 8.5 165.5 25.5 230.5s44.333 121.167 82 168.5
s88.167 83 151.5 107s140 36 230 36c175.333 0 301.166 -45.667 377.499 -137s114.5 -226.333 114.5 -405v-612c0 -178.667 -38.167 -314.5 -114.5 -407.5s-202.166 -139.5 -377.499 -139.5zM587 221.002c25.333 0 47.166 4.16699 65.499 12.5s32.666 18.833 42.999 31.5
s18.5 29.334 24.5 50.001s9.83301 40.5 11.5 59.5s2.5 41.833 2.5 68.5v776c0 26.667 -0.833008 49.5 -2.5 68.5s-5.5 38.5 -11.5 58.5s-14.167 36.167 -24.5 48.5s-24.666 22.5 -42.999 30.5s-40.166 12 -65.499 12s-47 -4 -65 -12s-32 -18.167 -42 -30.5
s-17.833 -28.666 -23.5 -48.999s-9.33398 -39.833 -11.001 -58.5s-2.5 -41.334 -2.5 -68.001v-776c0 -26.667 0.833008 -49.5 2.5 -68.5s5.33398 -38.833 11.001 -59.5s13.5 -37.334 23.5 -50.001s24 -23.167 42 -31.5s39.667 -12.5 65 -12.5z" />
    <glyph glyph-name="multiply" unicode="&#xd7;" horiz-adv-x="944" 
d="M253 480l-144 143l220 220l-220 219l144 144l219 -219l220 219l143 -143l-220 -220l220 -220l-142 -143l-221 219z" />
    <glyph glyph-name="Oslash" unicode="&#xd8;" horiz-adv-x="1155" 
d="M443 592l268.002 776.998c-6.66699 14.667 -15.334 26.834 -26.001 36.501s-24.167 17.334 -40.5 23.001s-35.5 8.5 -57.5 8.5c-25.333 0 -47 -4 -65 -12s-32 -18.167 -42 -30.5s-17.833 -28.666 -23.5 -48.999s-9.33398 -39.833 -11.001 -58.5
s-2.5 -41.334 -2.5 -68.001v-627zM587.002 220.998c25.333 0 47.1689 4.16602 65.502 12.499s32.666 18.833 42.999 31.5s18.5 29.334 24.5 50.001s9.83301 40.5 11.5 59.5s2.5 41.833 2.5 68.5v725l-284 -825c4 -25.333 10.833 -46.5 20.5 -63.5s24.167 -31 43.5 -42
s43.666 -16.5 72.999 -16.5zM272.005 -173.003l-82.001 31l72 210c-109.333 84 -164 236.333 -164 457v612c0 88.667 8.5 165.5 25.5 230.5s44.333 121.167 82 168.5s88.167 83 151.5 107s140 36 230 36c84.667 0 158 -11 220 -33l55 161l82 -29l-58 -169
c45.333 -28.667 82.5 -66 111.5 -112s49.833 -98.5 62.5 -157.5s19 -126.5 19 -202.5v-612c0 -178.667 -38.167 -314.5 -114.5 -407.5s-202.166 -139.5 -377.499 -139.5c-98 0 -180.667 14.667 -248 44z" />
    <glyph glyph-name="Ugrave" unicode="&#xd9;" horiz-adv-x="1180" 
d="M497 1801l-254 411h317l123 -411h-186zM590 -22c-92.667 0 -170.5 12.165 -233.5 36.498s-112.333 61.333 -148 111s-60.834 107.334 -75.501 173.001s-22 145.167 -22 238.5v1121h331v-1164c0 -31.333 0.833008 -58.166 2.5 -80.499s5.33398 -46.166 11.001 -71.499
s13.667 -45.833 24 -61.5s24.833 -28.667 43.5 -39s41 -15.5 67 -15.5s48.5 5.16699 67.5 15.5s33.5 23.333 43.5 39s18 36.167 24 61.5s9.66699 49 11 71s2 49 2 81v1164h331v-1121c0 -93.333 -7.33301 -172.833 -22 -238.5s-39.667 -123.334 -75 -173.001
s-84.5 -86.667 -147.5 -111s-141.167 -36.5 -234.5 -36.5z" />
    <glyph glyph-name="Uacute" unicode="&#xda;" horiz-adv-x="1180" 
d="M497 1801l124 411h315l-253 -411h-186zM590 -22c-92.667 0 -170.5 12.165 -233.5 36.498s-112.333 61.333 -148 111s-60.834 107.334 -75.501 173.001s-22 145.167 -22 238.5v1121h331v-1164c0 -31.333 0.833008 -58.166 2.5 -80.499s5.33398 -46.166 11.001 -71.499
s13.667 -45.833 24 -61.5s24.833 -28.667 43.5 -39s41 -15.5 67 -15.5s48.5 5.16699 67.5 15.5s33.5 23.333 43.5 39s18 36.167 24 61.5s9.66699 49 11 71s2 49 2 81v1164h331v-1121c0 -93.333 -7.33301 -172.833 -22 -238.5s-39.667 -123.334 -75 -173.001
s-84.5 -86.667 -147.5 -111s-141.167 -36.5 -234.5 -36.5z" />
    <glyph glyph-name="Ucircumflex" unicode="&#xdb;" horiz-adv-x="1180" 
d="M267 1801l189 382h265l193 -382h-228l-96 241l-96 -241h-227zM590 -22c-92.667 0 -170.5 12.165 -233.5 36.498s-112.333 61.333 -148 111s-60.834 107.334 -75.501 173.001s-22 145.167 -22 238.5v1121h331v-1164c0 -31.333 0.833008 -58.166 2.5 -80.499
s5.33398 -46.166 11.001 -71.499s13.667 -45.833 24 -61.5s24.833 -28.667 43.5 -39s41 -15.5 67 -15.5s48.5 5.16699 67.5 15.5s33.5 23.333 43.5 39s18 36.167 24 61.5s9.66699 49 11 71s2 49 2 81v1164h331v-1121c0 -93.333 -7.33301 -172.833 -22 -238.5
s-39.667 -123.334 -75 -173.001s-84.5 -86.667 -147.5 -111s-141.167 -36.5 -234.5 -36.5z" />
    <glyph glyph-name="Udieresis" unicode="&#xdc;" horiz-adv-x="1180" 
d="M669 1801v286h261v-286h-261zM249 1801v286h261v-286h-261zM590 -22c-92.667 0 -170.5 12.165 -233.5 36.498s-112.333 61.333 -148 111s-60.834 107.334 -75.501 173.001s-22 145.167 -22 238.5v1121h331v-1164c0 -31.333 0.833008 -58.166 2.5 -80.499
s5.33398 -46.166 11.001 -71.499s13.667 -45.833 24 -61.5s24.833 -28.667 43.5 -39s41 -15.5 67 -15.5s48.5 5.16699 67.5 15.5s33.5 23.333 43.5 39s18 36.167 24 61.5s9.66699 49 11 71s2 49 2 81v1164h331v-1121c0 -93.333 -7.33301 -172.833 -22 -238.5
s-39.667 -123.334 -75 -173.001s-84.5 -86.667 -147.5 -111s-141.167 -36.5 -234.5 -36.5z" />
    <glyph glyph-name="Yacute" unicode="&#xdd;" horiz-adv-x="1007" 
d="M411 1801l124 411h315l-253 -411h-186zM343 0v657l-325 1001h316l179 -586l167 586h309l-323 -1001v-657h-323z" />
    <glyph glyph-name="Thorn" unicode="&#xde;" horiz-adv-x="1117" 
d="M448 722h115.001c77.333 0 132.166 17.333 164.499 52s48.5 96 48.5 184c0 82 -14.833 140.833 -44.5 176.5s-80.5 53.5 -152.5 53.5h-131v-466zM111.001 0l0.000976562 1658h337v-220h176c157.333 0 274 -37.833 350 -113.5s114 -193.834 114 -354.501
c0 -94 -9.83301 -172.667 -29.5 -236s-50.334 -113.833 -92.001 -151.5s-92 -64.667 -151 -81s-131.167 -24.833 -216.5 -25.5h-151v-476h-337z" />
    <glyph glyph-name="germandbls" unicode="&#xdf;" horiz-adv-x="1100" 
d="M510 -27l-0.000976562 239.998c78 0 134 21.667 168 65c30 38 45 98.667 45 182c0 11.333 -0.333008 23 -1 35c-2.66699 68.667 -22.167 124.334 -58.5 167.001s-83.5 64 -141.5 64l-2 242c52.667 0 92 23.5 118 70.5s39 111.833 39 194.5c0 149.333 -47 224 -141 224
c-32.667 0 -58.667 -10 -78 -30c-19.333 -20.667 -32.333 -46.334 -39 -77.001c-6 -28 -9 -62.333 -9 -103v-12v-1235h-310v1233c0 48 4.66699 93.333 14 136s24.333 83.167 45 121.5s46.334 71.333 77.001 99s69.167 49.667 115.5 66s97.833 24.5 154.5 24.5
c149.333 0 260.333 -38 333 -114s109 -185.667 109 -329c0 -86 -18.5 -158.833 -55.5 -218.5s-95.5 -107.167 -175.5 -142.5c98 -27.333 174.667 -77.666 230 -150.999s83 -160 83 -260c0 -169.333 -44 -293.666 -132 -372.999s-217.333 -119 -388 -119z" />
    <glyph glyph-name="agrave" unicode="&#xe0;" horiz-adv-x="954" 
d="M384 1325l-254 411h317l123 -411h-186zM457 204c18 0 36.499 6.66699 55.499 20s34.167 28 45.5 44v324c-55.333 -28.667 -101.5 -66.167 -138.5 -112.5s-55.5 -94.5 -55.5 -144.5c0 -40 8.33301 -71.833 25 -95.5s39.334 -35.5 68.001 -35.5zM341.999 -20
c-53.333 0.666992 -100.833 15.3311 -142.5 43.998s-72.667 64.334 -93 107.001s-30.5 87.667 -30.5 135c0 30.667 3 60 9 88s13.333 53 22 75s21 43.167 37 63.5s31 38 45 53s32.5 30.167 55.5 45.5s42.833 27.833 59.5 37.5s38.334 20.5 65.001 32.5
s47.834 21.167 63.501 27.5l65 25.5l60.5 23v109c0 42.667 -5.5 74.5 -16.5 95.5s-32.167 31.5 -63.5 31.5c-52.667 0 -80.334 -37 -83.001 -111l-6 -81l-293 12c0 13.333 1 27 3 41c8.66699 126.667 47 219.834 115 279.501s165 89.5 291 89.5
c116.667 0 204.5 -32 263.5 -96s88.5 -151.667 88.5 -263v-547c0 -90.667 7.33301 -189.667 22 -297h-277c-16.667 87.333 -26.334 144 -29.001 170c-16 -54 -43.5 -99.167 -82.5 -135.5s-88.5 -54.5 -148.5 -54.5z" />
    <glyph glyph-name="aacute" unicode="&#xe1;" horiz-adv-x="954" 
d="M385 1325l124 411h315l-253 -411h-186zM457 204c18 0 36.499 6.66699 55.499 20s34.167 28 45.5 44v324c-55.333 -28.667 -101.5 -66.167 -138.5 -112.5s-55.5 -94.5 -55.5 -144.5c0 -40 8.33301 -71.833 25 -95.5s39.334 -35.5 68.001 -35.5zM341.999 -20
c-53.333 0.666992 -100.833 15.3311 -142.5 43.998s-72.667 64.334 -93 107.001s-30.5 87.667 -30.5 135c0 30.667 3 60 9 88s13.333 53 22 75s21 43.167 37 63.5s31 38 45 53s32.5 30.167 55.5 45.5s42.833 27.833 59.5 37.5s38.334 20.5 65.001 32.5
s47.834 21.167 63.501 27.5l65 25.5l60.5 23v109c0 42.667 -5.5 74.5 -16.5 95.5s-32.167 31.5 -63.5 31.5c-52.667 0 -80.334 -37 -83.001 -111l-6 -81l-293 12c0 13.333 1 27 3 41c8.66699 126.667 47 219.834 115 279.501s165 89.5 291 89.5
c116.667 0 204.5 -32 263.5 -96s88.5 -151.667 88.5 -263v-547c0 -90.667 7.33301 -189.667 22 -297h-277c-16.667 87.333 -26.334 144 -29.001 170c-16 -54 -43.5 -99.167 -82.5 -135.5s-88.5 -54.5 -148.5 -54.5z" />
    <glyph glyph-name="acircumflex" unicode="&#xe2;" horiz-adv-x="954" 
d="M154 1325l189 382h265l193 -382h-228l-96 241l-96 -241h-227zM457 204c18 0 36.499 6.66699 55.499 20s34.167 28 45.5 44v324c-55.333 -28.667 -101.5 -66.167 -138.5 -112.5s-55.5 -94.5 -55.5 -144.5c0 -40 8.33301 -71.833 25 -95.5s39.334 -35.5 68.001 -35.5z
M341.999 -20c-53.333 0.666992 -100.833 15.3311 -142.5 43.998s-72.667 64.334 -93 107.001s-30.5 87.667 -30.5 135c0 30.667 3 60 9 88s13.333 53 22 75s21 43.167 37 63.5s31 38 45 53s32.5 30.167 55.5 45.5s42.833 27.833 59.5 37.5s38.334 20.5 65.001 32.5
s47.834 21.167 63.501 27.5l65 25.5l60.5 23v109c0 42.667 -5.5 74.5 -16.5 95.5s-32.167 31.5 -63.5 31.5c-52.667 0 -80.334 -37 -83.001 -111l-6 -81l-293 12c0 13.333 1 27 3 41c8.66699 126.667 47 219.834 115 279.501s165 89.5 291 89.5
c116.667 0 204.5 -32 263.5 -96s88.5 -151.667 88.5 -263v-547c0 -90.667 7.33301 -189.667 22 -297h-277c-16.667 87.333 -26.334 144 -29.001 170c-16 -54 -43.5 -99.167 -82.5 -135.5s-88.5 -54.5 -148.5 -54.5z" />
    <glyph glyph-name="atilde" unicode="&#xe3;" horiz-adv-x="954" 
d="M654 1325l-7.00098 0.000976562c-27.333 0 -58.666 7.33301 -93.999 22c-38.667 16 -75.5 32.667 -110.5 50s-61.833 26 -80.5 26c-36 0 -54 -28 -54 -84h-154c0 86.667 12.5 153.334 37.5 200.001s70.167 72 135.5 76h13c30 0 61.667 -6 95 -18
c37.333 -14.667 71.333 -30.334 102 -47.001s52.334 -25.667 65.001 -27c19.333 -2.66699 33.166 3 41.499 17s12.5 34.333 12.5 61h144v-7c0 -174.667 -48.667 -264.334 -146 -269.001zM456.999 204.001c18 0 36.499 6.66699 55.499 20s34.167 28 45.5 44v324
c-55.333 -28.667 -101.5 -66.167 -138.5 -112.5s-55.5 -94.5 -55.5 -144.5c0 -40 8.33301 -71.833 25 -95.5s39.334 -35.5 68.001 -35.5zM341.998 -19.999c-53.333 0.666992 -100.833 15.3311 -142.5 43.998s-72.667 64.334 -93 107.001s-30.5 87.667 -30.5 135
c0 30.667 3 60 9 88s13.333 53 22 75s21 43.167 37 63.5s31 38 45 53s32.5 30.167 55.5 45.5s42.833 27.833 59.5 37.5s38.334 20.5 65.001 32.5s47.834 21.167 63.501 27.5l65 25.5l60.5 23v109c0 42.667 -5.5 74.5 -16.5 95.5s-32.167 31.5 -63.5 31.5
c-52.667 0 -80.334 -37 -83.001 -111l-6 -81l-293 12c0 13.333 1 27 3 41c8.66699 126.667 47 219.834 115 279.501s165 89.5 291 89.5c116.667 0 204.5 -32 263.5 -96s88.5 -151.667 88.5 -263v-547c0 -90.667 7.33301 -189.667 22 -297h-277
c-16.667 87.333 -26.334 144 -29.001 170c-16 -54 -43.5 -99.167 -82.5 -135.5s-88.5 -54.5 -148.5 -54.5z" />
    <glyph glyph-name="adieresis" unicode="&#xe4;" horiz-adv-x="954" 
d="M557 1325v286h261v-286h-261zM137 1325v286h261v-286h-261zM457 204c18 0 36.499 6.66699 55.499 20s34.167 28 45.5 44v324c-55.333 -28.667 -101.5 -66.167 -138.5 -112.5s-55.5 -94.5 -55.5 -144.5c0 -40 8.33301 -71.833 25 -95.5s39.334 -35.5 68.001 -35.5z
M341.999 -20c-53.333 0.666992 -100.833 15.3311 -142.5 43.998s-72.667 64.334 -93 107.001s-30.5 87.667 -30.5 135c0 30.667 3 60 9 88s13.333 53 22 75s21 43.167 37 63.5s31 38 45 53s32.5 30.167 55.5 45.5s42.833 27.833 59.5 37.5s38.334 20.5 65.001 32.5
s47.834 21.167 63.501 27.5l65 25.5l60.5 23v109c0 42.667 -5.5 74.5 -16.5 95.5s-32.167 31.5 -63.5 31.5c-52.667 0 -80.334 -37 -83.001 -111l-6 -81l-293 12c0 13.333 1 27 3 41c8.66699 126.667 47 219.834 115 279.501s165 89.5 291 89.5
c116.667 0 204.5 -32 263.5 -96s88.5 -151.667 88.5 -263v-547c0 -90.667 7.33301 -189.667 22 -297h-277c-16.667 87.333 -26.334 144 -29.001 170c-16 -54 -43.5 -99.167 -82.5 -135.5s-88.5 -54.5 -148.5 -54.5z" />
    <glyph glyph-name="aring" unicode="&#xe5;" horiz-adv-x="954" 
d="M476 1444c33.333 0 59.333 10.5 78 31.5s28 47.5 28 79.5s-9.33301 58.5 -28 79.5s-44.667 31.5 -78 31.5s-59.333 -10.5 -78 -31.5s-28 -47.5 -28 -79.5s9.33301 -58.5 28 -79.5s44.667 -31.5 78 -31.5zM476 1325c-69.333 0 -126.333 20.5 -171 61.5
s-67 97.167 -67 168.5s22.333 127.333 67 168s101.667 61 171 61c70 0 127.667 -20.333 173 -61s68 -96.667 68 -168s-22.667 -127.5 -68 -168.5s-103 -61.5 -173 -61.5zM457 204c18 0 36.499 6.66699 55.499 20s34.167 28 45.5 44v324
c-55.333 -28.667 -101.5 -66.167 -138.5 -112.5s-55.5 -94.5 -55.5 -144.5c0 -40 8.33301 -71.833 25 -95.5s39.334 -35.5 68.001 -35.5zM341.999 -20c-53.333 0.666992 -100.833 15.3311 -142.5 43.998s-72.667 64.334 -93 107.001s-30.5 87.667 -30.5 135
c0 30.667 3 60 9 88s13.333 53 22 75s21 43.167 37 63.5s31 38 45 53s32.5 30.167 55.5 45.5s42.833 27.833 59.5 37.5s38.334 20.5 65.001 32.5s47.834 21.167 63.501 27.5l65 25.5l60.5 23v109c0 42.667 -5.5 74.5 -16.5 95.5s-32.167 31.5 -63.5 31.5
c-52.667 0 -80.334 -37 -83.001 -111l-6 -81l-293 12c0 13.333 1 27 3 41c8.66699 126.667 47 219.834 115 279.501s165 89.5 291 89.5c116.667 0 204.5 -32 263.5 -96s88.5 -151.667 88.5 -263v-547c0 -90.667 7.33301 -189.667 22 -297h-277
c-16.667 87.333 -26.334 144 -29.001 170c-16 -54 -43.5 -99.167 -82.5 -135.5s-88.5 -54.5 -148.5 -54.5z" />
    <glyph glyph-name="ae" unicode="&#xe6;" horiz-adv-x="1365" 
d="M841 734c14.667 2 33.332 6.16699 55.999 12.5s37 12.5 43 18.5c28.667 10.667 49.834 25 63.501 43s20.5 44.667 20.5 80c0 38.667 -7.33301 69 -22 91s-36 33 -64 33c-30.667 0 -54.5 -13.667 -71.5 -41s-25.5 -63.333 -25.5 -108v-129zM436.998 195
c32 0 58.167 14.332 78.5 42.999s30.5 72.334 30.5 131.001l-1 173c-24.667 -6.66699 -47.667 -15.667 -69 -27c-41.333 -23.333 -72.833 -53.333 -94.5 -90s-32.5 -72.667 -32.5 -108c0 -32 7.66699 -60.333 23 -85s37 -37 65 -37zM355.998 -22.001
c-81.333 2.66699 -149.665 30.835 -204.998 84.502s-83 123.834 -83 210.501c0 47.333 6 90.5 18 129.5s27.5 71.667 46.5 98s42.833 49.833 71.5 70.5s57.667 37 87 49s62 22.333 98 31c38 10 90 21.667 156 35v151c0 44 -6.66699 76.833 -20 98.5s-35 32.5 -65 32.5
c-30.667 0 -53 -12.667 -67 -38s-21 -66.666 -21 -123.999h-301v8c0.666992 128.667 31.667 229 93 301c62.667 73.333 155.334 110 278.001 110c61.333 0 114 -14 158 -42s72.333 -64.667 85 -110c18.667 44 51 80.167 97 108.5s99 42.5 159 42.5
c111.333 0 197 -31.833 257 -95.5s90 -142.167 90 -235.5c0 -36.667 -6.5 -69.5 -19.5 -98.5s-29.333 -53 -49 -72s-45 -36.167 -76 -51.5s-60.333 -27.166 -88 -35.499s-60.167 -16.5 -97.5 -24.5c-18.667 -4.66699 -57.334 -12 -116.001 -22v-157v-17v-39
c0 -8.66699 0.333008 -20.834 1 -36.501s1.66699 -27.834 3 -36.501s3.16602 -19.167 5.49902 -31.5s5.5 -21.833 9.5 -28.5s8.66699 -13.334 14 -20.001s11.833 -11.5 19.5 -14.5s16.5 -4.5 26.5 -4.5c16 0 29.167 3.66699 39.5 11s17.666 19.166 21.999 35.499
s7 31.666 8 45.999s1.5 34.166 1.5 59.499v58h290v-82c0 -113.333 -29.167 -200.666 -87.5 -261.999s-143.5 -92 -255.5 -92c-63.333 0 -121.333 18 -174 54s-85 84 -97 144c-28 -62.667 -70 -112 -126 -148c-52 -33.333 -109.333 -50 -172 -50h-14z" />
    <glyph glyph-name="ccedilla" unicode="&#xe7;" horiz-adv-x="932" 
d="M337 -526l0.000976562 138.001c21.333 -6 45.333 -10.333 72 -13c16.667 -1.33301 33 -2 49 -2c10 0.666992 20 1 30 1c26 1.33301 47.833 7.16602 65.5 17.499s26.5 24.5 26.5 42.5c0 20 -5.5 37.333 -16.5 52s-26.5 26.5 -46.5 35.5s-39.5 15.833 -58.5 20.5
s-40.5 8.66699 -64.5 12v222h123v-131c74 -4 137.167 -24 189.5 -60s79.166 -82.333 80.499 -139v-7c0 -46.667 -13 -86.667 -39 -120c-27.333 -34.667 -63 -59 -107 -73c-42 -13.333 -88.333 -20 -139 -20h-7c-53.333 0.666992 -106 8.66699 -158 24zM477.001 -19.999
c-131.333 0 -229.835 36.334 -295.502 109.001s-98.5 175.667 -98.5 309v389c0 133.333 32.667 236 98 308s164 108 296 108c254.667 0 382 -120 382 -360v-112h-295v119c0 51.333 -6.66699 87.166 -20 107.499s-35 30.5 -65 30.5c-32 0 -54.333 -12 -67 -36
s-19 -67.333 -19 -130v-464c0 -62 6.83301 -104.333 20.5 -127s35.834 -34 66.501 -34s52.334 10.667 65.001 32s19 55.333 19 102v142h295v-129c0 -119.333 -32.333 -209.833 -97 -271.5s-159.667 -92.5 -285 -92.5z" />
    <glyph glyph-name="egrave" unicode="&#xe8;" horiz-adv-x="940" 
d="M379 1325l-254 411h317l123 -411h-186zM390 723h181v116c0 50.667 -7.5 87 -22.5 109s-38.5 33 -70.5 33s-54.667 -12.5 -68 -37.5s-20 -68.833 -20 -131.5v-89zM480 -20c-132.667 0 -232.001 36.1699 -298.001 108.503s-99 176.166 -99 311.499v383
c0 135.333 33.333 239.166 100 311.499s165.334 108.5 296.001 108.5c134 0 231.167 -36.167 291.5 -108.5s90.5 -179.833 90.5 -322.5v-198h-471v-194c0 -58.667 6 -102.834 18 -132.501s35.667 -44.5 71 -44.5c61.333 0 92 44.333 92 133v110h289v-96
c0 -120 -32.667 -211.667 -98 -275s-159.333 -95 -282 -95z" />
    <glyph glyph-name="eacute" unicode="&#xe9;" horiz-adv-x="940" 
d="M379 1325l124 411h315l-253 -411h-186zM390 723h181v116c0 50.667 -7.5 87 -22.5 109s-38.5 33 -70.5 33s-54.667 -12.5 -68 -37.5s-20 -68.833 -20 -131.5v-89zM480 -20c-132.667 0 -232.001 36.1699 -298.001 108.503s-99 176.166 -99 311.499v383
c0 135.333 33.333 239.166 100 311.499s165.334 108.5 296.001 108.5c134 0 231.167 -36.167 291.5 -108.5s90.5 -179.833 90.5 -322.5v-198h-471v-194c0 -58.667 6 -102.834 18 -132.501s35.667 -44.5 71 -44.5c61.333 0 92 44.333 92 133v110h289v-96
c0 -120 -32.667 -211.667 -98 -275s-159.333 -95 -282 -95z" />
    <glyph glyph-name="ecircumflex" unicode="&#xea;" horiz-adv-x="940" 
d="M149 1325l189 382h265l193 -382h-228l-96 241l-96 -241h-227zM390 723h181v116c0 50.667 -7.5 87 -22.5 109s-38.5 33 -70.5 33s-54.667 -12.5 -68 -37.5s-20 -68.833 -20 -131.5v-89zM480 -20c-132.667 0 -232.001 36.1699 -298.001 108.503s-99 176.166 -99 311.499
v383c0 135.333 33.333 239.166 100 311.499s165.334 108.5 296.001 108.5c134 0 231.167 -36.167 291.5 -108.5s90.5 -179.833 90.5 -322.5v-198h-471v-194c0 -58.667 6 -102.834 18 -132.501s35.667 -44.5 71 -44.5c61.333 0 92 44.333 92 133v110h289v-96
c0 -120 -32.667 -211.667 -98 -275s-159.333 -95 -282 -95z" />
    <glyph glyph-name="edieresis" unicode="&#xeb;" horiz-adv-x="940" 
d="M551 1325v286h261v-286h-261zM131 1325v286h261v-286h-261zM390 723h181v116c0 50.667 -7.5 87 -22.5 109s-38.5 33 -70.5 33s-54.667 -12.5 -68 -37.5s-20 -68.833 -20 -131.5v-89zM480 -20c-132.667 0 -232.001 36.1699 -298.001 108.503s-99 176.166 -99 311.499v383
c0 135.333 33.333 239.166 100 311.499s165.334 108.5 296.001 108.5c134 0 231.167 -36.167 291.5 -108.5s90.5 -179.833 90.5 -322.5v-198h-471v-194c0 -58.667 6 -102.834 18 -132.501s35.667 -44.5 71 -44.5c61.333 0 92 44.333 92 133v110h289v-96
c0 -120 -32.667 -211.667 -98 -275s-159.333 -95 -282 -95z" />
    <glyph glyph-name="igrave" unicode="&#xec;" horiz-adv-x="548" 
d="M184 1325l-254 411h317l123 -411h-186zM122 0v1184h309v-1184h-309z" />
    <glyph glyph-name="iacute" unicode="&#xed;" horiz-adv-x="548" 
d="M183 1325l124 411h315l-253 -411h-186zM122 0v1184h309v-1184h-309z" />
    <glyph glyph-name="icircumflex" unicode="&#xee;" horiz-adv-x="548" 
d="M-47 1325l189 382h265l193 -382h-228l-96 241l-96 -241h-227zM122 0v1184h309v-1184h-309z" />
    <glyph glyph-name="idieresis" unicode="&#xef;" horiz-adv-x="548" 
d="M356 1325v286h261v-286h-261zM-64 1325v286h261v-286h-261zM122 0v1184h309v-1184h-309z" />
    <glyph glyph-name="eth" unicode="&#xf0;" horiz-adv-x="1043" 
d="M413 593c0 -22.667 -0.332031 -54.667 -0.999023 -96c-0.666992 -22 -1 -42.667 -1 -62c0.666992 -10 1 -19.667 1 -29c0 -28 0.833008 -53.5 2.5 -76.5s4.66699 -43.333 9 -61s10.333 -32.334 18 -44.001s17.667 -20.667 30 -27s27.5 -9.5 45.5 -9.5
c43.333 0 72.666 15.5 87.999 46.5s23 76.833 23 137.5v557c-1.33301 0.666992 -4.83301 3 -10.5 7s-10.834 7.33301 -15.501 10s-10.5 5.66699 -17.5 9s-14.667 5.83301 -23 7.5s-17.166 2.5 -26.499 2.5c-49.333 0 -82 -26.167 -98 -78.5s-24 -150.166 -24 -293.499z
M937.001 453c0 -319.333 -141.001 -478.999 -423.001 -478.999c-270.667 0 -406 155.333 -406 466v288c0 134 31.167 242.333 93.5 325s148.166 124 257.499 124c62.667 0 118.334 -16 167.001 -48c-4 113.333 -22.333 192.333 -55 237l-197 -90l-28 94l169 78
c-41.333 46.667 -131.666 70 -270.999 70l15 194c234.667 0 395 -49.667 481 -149l200 91l27 -96l-166 -75c35.333 -60.667 66.833 -143.834 94.5 -249.501s41.5 -224.167 41.5 -355.5v-425z" />
    <glyph glyph-name="ntilde" unicode="&#xf1;" horiz-adv-x="1008" 
d="M685 1325l-7.00098 0.000976562c-27.333 0 -58.666 7.33301 -93.999 22c-38.667 16 -75.5 32.667 -110.5 50s-61.833 26 -80.5 26c-36 0 -54 -28 -54 -84h-154c0 86.667 12.5 153.334 37.5 200.001s70.167 72 135.5 76h13c30 0 61.667 -6 95 -18
c37.333 -14.667 71.333 -30.334 102 -47.001s52.334 -25.667 65.001 -27c19.333 -2.66699 33.166 3 41.499 17s12.5 34.333 12.5 61h144v-7c0 -174.667 -48.667 -264.334 -146 -269.001zM105.999 0.000976562l-0.000976562 1184h309v-117c95.333 90.667 191.333 136 288 136
c68.667 0 120.334 -25.167 155.001 -75.5s52 -113.833 52 -190.5v-937h-310v882c0 32.667 -5 57 -15 73s-28.667 23.667 -56 23c-32 0 -70 -15.667 -114 -47v-931h-309z" />
    <glyph glyph-name="ograve" unicode="&#xf2;" horiz-adv-x="962" 
d="M388 1325l-254 411h317l123 -411h-186zM479 -20c-128 0 -226 34.5 -294 103.5s-102 168.167 -102 297.5v422c0 128.667 34 227.5 102 296.5s166 103.5 294 103.5c128.667 0 227.5 -34.5 296.5 -103.5s103.5 -167.833 103.5 -296.5v-422
c0 -128.667 -34.5 -227.667 -103.5 -297s-167.833 -104 -296.5 -104zM480 192c36.667 0 61.334 14.168 74.001 42.501s19 69.833 19 124.5v465c0 55.333 -6.33301 97.166 -19 125.499s-37.334 42.5 -74.001 42.5c-36 0 -60.167 -14.5 -72.5 -43.5s-18.5 -70.5 -18.5 -124.5
v-465c0 -54 6.16699 -95.333 18.5 -124s36.5 -43 72.5 -43z" />
    <glyph glyph-name="oacute" unicode="&#xf3;" horiz-adv-x="962" 
d="M388 1325l124 411h315l-253 -411h-186zM479 -20c-128 0 -226 34.5 -294 103.5s-102 168.167 -102 297.5v422c0 128.667 34 227.5 102 296.5s166 103.5 294 103.5c128.667 0 227.5 -34.5 296.5 -103.5s103.5 -167.833 103.5 -296.5v-422
c0 -128.667 -34.5 -227.667 -103.5 -297s-167.833 -104 -296.5 -104zM480 192c36.667 0 61.334 14.168 74.001 42.501s19 69.833 19 124.5v465c0 55.333 -6.33301 97.166 -19 125.499s-37.334 42.5 -74.001 42.5c-36 0 -60.167 -14.5 -72.5 -43.5s-18.5 -70.5 -18.5 -124.5
v-465c0 -54 6.16699 -95.333 18.5 -124s36.5 -43 72.5 -43z" />
    <glyph glyph-name="ocircumflex" unicode="&#xf4;" horiz-adv-x="962" 
d="M157 1325l189 382h265l193 -382h-228l-96 241l-96 -241h-227zM479 -20c-128 0 -226 34.5 -294 103.5s-102 168.167 -102 297.5v422c0 128.667 34 227.5 102 296.5s166 103.5 294 103.5c128.667 0 227.5 -34.5 296.5 -103.5s103.5 -167.833 103.5 -296.5v-422
c0 -128.667 -34.5 -227.667 -103.5 -297s-167.833 -104 -296.5 -104zM480 192c36.667 0 61.334 14.168 74.001 42.501s19 69.833 19 124.5v465c0 55.333 -6.33301 97.166 -19 125.499s-37.334 42.5 -74.001 42.5c-36 0 -60.167 -14.5 -72.5 -43.5s-18.5 -70.5 -18.5 -124.5
v-465c0 -54 6.16699 -95.333 18.5 -124s36.5 -43 72.5 -43z" />
    <glyph glyph-name="otilde" unicode="&#xf5;" horiz-adv-x="962" 
d="M658 1325l-7.00098 0.000976562c-27.333 0 -58.666 7.33301 -93.999 22c-38.667 16 -75.5 32.667 -110.5 50s-61.833 26 -80.5 26c-36 0 -54 -28 -54 -84h-154c0 86.667 12.5 153.334 37.5 200.001s70.167 72 135.5 76h13c30 0 61.667 -6 95 -18
c37.333 -14.667 71.333 -30.334 102 -47.001s52.334 -25.667 65.001 -27c19.333 -2.66699 33.166 3 41.499 17s12.5 34.333 12.5 61h144v-7c0 -174.667 -48.667 -264.334 -146 -269.001zM478.999 -19.999c-128 0 -226 34.5 -294 103.5s-102 168.167 -102 297.5v422
c0 128.667 34 227.5 102 296.5s166 103.5 294 103.5c128.667 0 227.5 -34.5 296.5 -103.5s103.5 -167.833 103.5 -296.5v-422c0 -128.667 -34.5 -227.667 -103.5 -297s-167.833 -104 -296.5 -104zM479.999 192.001c36.667 0 61.334 14.168 74.001 42.501s19 69.833 19 124.5
v465c0 55.333 -6.33301 97.166 -19 125.499s-37.334 42.5 -74.001 42.5c-36 0 -60.167 -14.5 -72.5 -43.5s-18.5 -70.5 -18.5 -124.5v-465c0 -54 6.16699 -95.333 18.5 -124s36.5 -43 72.5 -43z" />
    <glyph glyph-name="odieresis" unicode="&#xf6;" horiz-adv-x="962" 
d="M561 1325v286h261v-286h-261zM141 1325v286h261v-286h-261zM479 -20c-128 0 -226 34.5 -294 103.5s-102 168.167 -102 297.5v422c0 128.667 34 227.5 102 296.5s166 103.5 294 103.5c128.667 0 227.5 -34.5 296.5 -103.5s103.5 -167.833 103.5 -296.5v-422
c0 -128.667 -34.5 -227.667 -103.5 -297s-167.833 -104 -296.5 -104zM480 192c36.667 0 61.334 14.168 74.001 42.501s19 69.833 19 124.5v465c0 55.333 -6.33301 97.166 -19 125.499s-37.334 42.5 -74.001 42.5c-36 0 -60.167 -14.5 -72.5 -43.5s-18.5 -70.5 -18.5 -124.5
v-465c0 -54 6.16699 -95.333 18.5 -124s36.5 -43 72.5 -43z" />
    <glyph glyph-name="divide" unicode="&#xf7;" horiz-adv-x="875" 
d="M344 1084v250h201v-250h-201zM61 764v177h753v-177h-753zM344 354v250h201v-250h-201z" />
    <glyph glyph-name="oslash" unicode="&#xf8;" horiz-adv-x="953" 
d="M389 491l171 443c-13.333 38.667 -40 58 -80 58c-36 0 -60.167 -14.5 -72.5 -43.5s-18.5 -70.5 -18.5 -124.5v-333zM480 192c36.667 0 61.333 14.167 74 42.5s19 69.833 19 124.5v376l-179 -456c10 -58 38.667 -87 86 -87zM210.999 -190l-74 29.999l83 214
c-91.333 68 -137 177 -137 327v422c0 128.667 34 227.5 102 296.5s166 103.5 294 103.5c66 0 124.333 -9.33301 175 -28l79 205l80 -31l-83 -212c99.333 -67.333 149 -178.666 149 -333.999v-422c0 -128.667 -34.5 -227.667 -103.5 -297s-167.833 -104 -296.5 -104
c-72 0 -134.667 11.333 -188 34z" />
    <glyph glyph-name="ugrave" unicode="&#xf9;" horiz-adv-x="1001" 
d="M402 1325l-254 411h317l123 -411h-186zM303 -19c-68.667 0 -120.334 25.167 -155.001 75.5s-52 113.833 -52 190.5v937h309v-889c0.666992 -32.667 6.33398 -57 17.001 -73s28.667 -24 54 -24h3c30.667 0.666992 66 14.667 106 42v944h310v-1184h-310v110
c-91.333 -86 -185.333 -129 -282 -129z" />
    <glyph glyph-name="uacute" unicode="&#xfa;" horiz-adv-x="1001" 
d="M403 1325l124 411h315l-253 -411h-186zM303 -19c-68.667 0 -120.334 25.167 -155.001 75.5s-52 113.833 -52 190.5v937h309v-889c0.666992 -32.667 6.33398 -57 17.001 -73s28.667 -24 54 -24h3c30.667 0.666992 66 14.667 106 42v944h310v-1184h-310v110
c-91.333 -86 -185.333 -129 -282 -129z" />
    <glyph glyph-name="ucircumflex" unicode="&#xfb;" horiz-adv-x="1001" 
d="M172 1325l189 382h265l193 -382h-228l-96 241l-96 -241h-227zM303 -19c-68.667 0 -120.334 25.167 -155.001 75.5s-52 113.833 -52 190.5v937h309v-889c0.666992 -32.667 6.33398 -57 17.001 -73s28.667 -24 54 -24h3c30.667 0.666992 66 14.667 106 42v944h310v-1184
h-310v110c-91.333 -86 -185.333 -129 -282 -129z" />
    <glyph glyph-name="udieresis" unicode="&#xfc;" horiz-adv-x="1001" 
d="M575 1325v286h261v-286h-261zM155 1325v286h261v-286h-261zM303 -19c-68.667 0 -120.334 25.167 -155.001 75.5s-52 113.833 -52 190.5v937h309v-889c0.666992 -32.667 6.33398 -57 17.001 -73s28.667 -24 54 -24h3c30.667 0.666992 66 14.667 106 42v944h310v-1184h-310
v110c-91.333 -86 -185.333 -129 -282 -129z" />
    <glyph glyph-name="yacute" unicode="&#xfd;" horiz-adv-x="888" 
d="M345 1325l124 411h315l-253 -411h-186zM126 -331l-0.000976562 218c77.333 0 130 7.66699 158 23c22.667 12.667 34.334 36.667 35.001 72c0 8 -0.666992 16.333 -2 25c-4.66699 34 -18.667 94.333 -42 181c-12 50.667 -56.333 216.667 -133 498s-121 447.333 -133 498
h296l147 -725l120 725h296l-280 -1247c-38.667 -178.667 -175.667 -268 -411 -268h-10h-41z" />
    <glyph glyph-name="thorn" unicode="&#xfe;" horiz-adv-x="992" 
d="M513 190h2.00098c32.667 0 55.667 15.333 69 46c13.333 32 19.666 75 18.999 129v485c0 102.667 -29.333 154 -88 154h-6c-29.333 -0.666992 -63 -14.667 -101 -42v-739c36 -22 71 -33 105 -33zM99.001 -390l-0.000976562 2048h309v-563
c77.333 72 157.666 108 240.999 108h7c47.333 -0.666992 88.333 -12.5 123 -35.5s61.334 -53.167 80.001 -90.5s32.334 -76.333 41.001 -117s13 -83.667 13 -129v-453c0 -118.667 -22.5 -214.667 -67.5 -288s-112.167 -110 -201.5 -110c-77.333 0 -156 36 -236 108v-478
h-309z" />
    <glyph glyph-name="ydieresis" unicode="&#xff;" horiz-adv-x="888" 
d="M518 1325v286h261v-286h-261zM98 1325v286h261v-286h-261zM126 -331l-0.000976562 218c77.333 0 130 7.66699 158 23c22.667 12.667 34.334 36.667 35.001 72c0 8 -0.666992 16.333 -2 25c-4.66699 34 -18.667 94.333 -42 181c-12 50.667 -56.333 216.667 -133 498
s-121 447.333 -133 498h296l147 -725l120 725h296l-280 -1247c-38.667 -178.667 -175.667 -268 -411 -268h-10h-41z" />
    <glyph glyph-name="Amacron" unicode="&#x100;" horiz-adv-x="1099" 
d="M289 1801v153h521v-153h-521zM453 576h197l-99 660zM41 0l324 1658h370l323 -1658h-313l-61 367h-263l-61 -367h-319z" />
    <glyph glyph-name="amacron" unicode="&#x101;" horiz-adv-x="954" 
d="M217 1325v153h521v-153h-521zM457 204c18 0 36.499 6.66699 55.499 20s34.167 28 45.5 44v324c-55.333 -28.667 -101.5 -66.167 -138.5 -112.5s-55.5 -94.5 -55.5 -144.5c0 -40 8.33301 -71.833 25 -95.5s39.334 -35.5 68.001 -35.5zM341.999 -20
c-53.333 0.666992 -100.833 15.3311 -142.5 43.998s-72.667 64.334 -93 107.001s-30.5 87.667 -30.5 135c0 30.667 3 60 9 88s13.333 53 22 75s21 43.167 37 63.5s31 38 45 53s32.5 30.167 55.5 45.5s42.833 27.833 59.5 37.5s38.334 20.5 65.001 32.5
s47.834 21.167 63.501 27.5l65 25.5l60.5 23v109c0 42.667 -5.5 74.5 -16.5 95.5s-32.167 31.5 -63.5 31.5c-52.667 0 -80.334 -37 -83.001 -111l-6 -81l-293 12c0 13.333 1 27 3 41c8.66699 126.667 47 219.834 115 279.501s165 89.5 291 89.5
c116.667 0 204.5 -32 263.5 -96s88.5 -151.667 88.5 -263v-547c0 -90.667 7.33301 -189.667 22 -297h-277c-16.667 87.333 -26.334 144 -29.001 170c-16 -54 -43.5 -99.167 -82.5 -135.5s-88.5 -54.5 -148.5 -54.5z" />
    <glyph glyph-name="Abreve" unicode="&#x102;" horiz-adv-x="1099" 
d="M550 1801c-95.333 0 -167.833 24.167 -217.5 72.5s-74.5 114.833 -74.5 199.5h144c0 -48 11.833 -82.833 35.5 -104.5s61.167 -32.5 112.5 -32.5s88.833 11 112.5 33s35.5 56.667 35.5 104h144c0 -84.667 -24.667 -151.167 -74 -199.5s-122 -72.5 -218 -72.5zM453 576
h197l-99 660zM41 0l324 1658h370l323 -1658h-313l-61 367h-263l-61 -367h-319z" />
    <glyph glyph-name="abreve" unicode="&#x103;" horiz-adv-x="954" 
d="M478 1325c-95.333 0 -167.833 24.167 -217.5 72.5s-74.5 114.833 -74.5 199.5h144c0 -48 11.833 -82.833 35.5 -104.5s61.167 -32.5 112.5 -32.5s88.833 11 112.5 33s35.5 56.667 35.5 104h144c0 -84.667 -24.667 -151.167 -74 -199.5s-122 -72.5 -218 -72.5zM457 204
c18 0 36.499 6.66699 55.499 20s34.167 28 45.5 44v324c-55.333 -28.667 -101.5 -66.167 -138.5 -112.5s-55.5 -94.5 -55.5 -144.5c0 -40 8.33301 -71.833 25 -95.5s39.334 -35.5 68.001 -35.5zM341.999 -20c-53.333 0.666992 -100.833 15.3311 -142.5 43.998
s-72.667 64.334 -93 107.001s-30.5 87.667 -30.5 135c0 30.667 3 60 9 88s13.333 53 22 75s21 43.167 37 63.5s31 38 45 53s32.5 30.167 55.5 45.5s42.833 27.833 59.5 37.5s38.334 20.5 65.001 32.5s47.834 21.167 63.501 27.5l65 25.5l60.5 23v109
c0 42.667 -5.5 74.5 -16.5 95.5s-32.167 31.5 -63.5 31.5c-52.667 0 -80.334 -37 -83.001 -111l-6 -81l-293 12c0 13.333 1 27 3 41c8.66699 126.667 47 219.834 115 279.501s165 89.5 291 89.5c116.667 0 204.5 -32 263.5 -96s88.5 -151.667 88.5 -263v-547
c0 -90.667 7.33301 -189.667 22 -297h-277c-16.667 87.333 -26.334 144 -29.001 170c-16 -54 -43.5 -99.167 -82.5 -135.5s-88.5 -54.5 -148.5 -54.5z" />
    <glyph glyph-name="Aogonek" unicode="&#x104;" horiz-adv-x="1099" 
d="M1093 -504h-49.9961h-41c-24.667 0.666992 -53.834 2.83398 -87.501 6.50098s-61.667 10.167 -84 19.5s-44 21.333 -65 36s-36.833 34.5 -47.5 59.5s-16 53.833 -16 86.5c0 57.333 17.833 115.5 53.5 174.5s78.5 104.5 128.5 136.5h143
c-6.66699 -16.667 -19.667 -43.5 -39 -80.5s-35 -71.333 -47 -103s-18 -61.834 -18 -90.501c0 -13.333 2.16699 -25.166 6.5 -35.499s9.66602 -18.833 15.999 -25.5s15 -12.334 26 -17.001s20.667 -8 29 -10s19.666 -3.66699 33.999 -5s25.333 -2 33 -2
s18.667 0.166992 33 0.5s23.166 0.5 26.499 0.5zM453.004 576h197l-99 660zM41.0039 0l324 1658h370l323 -1658h-313l-61 367h-263l-61 -367h-319z" />
    <glyph glyph-name="aogonek" unicode="&#x105;" horiz-adv-x="954" 
d="M932 -504h-49.9961h-41c-24.667 0.666992 -53.834 2.83398 -87.501 6.50098s-61.667 10.167 -84 19.5s-44 21.333 -65 36s-36.833 34.5 -47.5 59.5s-16 53.833 -16 86.5c0 57.333 17.833 115.5 53.5 174.5s78.5 104.5 128.5 136.5h143
c-6.66699 -16.667 -19.667 -43.5 -39 -80.5s-35 -71.333 -47 -103s-18 -61.834 -18 -90.501c0 -13.333 2.16699 -25.166 6.5 -35.499s9.66602 -18.833 15.999 -25.5s15 -12.334 26 -17.001s20.667 -8 29 -10s19.666 -3.66699 33.999 -5s25.333 -2 33 -2
s18.667 0.166992 33 0.5s23.166 0.5 26.499 0.5zM457.004 204c18 0 36.499 6.66699 55.499 20s34.167 28 45.5 44v324c-55.333 -28.667 -101.5 -66.167 -138.5 -112.5s-55.5 -94.5 -55.5 -144.5c0 -40 8.33301 -71.833 25 -95.5s39.334 -35.5 68.001 -35.5zM342.003 -20
c-53.333 0.666992 -100.833 15.3311 -142.5 43.998s-72.667 64.334 -93 107.001s-30.5 87.667 -30.5 135c0 30.667 3 60 9 88s13.333 53 22 75s21 43.167 37 63.5s31 38 45 53s32.5 30.167 55.5 45.5s42.833 27.833 59.5 37.5s38.334 20.5 65.001 32.5
s47.834 21.167 63.501 27.5l65 25.5l60.5 23v109c0 42.667 -5.5 74.5 -16.5 95.5s-32.167 31.5 -63.5 31.5c-52.667 0 -80.334 -37 -83.001 -111l-6 -81l-293 12c0 13.333 1 27 3 41c8.66699 126.667 47 219.834 115 279.501s165 89.5 291 89.5
c116.667 0 204.5 -32 263.5 -96s88.5 -151.667 88.5 -263v-547c0 -90.667 7.33301 -189.667 22 -297h-277c-16.667 87.333 -26.334 144 -29.001 170c-16 -54 -43.5 -99.167 -82.5 -135.5s-88.5 -54.5 -148.5 -54.5z" />
    <glyph glyph-name="Cacute" unicode="&#x106;" horiz-adv-x="1129" 
d="M481 1801l124 411h315l-253 -411h-186zM584 -22c-90.667 0 -168.001 13.1641 -232.001 39.4971s-114.333 64.833 -151 115.5s-63 108.667 -79 174s-24 141.333 -24 228v585c0 90 8 168 24 234s42.333 124 79 174s86.834 87.667 150.501 113s141.167 38 232.5 38
c86.667 0 160.5 -11.167 221.5 -33.5s109 -55.166 144 -98.499s60.333 -93.166 76 -149.499s23.5 -122.166 23.5 -197.499v-144h-329v156v39c0 7.33301 -0.333008 19.333 -1 36s-1.83398 28.5 -3.50098 35.5l-7 30.5c-3 13.333 -6.66699 23 -11 29l-16.5 22
c-6.66699 8.66699 -14.5 14.834 -23.5 18.501s-19.667 7 -32 10s-25.833 4.5 -40.5 4.5c-26 0 -48.167 -4.5 -66.5 -13.5s-32.5 -20.167 -42.5 -33.5s-17.667 -31.5 -23 -54.5s-8.66602 -44.333 -9.99902 -64s-2 -44.5 -2 -74.5v-741c0 -80.667 10.167 -140 30.5 -178
s58.166 -57 113.499 -57c21.333 0 40 2.66699 56 8s28.833 14.166 38.5 26.499s17.334 24.333 23.001 36s9.66699 28.167 12 49.5s3.83301 39.333 4.5 54s1 35 1 61v162h329v-140c0 -76.667 -7.5 -143.834 -22.5 -201.501s-39.5 -109.667 -73.5 -156
s-82 -81.666 -144 -105.999s-137 -36.5 -225 -36.5z" />
    <glyph glyph-name="cacute" unicode="&#x107;" horiz-adv-x="932" 
d="M378 1325l124 411h315l-253 -411h-186zM477 -20c-131.333 0 -229.835 36.334 -295.502 109.001s-98.5 175.667 -98.5 309v389c0 133.333 32.667 236 98 308s164 108 296 108c254.667 0 382 -120 382 -360v-112h-295v119c0 51.333 -6.66699 87.166 -20 107.499
s-35 30.5 -65 30.5c-32 0 -54.333 -12 -67 -36s-19 -67.333 -19 -130v-464c0 -62 6.83301 -104.333 20.5 -127s35.834 -34 66.501 -34s52.334 10.667 65.001 32s19 55.333 19 102v142h295v-129c0 -119.333 -32.333 -209.833 -97 -271.5s-159.667 -92.5 -285 -92.5z" />
    <glyph glyph-name="Ccircumflex" unicode="&#x108;" horiz-adv-x="1129" 
d="M250 1801l189 382h265l193 -382h-228l-96 241l-96 -241h-227zM584 -22c-90.667 0 -168.001 13.1641 -232.001 39.4971s-114.333 64.833 -151 115.5s-63 108.667 -79 174s-24 141.333 -24 228v585c0 90 8 168 24 234s42.333 124 79 174s86.834 87.667 150.501 113
s141.167 38 232.5 38c86.667 0 160.5 -11.167 221.5 -33.5s109 -55.166 144 -98.499s60.333 -93.166 76 -149.499s23.5 -122.166 23.5 -197.499v-144h-329v156v39c0 7.33301 -0.333008 19.333 -1 36s-1.83398 28.5 -3.50098 35.5l-7 30.5c-3 13.333 -6.66699 23 -11 29
l-16.5 22c-6.66699 8.66699 -14.5 14.834 -23.5 18.501s-19.667 7 -32 10s-25.833 4.5 -40.5 4.5c-26 0 -48.167 -4.5 -66.5 -13.5s-32.5 -20.167 -42.5 -33.5s-17.667 -31.5 -23 -54.5s-8.66602 -44.333 -9.99902 -64s-2 -44.5 -2 -74.5v-741
c0 -80.667 10.167 -140 30.5 -178s58.166 -57 113.499 -57c21.333 0 40 2.66699 56 8s28.833 14.166 38.5 26.499s17.334 24.333 23.001 36s9.66699 28.167 12 49.5s3.83301 39.333 4.5 54s1 35 1 61v162h329v-140c0 -76.667 -7.5 -143.834 -22.5 -201.501
s-39.5 -109.667 -73.5 -156s-82 -81.666 -144 -105.999s-137 -36.5 -225 -36.5z" />
    <glyph glyph-name="ccircumflex" unicode="&#x109;" horiz-adv-x="932" 
d="M147 1325l189 382h265l193 -382h-228l-96 241l-96 -241h-227zM477 -20c-131.333 0 -229.835 36.334 -295.502 109.001s-98.5 175.667 -98.5 309v389c0 133.333 32.667 236 98 308s164 108 296 108c254.667 0 382 -120 382 -360v-112h-295v119
c0 51.333 -6.66699 87.166 -20 107.499s-35 30.5 -65 30.5c-32 0 -54.333 -12 -67 -36s-19 -67.333 -19 -130v-464c0 -62 6.83301 -104.333 20.5 -127s35.834 -34 66.501 -34s52.334 10.667 65.001 32s19 55.333 19 102v142h295v-129
c0 -119.333 -32.333 -209.833 -97 -271.5s-159.667 -92.5 -285 -92.5z" />
    <glyph glyph-name="Cdotaccent" unicode="&#x10a;" horiz-adv-x="1129" 
d="M426 1801v298h296v-298h-296zM584 -22c-90.667 0 -168.001 13.1641 -232.001 39.4971s-114.333 64.833 -151 115.5s-63 108.667 -79 174s-24 141.333 -24 228v585c0 90 8 168 24 234s42.333 124 79 174s86.834 87.667 150.501 113s141.167 38 232.5 38
c86.667 0 160.5 -11.167 221.5 -33.5s109 -55.166 144 -98.499s60.333 -93.166 76 -149.499s23.5 -122.166 23.5 -197.499v-144h-329v156v39c0 7.33301 -0.333008 19.333 -1 36s-1.83398 28.5 -3.50098 35.5l-7 30.5c-3 13.333 -6.66699 23 -11 29l-16.5 22
c-6.66699 8.66699 -14.5 14.834 -23.5 18.501s-19.667 7 -32 10s-25.833 4.5 -40.5 4.5c-26 0 -48.167 -4.5 -66.5 -13.5s-32.5 -20.167 -42.5 -33.5s-17.667 -31.5 -23 -54.5s-8.66602 -44.333 -9.99902 -64s-2 -44.5 -2 -74.5v-741c0 -80.667 10.167 -140 30.5 -178
s58.166 -57 113.499 -57c21.333 0 40 2.66699 56 8s28.833 14.166 38.5 26.499s17.334 24.333 23.001 36s9.66699 28.167 12 49.5s3.83301 39.333 4.5 54s1 35 1 61v162h329v-140c0 -76.667 -7.5 -143.834 -22.5 -201.501s-39.5 -109.667 -73.5 -156
s-82 -81.666 -144 -105.999s-137 -36.5 -225 -36.5z" />
    <glyph glyph-name="cdotaccent" unicode="&#x10b;" horiz-adv-x="932" 
d="M323 1325v298h296v-298h-296zM477 -20c-131.333 0 -229.835 36.334 -295.502 109.001s-98.5 175.667 -98.5 309v389c0 133.333 32.667 236 98 308s164 108 296 108c254.667 0 382 -120 382 -360v-112h-295v119c0 51.333 -6.66699 87.166 -20 107.499s-35 30.5 -65 30.5
c-32 0 -54.333 -12 -67 -36s-19 -67.333 -19 -130v-464c0 -62 6.83301 -104.333 20.5 -127s35.834 -34 66.501 -34s52.334 10.667 65.001 32s19 55.333 19 102v142h295v-129c0 -119.333 -32.333 -209.833 -97 -271.5s-159.667 -92.5 -285 -92.5z" />
    <glyph glyph-name="Ccaron" unicode="&#x10c;" horiz-adv-x="1129" 
d="M422 1801l-177 374h221l107 -226l108 226h222l-181 -374h-300zM584 -22c-90.667 0 -168.001 13.1641 -232.001 39.4971s-114.333 64.833 -151 115.5s-63 108.667 -79 174s-24 141.333 -24 228v585c0 90 8 168 24 234s42.333 124 79 174s86.834 87.667 150.501 113
s141.167 38 232.5 38c86.667 0 160.5 -11.167 221.5 -33.5s109 -55.166 144 -98.499s60.333 -93.166 76 -149.499s23.5 -122.166 23.5 -197.499v-144h-329v156v39c0 7.33301 -0.333008 19.333 -1 36s-1.83398 28.5 -3.50098 35.5l-7 30.5c-3 13.333 -6.66699 23 -11 29
l-16.5 22c-6.66699 8.66699 -14.5 14.834 -23.5 18.501s-19.667 7 -32 10s-25.833 4.5 -40.5 4.5c-26 0 -48.167 -4.5 -66.5 -13.5s-32.5 -20.167 -42.5 -33.5s-17.667 -31.5 -23 -54.5s-8.66602 -44.333 -9.99902 -64s-2 -44.5 -2 -74.5v-741
c0 -80.667 10.167 -140 30.5 -178s58.166 -57 113.499 -57c21.333 0 40 2.66699 56 8s28.833 14.166 38.5 26.499s17.334 24.333 23.001 36s9.66699 28.167 12 49.5s3.83301 39.333 4.5 54s1 35 1 61v162h329v-140c0 -76.667 -7.5 -143.834 -22.5 -201.501
s-39.5 -109.667 -73.5 -156s-82 -81.666 -144 -105.999s-137 -36.5 -225 -36.5z" />
    <glyph glyph-name="ccaron" unicode="&#x10d;" horiz-adv-x="932" 
d="M319 1325l-177 374h221l107 -226l108 226h222l-181 -374h-300zM477 -20c-131.333 0 -229.835 36.334 -295.502 109.001s-98.5 175.667 -98.5 309v389c0 133.333 32.667 236 98 308s164 108 296 108c254.667 0 382 -120 382 -360v-112h-295v119
c0 51.333 -6.66699 87.166 -20 107.499s-35 30.5 -65 30.5c-32 0 -54.333 -12 -67 -36s-19 -67.333 -19 -130v-464c0 -62 6.83301 -104.333 20.5 -127s35.834 -34 66.501 -34s52.334 10.667 65.001 32s19 55.333 19 102v142h295v-129
c0 -119.333 -32.333 -209.833 -97 -271.5s-159.667 -92.5 -285 -92.5z" />
    <glyph glyph-name="Dcaron" unicode="&#x10e;" horiz-adv-x="1167" 
d="M444 1801l-177 374h221l107 -226l108 226h222l-181 -374h-300zM123 0l-0.00292969 1658h403c104.667 0 191.834 -9.66699 261.501 -29s125.334 -51 167.001 -95s71.167 -97.5 88.5 -160.5s26 -141.833 26 -236.5v-598c0 -96 -8.66699 -176.667 -26 -242
s-46.666 -120.833 -87.999 -166.5s-96.333 -78.834 -165 -99.501s-154 -31 -256 -31h-411zM459.997 235.001l70.002 -0.00195312c23.333 0 44.166 1.33301 62.499 4s34.166 7.33398 47.499 14.001s24.666 13.5 33.999 20.5s17.166 17.167 23.499 30.5s11.333 25.833 15 37.5
s6.33398 27.834 8.00098 48.501s2.66699 39 3 55s0.5 37.667 0.5 65v665c0 39.333 -1 70.666 -3 93.999s-6.66699 45.833 -14 67.5s-18.166 37.834 -32.499 48.501s-33.5 19.167 -57.5 25.5s-54 9.5 -90 9.5h-67v-1185z" />
    <glyph glyph-name="dcaron" unicode="&#x10f;" horiz-adv-x="1142" 
d="M1040 1069v589h258l-104 -589h-154zM492 188c27.333 0 59.333 10 96 30v751c-33.333 20 -65.333 30 -96 30c-33.333 0 -57.5 -14.167 -72.5 -42.5s-22.5 -64.833 -22.5 -109.5v-492c0 -111.333 31.667 -167 95 -167zM369 -20c-188 0 -282 132.001 -282 396.001v419
c0 79.333 9 148.666 27 207.999s48.5 107.5 91.5 144.5s96.833 55.5 161.5 55.5c78 0 151.667 -30.667 221 -92v547h309v-1658h-309v86c-70 -70 -143 -105.333 -219 -106z" />
    <glyph glyph-name="Dcroat" unicode="&#x110;" horiz-adv-x="1176" 
d="M131 0l-0.00292969 771.001h-102v162h102v725h403c104.667 0 191.834 -9.66699 261.501 -29s125.334 -51 167.001 -95s71.167 -97.5 88.5 -160.5s26 -141.833 26 -236.5v-598c0 -96 -8.66699 -176.667 -26 -242s-46.666 -120.833 -87.999 -166.5
s-96.333 -78.834 -165 -99.501s-154 -31 -256 -31h-411zM461.997 235.001l81 0.000976562c37.333 0 68.166 4 92.499 12s43.333 18.167 57 30.5s24 31.666 31 57.999s11.167 51 12.5 74s2 56.5 2 100.5v665c0 39.333 -1 70.666 -3 93.999s-6.66699 45.833 -14 67.5
s-18.166 37.834 -32.499 48.501s-33.5 19.167 -57.5 25.5s-54 9.5 -90 9.5h-79v-487h102v-162h-102v-536z" />
    <glyph glyph-name="dcroat" unicode="&#x111;" horiz-adv-x="1003" 
d="M487 188c26 0 57.333 10 94 30v751c-33.333 20 -64.333 30 -93 30c-33.333 0 -57.5 -14.167 -72.5 -42.5s-22.5 -64.833 -22.5 -109.5v-492c0 -111.333 31.333 -167 94 -167zM364 -20c-187.333 0 -281.001 131.999 -281.001 395.999v419
c0 122.667 22.833 221.334 68.5 296.001s115.834 112 210.501 112c76.667 0 149.667 -30.667 219 -92v280h-265v134h265v133h309v-133h106v-134h-106v-1391h-309v86c-70 -70 -142.333 -105.333 -217 -106z" />
    <glyph glyph-name="Emacron" unicode="&#x112;" 
d="M225 1801v153h521v-153h-521zM123 0v1658h722v-234h-385v-439h299v-236h-299v-519h389v-230h-726z" />
    <glyph glyph-name="emacron" unicode="&#x113;" horiz-adv-x="940" 
d="M211 1325v153h521v-153h-521zM390 723h181v116c0 50.667 -7.5 87 -22.5 109s-38.5 33 -70.5 33s-54.667 -12.5 -68 -37.5s-20 -68.833 -20 -131.5v-89zM480 -20c-132.667 0 -232.001 36.1699 -298.001 108.503s-99 176.166 -99 311.499v383
c0 135.333 33.333 239.166 100 311.499s165.334 108.5 296.001 108.5c134 0 231.167 -36.167 291.5 -108.5s90.5 -179.833 90.5 -322.5v-198h-471v-194c0 -58.667 6 -102.834 18 -132.501s35.667 -44.5 71 -44.5c61.333 0 92 44.333 92 133v110h289v-96
c0 -120 -32.667 -211.667 -98 -275s-159.333 -95 -282 -95z" />
    <glyph glyph-name="Ebreve" unicode="&#x114;" 
d="M486 1801c-95.333 0 -167.833 24.167 -217.5 72.5s-74.5 114.833 -74.5 199.5h144c0 -48 11.833 -82.833 35.5 -104.5s61.167 -32.5 112.5 -32.5s88.833 11 112.5 33s35.5 56.667 35.5 104h144c0 -84.667 -24.667 -151.167 -74 -199.5s-122 -72.5 -218 -72.5zM123 0v1658
h722v-234h-385v-439h299v-236h-299v-519h389v-230h-726z" />
    <glyph glyph-name="ebreve" unicode="&#x115;" horiz-adv-x="940" 
d="M472 1325c-95.333 0 -167.833 24.167 -217.5 72.5s-74.5 114.833 -74.5 199.5h144c0 -48 11.833 -82.833 35.5 -104.5s61.167 -32.5 112.5 -32.5s88.833 11 112.5 33s35.5 56.667 35.5 104h144c0 -84.667 -24.667 -151.167 -74 -199.5s-122 -72.5 -218 -72.5zM390 723
h181v116c0 50.667 -7.5 87 -22.5 109s-38.5 33 -70.5 33s-54.667 -12.5 -68 -37.5s-20 -68.833 -20 -131.5v-89zM480 -20c-132.667 0 -232.001 36.1699 -298.001 108.503s-99 176.166 -99 311.499v383c0 135.333 33.333 239.166 100 311.499s165.334 108.5 296.001 108.5
c134 0 231.167 -36.167 291.5 -108.5s90.5 -179.833 90.5 -322.5v-198h-471v-194c0 -58.667 6 -102.834 18 -132.501s35.667 -44.5 71 -44.5c61.333 0 92 44.333 92 133v110h289v-96c0 -120 -32.667 -211.667 -98 -275s-159.333 -95 -282 -95z" />
    <glyph glyph-name="Edotaccent" unicode="&#x116;" 
d="M338 1801v298h296v-298h-296zM123 0v1658h722v-234h-385v-439h299v-236h-299v-519h389v-230h-726z" />
    <glyph glyph-name="edotaccent" unicode="&#x117;" horiz-adv-x="940" 
d="M324 1325v298h296v-298h-296zM390 723h181v116c0 50.667 -7.5 87 -22.5 109s-38.5 33 -70.5 33s-54.667 -12.5 -68 -37.5s-20 -68.833 -20 -131.5v-89zM480 -20c-132.667 0 -232.001 36.1699 -298.001 108.503s-99 176.166 -99 311.499v383
c0 135.333 33.333 239.166 100 311.499s165.334 108.5 296.001 108.5c134 0 231.167 -36.167 291.5 -108.5s90.5 -179.833 90.5 -322.5v-198h-471v-194c0 -58.667 6 -102.834 18 -132.501s35.667 -44.5 71 -44.5c61.333 0 92 44.333 92 133v110h289v-96
c0 -120 -32.667 -211.667 -98 -275s-159.333 -95 -282 -95z" />
    <glyph glyph-name="Eogonek" unicode="&#x118;" 
d="M756 -504h-49.9961h-41c-24.667 0.666992 -53.834 2.83398 -87.501 6.50098s-61.667 10.167 -84 19.5s-44 21.333 -65 36s-36.833 34.5 -47.5 59.5s-16 53.833 -16 86.5c0 57.333 17.833 115.5 53.5 174.5s78.5 104.5 128.5 136.5h143
c-6.66699 -16.667 -19.667 -43.5 -39 -80.5s-35 -71.333 -47 -103s-18 -61.834 -18 -90.501c0 -13.333 2.16699 -25.166 6.5 -35.499s9.66602 -18.833 15.999 -25.5s15 -12.334 26 -17.001s20.667 -8 29 -10s19.666 -3.66699 33.999 -5s25.333 -2 33 -2
s18.667 0.166992 33 0.5s23.166 0.5 26.499 0.5zM123.004 0v1658h722v-234h-385v-439h299v-236h-299v-519h389v-230h-726z" />
    <glyph glyph-name="eogonek" unicode="&#x119;" horiz-adv-x="940" 
d="M666 -504h-49.9961h-41c-24.667 0.666992 -53.834 2.83398 -87.501 6.50098s-61.667 10.167 -84 19.5s-44 21.333 -65 36s-36.833 34.5 -47.5 59.5s-16 53.833 -16 86.5c0 57.333 17.833 115.5 53.5 174.5s78.5 104.5 128.5 136.5h143
c-6.66699 -16.667 -19.667 -43.5 -39 -80.5s-35 -71.333 -47 -103s-18 -61.834 -18 -90.501c0 -13.333 2.16699 -25.166 6.5 -35.499s9.66602 -18.833 15.999 -25.5s15 -12.334 26 -17.001s20.667 -8 29 -10s19.666 -3.66699 33.999 -5s25.333 -2 33 -2
s18.667 0.166992 33 0.5s23.166 0.5 26.499 0.5zM390.004 723h181v116c0 50.667 -7.5 87 -22.5 109s-38.5 33 -70.5 33s-54.667 -12.5 -68 -37.5s-20 -68.833 -20 -131.5v-89zM480.004 -20c-132.667 0 -232.001 36.1699 -298.001 108.503s-99 176.166 -99 311.499v383
c0 135.333 33.333 239.166 100 311.499s165.334 108.5 296.001 108.5c134 0 231.167 -36.167 291.5 -108.5s90.5 -179.833 90.5 -322.5v-198h-471v-194c0 -58.667 6 -102.834 18 -132.501s35.667 -44.5 71 -44.5c61.333 0 92 44.333 92 133v110h289v-96
c0 -120 -32.667 -211.667 -98 -275s-159.333 -95 -282 -95z" />
    <glyph glyph-name="Ecaron" unicode="&#x11a;" 
d="M334 1801l-177 374h221l107 -226l108 226h222l-181 -374h-300zM123 0v1658h722v-234h-385v-439h299v-236h-299v-519h389v-230h-726z" />
    <glyph glyph-name="ecaron" unicode="&#x11b;" horiz-adv-x="940" 
d="M320 1325l-177 374h221l107 -226l108 226h222l-181 -374h-300zM390 723h181v116c0 50.667 -7.5 87 -22.5 109s-38.5 33 -70.5 33s-54.667 -12.5 -68 -37.5s-20 -68.833 -20 -131.5v-89zM480 -20c-132.667 0 -232.001 36.1699 -298.001 108.503s-99 176.166 -99 311.499
v383c0 135.333 33.333 239.166 100 311.499s165.334 108.5 296.001 108.5c134 0 231.167 -36.167 291.5 -108.5s90.5 -179.833 90.5 -322.5v-198h-471v-194c0 -58.667 6 -102.834 18 -132.501s35.667 -44.5 71 -44.5c61.333 0 92 44.333 92 133v110h289v-96
c0 -120 -32.667 -211.667 -98 -275s-159.333 -95 -282 -95z" />
    <glyph glyph-name="Gcircumflex" unicode="&#x11c;" horiz-adv-x="1169" 
d="M257 1801l189 382h265l193 -382h-228l-96 241l-96 -241h-227zM548 -23c-82 0 -152.333 13.334 -211 40.001s-105.334 65.667 -140.001 117s-59.834 111.166 -75.501 179.499s-23.5 147.833 -23.5 238.5v546c0 74.667 4.83301 141 14.5 199s26.167 111.5 49.5 160.5
s53.333 89.333 90 121s82.834 56.334 138.501 74.001s120.167 26.5 193.5 26.5c86.667 0 161 -10.833 223 -32.5s111.167 -54.167 147.5 -97.5s62.666 -94 78.999 -152s24.5 -126 24.5 -204v-94h-327v112c0 30.667 -0.666992 55.667 -2 75s-4.66602 39.5 -9.99902 60.5
s-13 37.5 -23 49.5s-23.833 21.833 -41.5 29.5s-39.5 11.5 -65.5 11.5c-27.333 0 -50.333 -4.83301 -69 -14.5s-33 -21.334 -43 -35.001s-17.833 -32.834 -23.5 -57.501s-9 -46.667 -10 -66s-1.5 -44.666 -1.5 -75.999v-719c0 -80.667 11 -142 33 -184s63 -63 123 -63
c60.667 0 102.834 22.5 126.501 67.5s35.5 109.167 35.5 192.5v163h-163v208h467v-853h-221l-22 152c-50 -116.667 -141 -175 -273 -175z" />
    <glyph glyph-name="gcircumflex" unicode="&#x11d;" horiz-adv-x="990" 
d="M209 1366l189 382h265l193 -382h-228l-96 241l-96 -241h-227zM485 556c42 0 69.333 16.335 82 49.002s19 91.667 19 177c0 36 -0.5 64.667 -1.5 86s-3.33301 42.333 -7 63s-9.16699 36.167 -16.5 46.5s-17.166 18.666 -29.499 24.999s-27.5 9.5 -45.5 9.5
c-18.667 0 -34.167 -3.33301 -46.5 -10s-22 -15.334 -29 -26.001s-12.333 -26.5 -16 -47.5s-6 -42 -7 -63s-1.5 -48.833 -1.5 -83.5c0 -39.333 1.16699 -71.5 3.5 -96.5s6.83301 -48 13.5 -69s16.667 -36.333 30 -46s30.666 -14.5 51.999 -14.5zM534 -152.998
c55.333 0 95.833 6.33398 121.5 19.001s39.5 33.667 41.5 63c0.666992 5.33301 1 10.333 1 15c0 28 -8.33301 48.667 -25 62c-19.333 16 -54.333 26.667 -105 32l-183 19c-35.333 -46.667 -53 -87.667 -53 -123c0 -30.667 14 -52.834 42 -66.501s81.333 -20.5 160 -20.5z
M535 -356.997c-39.333 0 -74.501 0.668945 -105.501 2.00195s-66.833 4.16602 -107.5 8.49902s-75.667 11.5 -105 21.5s-57.5 22.5 -84.5 37.5s-47.667 34.833 -62 59.5s-21.5 53 -21.5 85c0 88 55.667 168.667 167 242c-46 16.667 -79.667 36 -101 58
s-33.666 47.333 -36.999 76c-1.33301 9.33301 -2 18 -2 26c0 32.667 9.33301 62.334 28 89.001c23.333 33.333 61.333 71 114 113c-42.667 32 -75 72 -97 120s-33 111 -33 189c0 146 34 254.667 102 326s164.667 107 290 107s213 -36 263 -108c48.667 56 102 98.667 160 128
l42 21l72 -161c-22 -6 -55.5 -18.333 -100.5 -37s-78.167 -34.334 -99.5 -47.001c14.667 -23.333 27.334 -55.666 38.001 -96.999s16 -85.333 16 -132c0 -128 -30.333 -227.667 -91 -299s-154.667 -107 -282 -107c-26.667 0 -57.5 3.16699 -92.5 9.5
s-60.833 13.166 -77.5 20.499c-22.667 -29.333 -34 -54 -34 -74v-6c2.66699 -22.667 38.667 -38.334 108 -47.001c12.667 -2.66699 50 -7.5 112 -14.5s103.667 -12.167 125 -15.5c107.333 -12.667 184.166 -42 230.499 -88s69.5 -112 69.5 -198
c0 -101.333 -31 -178 -93 -230s-165.667 -78 -311 -78z" />
    <glyph glyph-name="Gbreve" unicode="&#x11e;" horiz-adv-x="1169" 
d="M581 1801c-95.333 0 -167.833 24.167 -217.5 72.5s-74.5 114.833 -74.5 199.5h144c0 -48 11.833 -82.833 35.5 -104.5s61.167 -32.5 112.5 -32.5s88.833 11 112.5 33s35.5 56.667 35.5 104h144c0 -84.667 -24.667 -151.167 -74 -199.5s-122 -72.5 -218 -72.5zM548 -23
c-82 0 -152.333 13.334 -211 40.001s-105.334 65.667 -140.001 117s-59.834 111.166 -75.501 179.499s-23.5 147.833 -23.5 238.5v546c0 74.667 4.83301 141 14.5 199s26.167 111.5 49.5 160.5s53.333 89.333 90 121s82.834 56.334 138.501 74.001s120.167 26.5 193.5 26.5
c86.667 0 161 -10.833 223 -32.5s111.167 -54.167 147.5 -97.5s62.666 -94 78.999 -152s24.5 -126 24.5 -204v-94h-327v112c0 30.667 -0.666992 55.667 -2 75s-4.66602 39.5 -9.99902 60.5s-13 37.5 -23 49.5s-23.833 21.833 -41.5 29.5s-39.5 11.5 -65.5 11.5
c-27.333 0 -50.333 -4.83301 -69 -14.5s-33 -21.334 -43 -35.001s-17.833 -32.834 -23.5 -57.501s-9 -46.667 -10 -66s-1.5 -44.666 -1.5 -75.999v-719c0 -80.667 11 -142 33 -184s63 -63 123 -63c60.667 0 102.834 22.5 126.501 67.5s35.5 109.167 35.5 192.5v163h-163v208
h467v-853h-221l-22 152c-50 -116.667 -141 -175 -273 -175z" />
    <glyph glyph-name="gbreve" unicode="&#x11f;" horiz-adv-x="990" 
d="M533 1366c-95.333 0 -167.833 24.167 -217.5 72.5s-74.5 114.833 -74.5 199.5h144c0 -48 11.833 -82.833 35.5 -104.5s61.167 -32.5 112.5 -32.5s88.833 11 112.5 33s35.5 56.667 35.5 104h144c0 -84.667 -24.667 -151.167 -74 -199.5s-122 -72.5 -218 -72.5zM485 556
c42 0 69.333 16.335 82 49.002s19 91.667 19 177c0 36 -0.5 64.667 -1.5 86s-3.33301 42.333 -7 63s-9.16699 36.167 -16.5 46.5s-17.166 18.666 -29.499 24.999s-27.5 9.5 -45.5 9.5c-18.667 0 -34.167 -3.33301 -46.5 -10s-22 -15.334 -29 -26.001
s-12.333 -26.5 -16 -47.5s-6 -42 -7 -63s-1.5 -48.833 -1.5 -83.5c0 -39.333 1.16699 -71.5 3.5 -96.5s6.83301 -48 13.5 -69s16.667 -36.333 30 -46s30.666 -14.5 51.999 -14.5zM534 -152.998c55.333 0 95.833 6.33398 121.5 19.001s39.5 33.667 41.5 63
c0.666992 5.33301 1 10.333 1 15c0 28 -8.33301 48.667 -25 62c-19.333 16 -54.333 26.667 -105 32l-183 19c-35.333 -46.667 -53 -87.667 -53 -123c0 -30.667 14 -52.834 42 -66.501s81.333 -20.5 160 -20.5zM535 -356.997c-39.333 0 -74.501 0.668945 -105.501 2.00195
s-66.833 4.16602 -107.5 8.49902s-75.667 11.5 -105 21.5s-57.5 22.5 -84.5 37.5s-47.667 34.833 -62 59.5s-21.5 53 -21.5 85c0 88 55.667 168.667 167 242c-46 16.667 -79.667 36 -101 58s-33.666 47.333 -36.999 76c-1.33301 9.33301 -2 18 -2 26
c0 32.667 9.33301 62.334 28 89.001c23.333 33.333 61.333 71 114 113c-42.667 32 -75 72 -97 120s-33 111 -33 189c0 146 34 254.667 102 326s164.667 107 290 107s213 -36 263 -108c48.667 56 102 98.667 160 128l42 21l72 -161c-22 -6 -55.5 -18.333 -100.5 -37
s-78.167 -34.334 -99.5 -47.001c14.667 -23.333 27.334 -55.666 38.001 -96.999s16 -85.333 16 -132c0 -128 -30.333 -227.667 -91 -299s-154.667 -107 -282 -107c-26.667 0 -57.5 3.16699 -92.5 9.5s-60.833 13.166 -77.5 20.499c-22.667 -29.333 -34 -54 -34 -74v-6
c2.66699 -22.667 38.667 -38.334 108 -47.001c12.667 -2.66699 50 -7.5 112 -14.5s103.667 -12.167 125 -15.5c107.333 -12.667 184.166 -42 230.499 -88s69.5 -112 69.5 -198c0 -101.333 -31 -178 -93 -230s-165.667 -78 -311 -78z" />
    <glyph glyph-name="Gdotaccent" unicode="&#x120;" horiz-adv-x="1169" 
d="M433 1801v298h296v-298h-296zM548 -23c-82 0 -152.333 13.334 -211 40.001s-105.334 65.667 -140.001 117s-59.834 111.166 -75.501 179.499s-23.5 147.833 -23.5 238.5v546c0 74.667 4.83301 141 14.5 199s26.167 111.5 49.5 160.5s53.333 89.333 90 121
s82.834 56.334 138.501 74.001s120.167 26.5 193.5 26.5c86.667 0 161 -10.833 223 -32.5s111.167 -54.167 147.5 -97.5s62.666 -94 78.999 -152s24.5 -126 24.5 -204v-94h-327v112c0 30.667 -0.666992 55.667 -2 75s-4.66602 39.5 -9.99902 60.5s-13 37.5 -23 49.5
s-23.833 21.833 -41.5 29.5s-39.5 11.5 -65.5 11.5c-27.333 0 -50.333 -4.83301 -69 -14.5s-33 -21.334 -43 -35.001s-17.833 -32.834 -23.5 -57.501s-9 -46.667 -10 -66s-1.5 -44.666 -1.5 -75.999v-719c0 -80.667 11 -142 33 -184s63 -63 123 -63
c60.667 0 102.834 22.5 126.501 67.5s35.5 109.167 35.5 192.5v163h-163v208h467v-853h-221l-22 152c-50 -116.667 -141 -175 -273 -175z" />
    <glyph glyph-name="gdotaccent" unicode="&#x121;" horiz-adv-x="990" 
d="M385 1366v298h296v-298h-296zM485 556c42 0 69.333 16.335 82 49.002s19 91.667 19 177c0 36 -0.5 64.667 -1.5 86s-3.33301 42.333 -7 63s-9.16699 36.167 -16.5 46.5s-17.166 18.666 -29.499 24.999s-27.5 9.5 -45.5 9.5c-18.667 0 -34.167 -3.33301 -46.5 -10
s-22 -15.334 -29 -26.001s-12.333 -26.5 -16 -47.5s-6 -42 -7 -63s-1.5 -48.833 -1.5 -83.5c0 -39.333 1.16699 -71.5 3.5 -96.5s6.83301 -48 13.5 -69s16.667 -36.333 30 -46s30.666 -14.5 51.999 -14.5zM534 -152.998c55.333 0 95.833 6.33398 121.5 19.001
s39.5 33.667 41.5 63c0.666992 5.33301 1 10.333 1 15c0 28 -8.33301 48.667 -25 62c-19.333 16 -54.333 26.667 -105 32l-183 19c-35.333 -46.667 -53 -87.667 -53 -123c0 -30.667 14 -52.834 42 -66.501s81.333 -20.5 160 -20.5zM535 -356.997
c-39.333 0 -74.501 0.668945 -105.501 2.00195s-66.833 4.16602 -107.5 8.49902s-75.667 11.5 -105 21.5s-57.5 22.5 -84.5 37.5s-47.667 34.833 -62 59.5s-21.5 53 -21.5 85c0 88 55.667 168.667 167 242c-46 16.667 -79.667 36 -101 58s-33.666 47.333 -36.999 76
c-1.33301 9.33301 -2 18 -2 26c0 32.667 9.33301 62.334 28 89.001c23.333 33.333 61.333 71 114 113c-42.667 32 -75 72 -97 120s-33 111 -33 189c0 146 34 254.667 102 326s164.667 107 290 107s213 -36 263 -108c48.667 56 102 98.667 160 128l42 21l72 -161
c-22 -6 -55.5 -18.333 -100.5 -37s-78.167 -34.334 -99.5 -47.001c14.667 -23.333 27.334 -55.666 38.001 -96.999s16 -85.333 16 -132c0 -128 -30.333 -227.667 -91 -299s-154.667 -107 -282 -107c-26.667 0 -57.5 3.16699 -92.5 9.5s-60.833 13.166 -77.5 20.499
c-22.667 -29.333 -34 -54 -34 -74v-6c2.66699 -22.667 38.667 -38.334 108 -47.001c12.667 -2.66699 50 -7.5 112 -14.5s103.667 -12.167 125 -15.5c107.333 -12.667 184.166 -42 230.499 -88s69.5 -112 69.5 -198c0 -101.333 -31 -178 -93 -230s-165.667 -78 -311 -78z" />
    <glyph glyph-name="Gcommaaccent" unicode="&#x122;" horiz-adv-x="1169" 
d="M490 -704l-35.999 114.998c43.333 4.66699 77.166 18.334 101.499 41.001s36.5 59.334 36.5 110.001h-159v293h295l-1 -257c-0.666992 -98.667 -19.5 -173.5 -56.5 -224.5s-97.167 -76.833 -180.5 -77.5zM548.001 -23.002c-82 0 -152.333 13.334 -211 40.001
s-105.334 65.667 -140.001 117s-59.834 111.166 -75.501 179.499s-23.5 147.833 -23.5 238.5v546c0 74.667 4.83301 141 14.5 199s26.167 111.5 49.5 160.5s53.333 89.333 90 121s82.834 56.334 138.501 74.001s120.167 26.5 193.5 26.5c86.667 0 161 -10.833 223 -32.5
s111.167 -54.167 147.5 -97.5s62.666 -94 78.999 -152s24.5 -126 24.5 -204v-94h-327v112c0 30.667 -0.666992 55.667 -2 75s-4.66602 39.5 -9.99902 60.5s-13 37.5 -23 49.5s-23.833 21.833 -41.5 29.5s-39.5 11.5 -65.5 11.5c-27.333 0 -50.333 -4.83301 -69 -14.5
s-33 -21.334 -43 -35.001s-17.833 -32.834 -23.5 -57.501s-9 -46.667 -10 -66s-1.5 -44.666 -1.5 -75.999v-719c0 -80.667 11 -142 33 -184s63 -63 123 -63c60.667 0 102.834 22.5 126.501 67.5s35.5 109.167 35.5 192.5v163h-163v208h467v-853h-221l-22 152
c-50 -116.667 -141 -175 -273 -175z" />
    <glyph glyph-name="gcommaaccent" unicode="&#x123;" horiz-adv-x="901" 
d="M499 547c26 0 47.3301 5.83496 63.9971 17.502s28.834 29.5 36.501 53.5s12.834 48.833 15.501 74.5s4 58.167 4 97.5s-1.33301 71.833 -4 97.5s-8 50.167 -16 73.5s-20.5 40.5 -37.5 51.5s-38.5 16.5 -64.5 16.5c-20.667 0 -38.5 -4.66699 -53.5 -14
s-26.5 -21 -34.5 -35s-14.167 -32.5 -18.5 -55.5s-7 -44.167 -8 -63.5s-1.5 -43 -1.5 -71c0 -30 0.666992 -55.5 2 -76.5s4.33301 -42.833 9 -65.5s11.167 -40.834 19.5 -54.501s19.833 -24.834 34.5 -33.501s32.334 -13 53.001 -13zM518.997 -186.998
c128 0 194.333 30.332 199 90.999c0.666992 6.66699 1 13 1 19c0 28.667 -9.33301 50.667 -28 66c-22.667 18.667 -66 33.667 -130 45l-157 25c-55.333 -55.333 -83 -102.666 -83 -141.999c0 -69.333 66 -104 198 -104zM401.997 1485v242c0 198.667 82 306 246 322l15 -90
c-90.667 -34.667 -136 -95.667 -136 -183h163v-291h-288zM518.997 -365.999c-36 0 -70.499 1.16602 -103.499 3.49902s-68.667 6.5 -107 12.5s-73 14.667 -104 26s-59.5 25.333 -85.5 42s-46.333 38 -61 64s-22 55.333 -22 88c0 72 61.333 150.667 184 236
c-51.333 19.333 -89.833 38.333 -115.5 57s-40.834 39.667 -45.501 63c-2 10 -3 20 -3 30c0 33.333 11 65.333 33 96c28.667 40 68.667 82 120 126c-89.333 63.333 -134 162 -134 296c0 136.667 36.667 242.834 110 318.501s175.666 113.5 306.999 113.5
c58.667 0 112.5 -10.167 161.5 -30.5s87.5 -47.5 115.5 -81.5c50.667 64.667 104.334 111 161.001 139l42 21l71 -142c-22 -6.66699 -52 -20.667 -90 -42s-73 -43.333 -105 -66c40.667 -57.333 61 -133 61 -227c0 -126 -33.167 -225.167 -99.5 -297.5
s-163.833 -108.5 -292.5 -108.5c-74 0 -140.333 13 -199 39c-40 -52 -60 -89.333 -60 -112v-6c2.66699 -13.333 39.334 -27 110.001 -41c5.33301 -1.33301 93.666 -16 264.999 -44c120 -20 204.333 -51.333 253 -94s73 -103 73 -181c0 -90.667 -35.667 -163 -107 -217
s-182.333 -81 -333 -81z" />
    <glyph glyph-name="Hcircumflex" unicode="&#x124;" horiz-adv-x="1224" 
d="M289 1801l189 382h265l193 -382h-228l-96 241l-96 -241h-227zM128 0v1658h338v-680h292v680h338v-1658h-338v737h-292v-737h-338z" />
    <glyph glyph-name="hcircumflex" unicode="&#x125;" horiz-adv-x="1014" 
d="M189 1780l189 382h265l193 -382h-228l-96 241l-96 -241h-227zM108 0l-0.000976562 1658h310v-584c88 86 185 129 291 129c68.667 0 120.334 -25.167 155.001 -75.5s52 -113.833 52 -190.5v-937h-309v882c0 32.667 -5 57 -15 73c-9.33301 15.333 -27.333 23 -54 23h-3
c-31.333 0 -70.333 -16.667 -117 -50v-928h-310z" />
    <glyph glyph-name="Hbar" unicode="&#x126;" horiz-adv-x="1121" 
d="M428 978h281v280h-281v-280zM90 0v1258h-103v120h103v280h338v-280h281v280h338v-280h86v-120h-86v-1258h-338v737h-281v-737h-338z" />
    <glyph glyph-name="hbar" unicode="&#x127;" horiz-adv-x="1015" 
d="M110 0l-0.000976562 1384h-105v148h105v126h309v-126h243v-148h-243v-310c88 86 185 129 291 129c68.667 0 120.334 -25.167 155.001 -75.5s52 -113.833 52 -190.5v-937h-309v882c0 32.667 -5 57 -15 73c-9.33301 15.333 -27.333 23 -54 23h-3
c-31.333 0 -70.333 -16.667 -117 -50v-928h-309z" />
    <glyph glyph-name="Itilde" unicode="&#x128;" horiz-adv-x="591" 
d="M473 1801l-7.00098 0.000976562c-27.333 0 -58.666 7.33301 -93.999 22c-38.667 16 -75.5 32.667 -110.5 50s-61.833 26 -80.5 26c-36 0 -54 -28 -54 -84h-154c0 86.667 12.5 153.334 37.5 200.001s70.167 72 135.5 76h13c30 0 61.667 -6 95 -18
c37.333 -14.667 71.333 -30.334 102 -47.001s52.334 -25.667 65.001 -27c19.333 -2.66699 33.166 3 41.499 17s12.5 34.333 12.5 61h144v-7c0 -174.667 -48.667 -264.334 -146 -269.001zM128.999 0.000976562v1658h335v-1658h-335z" />
    <glyph glyph-name="itilde" unicode="&#x129;" horiz-adv-x="548" 
d="M453 1325l-7.00098 0.000976562c-27.333 0 -58.666 7.33301 -93.999 22c-38.667 16 -75.5 32.667 -110.5 50s-61.833 26 -80.5 26c-36 0 -54 -28 -54 -84h-154c0 86.667 12.5 153.334 37.5 200.001s70.167 72 135.5 76h13c30 0 61.667 -6 95 -18
c37.333 -14.667 71.333 -30.334 102 -47.001s52.334 -25.667 65.001 -27c19.333 -2.66699 33.166 3 41.499 17s12.5 34.333 12.5 61h144v-7c0 -174.667 -48.667 -264.334 -146 -269.001zM121.999 0.000976562v1184h309v-1184h-309z" />
    <glyph glyph-name="Imacron" unicode="&#x12a;" horiz-adv-x="591" 
d="M36 1801v153h521v-153h-521zM129 0v1658h335v-1658h-335z" />
    <glyph glyph-name="imacron" unicode="&#x12b;" horiz-adv-x="548" 
d="M16 1325v153h521v-153h-521zM122 0v1184h309v-1184h-309z" />
    <glyph glyph-name="Ibreve" unicode="&#x12c;" horiz-adv-x="591" 
d="M296 1801c-95.333 0 -167.833 24.167 -217.5 72.5s-74.5 114.833 -74.5 199.5h144c0 -48 11.833 -82.833 35.5 -104.5s61.167 -32.5 112.5 -32.5s88.833 11 112.5 33s35.5 56.667 35.5 104h144c0 -84.667 -24.667 -151.167 -74 -199.5s-122 -72.5 -218 -72.5zM129 0v1658
h335v-1658h-335z" />
    <glyph glyph-name="ibreve" unicode="&#x12d;" horiz-adv-x="548" 
d="M276 1325c-95.333 0 -167.833 24.167 -217.5 72.5s-74.5 114.833 -74.5 199.5h144c0 -48 11.833 -82.833 35.5 -104.5s61.167 -32.5 112.5 -32.5s88.833 11 112.5 33s35.5 56.667 35.5 104h144c0 -84.667 -24.667 -151.167 -74 -199.5s-122 -72.5 -218 -72.5zM122 0v1184
h309v-1184h-309z" />
    <glyph glyph-name="Iogonek" unicode="&#x12e;" horiz-adv-x="591" 
d="M506 -504h-49.9961h-41c-24.667 0.666992 -53.834 2.83398 -87.501 6.50098s-61.667 10.167 -84 19.5s-44 21.333 -65 36s-36.833 34.5 -47.5 59.5s-16 53.833 -16 86.5c0 57.333 17.833 115.5 53.5 174.5s78.5 104.5 128.5 136.5h143
c-6.66699 -16.667 -19.667 -43.5 -39 -80.5s-35 -71.333 -47 -103s-18 -61.834 -18 -90.501c0 -13.333 2.16699 -25.166 6.5 -35.499s9.66602 -18.833 15.999 -25.5s15 -12.334 26 -17.001s20.667 -8 29 -10s19.666 -3.66699 33.999 -5s25.333 -2 33 -2
s18.667 0.166992 33 0.5s23.166 0.5 26.499 0.5zM129.004 0v1658h335v-1658h-335z" />
    <glyph glyph-name="iogonek" unicode="&#x12f;" horiz-adv-x="529" 
d="M421 -504h-49.9961h-41c-24.667 0.666992 -53.834 2.83398 -87.501 6.50098s-61.667 10.167 -84 19.5s-44 21.333 -65 36s-36.833 34.5 -47.5 59.5s-16 53.833 -16 86.5c0 57.333 17.833 115.5 53.5 174.5s78.5 104.5 128.5 136.5h143
c-6.66699 -16.667 -19.667 -43.5 -39 -80.5s-35 -71.333 -47 -103s-18 -61.834 -18 -90.501c0 -13.333 2.16699 -25.166 6.5 -35.499s9.66602 -18.833 15.999 -25.5s15 -12.334 26 -17.001s20.667 -8 29 -10s19.666 -3.66699 33.999 -5s25.333 -2 33 -2
s18.667 0.166992 33 0.5s23.166 0.5 26.499 0.5zM110.004 1378v235h311v-235h-311zM111.004 0v1184h309v-1184h-309z" />
    <glyph glyph-name="Idotaccent" unicode="&#x130;" horiz-adv-x="591" 
d="M148 1801v298h296v-298h-296zM129 0v1658h335v-1658h-335z" />
    <glyph glyph-name="dotlessi" unicode="&#x131;" horiz-adv-x="548" 
d="M122 0v1184h309v-1184h-309z" />
    <glyph glyph-name="ij" unicode="&#x133;" horiz-adv-x="1073" 
d="M661 1378v235h311v-235h-311zM505 -325l-0.000976562 222c26.667 -4.66699 46.334 -7 59.001 -7c65.333 0 98 36 98 108v1186h309v-1222c0 -94.667 -26.5 -170 -79.5 -226s-127.5 -84 -223.5 -84c-56 0 -110.333 7.66699 -163 23zM109.999 1378v235h311v-235h-311z
M110.999 0v1184h309v-1184h-309z" />
    <glyph glyph-name="Jcircumflex" unicode="&#x134;" horiz-adv-x="693" 
d="M100 1832l189 382h265l193 -382h-228l-96 241l-96 -241h-227zM23 -38l-0.000976562 236.002h7c78.667 0 131.667 12 159 36c28.667 24 43 74.333 43 151v1273h338l-1 -1285c-1.33301 -72 -8 -132.333 -20 -181s-32.5 -90.834 -61.5 -126.501
s-68.167 -61.834 -117.5 -78.501s-110.666 -25 -183.999 -25h-163z" />
    <glyph glyph-name="jcircumflex" unicode="&#x135;" horiz-adv-x="533" 
d="M-33 1338l189 382h265l193 -382h-228l-96 241l-96 -241h-227zM-27 -339l-0.000976562 222c26.667 -4.66699 46.334 -7 59.001 -7c64.667 0 97 36.333 97 109v1199h310v-1236c0 -94.667 -26.5 -170 -79.5 -226s-127.5 -84 -223.5 -84c-56 0 -110.333 7.66699 -163 23z" />
    <glyph glyph-name="Kcommaaccent" unicode="&#x136;" horiz-adv-x="1127" 
d="M526 -681l-35.999 114.998c43.333 4.66699 77.166 18.334 101.499 41.001s36.5 59.334 36.5 110.001h-159v293h295l-1 -257c-0.666992 -98.667 -19.5 -173.5 -56.5 -224.5s-97.167 -76.833 -180.5 -77.5zM123.001 -0.00195312v1658h337v-695l301 695h326l-311 -746
l334 -912h-341l-262 759l-47 -80v-679h-337z" />
    <glyph glyph-name="kcommaaccent" unicode="&#x137;" horiz-adv-x="1051" 
d="M488 -681l-35.999 114.998c43.333 4.66699 77.166 18.334 101.499 41.001s36.5 59.334 36.5 110.001h-159v293h295l-1 -257c-0.666992 -98.667 -19.5 -173.5 -56.5 -224.5s-97.167 -76.833 -180.5 -77.5zM108.001 0.998047v1658h307v-932l290 457h343l-302 -480l298 -704
h-332l-208 571l-89 -119v-451h-307z" />
    <glyph glyph-name="kgreenlandic" unicode="&#x138;" horiz-adv-x="999" 
d="M106 0v1184h309v-494l245 494h328l-247 -506l251 -678h-323l-184 553l-70 -102v-451h-309z" />
    <glyph glyph-name="Lacute" unicode="&#x139;" horiz-adv-x="885" 
d="M206 1801l124 411h315l-253 -411h-186zM123 0v1658h337v-1428h387v-230h-724z" />
    <glyph glyph-name="lacute" unicode="&#x13a;" horiz-adv-x="542" 
d="M183 1780l124 411h315l-253 -411h-186zM121 0v1658h310v-1658h-310z" />
    <glyph glyph-name="Lcommaaccent" unicode="&#x13b;" horiz-adv-x="885" 
d="M394 -681l-35.999 114.998c43.333 4.66699 77.166 18.334 101.499 41.001s36.5 59.334 36.5 110.001h-159v293h295l-1 -257c-0.666992 -98.667 -19.5 -173.5 -56.5 -224.5s-97.167 -76.833 -180.5 -77.5zM123.001 -0.00195312v1658h337v-1428h387v-230h-724z" />
    <glyph glyph-name="lcommaaccent" unicode="&#x13c;" horiz-adv-x="542" 
d="M186 -681l-35.999 114.998c43.333 4.66699 77.166 18.334 101.499 41.001s36.5 59.334 36.5 110.001h-159v293h295l-1 -257c-0.666992 -98.667 -19.5 -173.5 -56.5 -224.5s-97.167 -76.833 -180.5 -77.5zM121.001 -0.00195312v1658h310v-1658h-310z" />
    <glyph glyph-name="Lcaron" unicode="&#x13d;" horiz-adv-x="952" 
d="M680 1090v589h258l-104 -589h-154zM123 0v1658h337v-1428h387v-230h-724z" />
    <glyph glyph-name="lcaron" unicode="&#x13e;" horiz-adv-x="673" 
d="M584 1069v589h258l-104 -589h-154zM121 0v1658h310v-1658h-310z" />
    <glyph glyph-name="Ldot" unicode="&#x13f;" horiz-adv-x="970" 
d="M653 694v291h295v-291h-295zM123 0v1658h337v-1428h387v-230h-724z" />
    <glyph glyph-name="ldot" unicode="&#x140;" horiz-adv-x="973" 
d="M611 625v291h295v-291h-295zM121 0v1658h310v-1658h-310z" />
    <glyph glyph-name="Lslash" unicode="&#x141;" 
d="M135 0v740l-128 -65v201l128 64v718h337v-553l204 102v-200l-204 -102v-675h387v-230h-724z" />
    <glyph glyph-name="lslash" unicode="&#x142;" horiz-adv-x="649" 
d="M174 0v842l-137 -61v188l137 60v629h310v-494l148 65v-187l-148 -65v-977h-310z" />
    <glyph glyph-name="Nacute" unicode="&#x143;" horiz-adv-x="1131" 
d="M473 1801l124 411h315l-253 -411h-186zM123 0v1658h235l370 -861v861h280v-1658h-225l-372 916v-916h-288z" />
    <glyph glyph-name="nacute" unicode="&#x144;" horiz-adv-x="1008" 
d="M415 1325l124 411h315l-253 -411h-186zM106 0l-0.000976562 1184h309v-117c95.333 90.667 191.333 136 288 136c68.667 0 120.334 -25.167 155.001 -75.5s52 -113.833 52 -190.5v-937h-310v882c0 32.667 -5 57 -15 73s-28.667 23.667 -56 23c-32 0 -70 -15.667 -114 -47
v-931h-309z" />
    <glyph glyph-name="Ncommaaccent" unicode="&#x145;" horiz-adv-x="1131" 
d="M475 -681l-35.999 114.998c43.333 4.66699 77.166 18.334 101.499 41.001s36.5 59.334 36.5 110.001h-159v293h295l-1 -257c-0.666992 -98.667 -19.5 -173.5 -56.5 -224.5s-97.167 -76.833 -180.5 -77.5zM123.001 -0.00195312v1658h235l370 -861v861h280v-1658h-225
l-372 916v-916h-288z" />
    <glyph glyph-name="ncommaaccent" unicode="&#x146;" horiz-adv-x="1008" 
d="M418 -681l-35.999 114.998c43.333 4.66699 77.166 18.334 101.499 41.001s36.5 59.334 36.5 110.001h-159v293h295l-1 -257c-0.666992 -98.667 -19.5 -173.5 -56.5 -224.5s-97.167 -76.833 -180.5 -77.5zM106.001 -0.00195312l-0.000976562 1184h309v-117
c95.333 90.667 191.333 136 288 136c68.667 0 120.334 -25.167 155.001 -75.5s52 -113.833 52 -190.5v-937h-310v882c0 32.667 -5 57 -15 73s-28.667 23.667 -56 23c-32 0 -70 -15.667 -114 -47v-931h-309z" />
    <glyph glyph-name="Ncaron" unicode="&#x147;" horiz-adv-x="1131" 
d="M414 1801l-177 374h221l107 -226l108 226h222l-181 -374h-300zM123 0v1658h235l370 -861v861h280v-1658h-225l-372 916v-916h-288z" />
    <glyph glyph-name="ncaron" unicode="&#x148;" horiz-adv-x="1008" 
d="M356 1325l-177 374h221l107 -226l108 226h222l-181 -374h-300zM106 0l-0.000976562 1184h309v-117c95.333 90.667 191.333 136 288 136c68.667 0 120.334 -25.167 155.001 -75.5s52 -113.833 52 -190.5v-937h-310v882c0 32.667 -5 57 -15 73s-28.667 23.667 -56 23
c-32 0 -70 -15.667 -114 -47v-931h-309z" />
    <glyph glyph-name="napostrophe" unicode="&#x149;" horiz-adv-x="1008" 
d="M106 0l-0.000976562 1184h309v-117c95.333 90.667 191.333 136 288 136c68.667 0 120.334 -25.167 155.001 -75.5s52 -113.833 52 -190.5v-937h-310v882c0 32.667 -5 57 -15 73s-28.667 23.667 -56 23c-32 0 -70 -15.667 -114 -47v-931h-309zM105.999 1393v589h258
l-104 -589h-154z" />
    <glyph glyph-name="Eng" unicode="&#x14a;" horiz-adv-x="1142" 
d="M511 -419l-0.000976562 206h6c90.667 0 152 14 184 42c32.667 28.667 49 81 49 157v156l-340 774v-916h-282v1658h236l376 -861v861h274v-1658c0 -72.667 -5.5 -133.5 -16.5 -182.5s-30 -92 -57 -129s-64.667 -64.167 -113 -81.5s-109.166 -26 -182.499 -26h-134z" />
    <glyph glyph-name="eng" unicode="&#x14b;" horiz-adv-x="926" 
d="M350 -397v203c64.667 0 113.5 6 146.5 18s55.333 30.5 67 55.5s17.5 61.833 17.5 110.5v892c0 32.667 -5 57 -15 73c-9.33301 15.333 -27.333 23 -54 23h-3c-31.333 0 -69 -15.667 -113 -47v-931h-310v1184h310v-107c87.333 84 183.333 126 288 126
c68.667 0 120.167 -25.167 154.5 -75.5s51.5 -113.833 51.5 -190.5v-949c0 -135.333 -33.667 -233.333 -101 -294s-177.333 -91 -330 -91h-109z" />
    <glyph glyph-name="Omacron" unicode="&#x14c;" horiz-adv-x="1177" 
d="M328 1801v153h521v-153h-521zM587 -22c-90 0 -166.667 12.1689 -230 36.502s-113.833 60.666 -151.5 108.999s-65 105.166 -82 170.499s-25.5 142.333 -25.5 231v612c0 88.667 8.5 165.5 25.5 230.5s44.333 121.167 82 168.5s88.167 83 151.5 107s140 36 230 36
c175.333 0 301.166 -45.667 377.499 -137s114.5 -226.333 114.5 -405v-612c0 -178.667 -38.167 -314.5 -114.5 -407.5s-202.166 -139.5 -377.499 -139.5zM587 221.002c25.333 0 47.166 4.16699 65.499 12.5s32.666 18.833 42.999 31.5s18.5 29.334 24.5 50.001
s9.83301 40.5 11.5 59.5s2.5 41.833 2.5 68.5v776c0 26.667 -0.833008 49.5 -2.5 68.5s-5.5 38.5 -11.5 58.5s-14.167 36.167 -24.5 48.5s-24.666 22.5 -42.999 30.5s-40.166 12 -65.499 12s-47 -4 -65 -12s-32 -18.167 -42 -30.5s-17.833 -28.666 -23.5 -48.999
s-9.33398 -39.833 -11.001 -58.5s-2.5 -41.334 -2.5 -68.001v-776c0 -26.667 0.833008 -49.5 2.5 -68.5s5.33398 -38.833 11.001 -59.5s13.5 -37.334 23.5 -50.001s24 -23.167 42 -31.5s39.667 -12.5 65 -12.5z" />
    <glyph glyph-name="omacron" unicode="&#x14d;" horiz-adv-x="962" 
d="M221 1325v153h521v-153h-521zM479 -20c-128 0 -226 34.5 -294 103.5s-102 168.167 -102 297.5v422c0 128.667 34 227.5 102 296.5s166 103.5 294 103.5c128.667 0 227.5 -34.5 296.5 -103.5s103.5 -167.833 103.5 -296.5v-422c0 -128.667 -34.5 -227.667 -103.5 -297
s-167.833 -104 -296.5 -104zM480 192c36.667 0 61.334 14.168 74.001 42.501s19 69.833 19 124.5v465c0 55.333 -6.33301 97.166 -19 125.499s-37.334 42.5 -74.001 42.5c-36 0 -60.167 -14.5 -72.5 -43.5s-18.5 -70.5 -18.5 -124.5v-465c0 -54 6.16699 -95.333 18.5 -124
s36.5 -43 72.5 -43z" />
    <glyph glyph-name="Obreve" unicode="&#x14e;" horiz-adv-x="1177" 
d="M588 1801c-95.333 0 -167.833 24.167 -217.5 72.5s-74.5 114.833 -74.5 199.5h144c0 -48 11.833 -82.833 35.5 -104.5s61.167 -32.5 112.5 -32.5s88.833 11 112.5 33s35.5 56.667 35.5 104h144c0 -84.667 -24.667 -151.167 -74 -199.5s-122 -72.5 -218 -72.5zM587 -22
c-90 0 -166.667 12.1689 -230 36.502s-113.833 60.666 -151.5 108.999s-65 105.166 -82 170.499s-25.5 142.333 -25.5 231v612c0 88.667 8.5 165.5 25.5 230.5s44.333 121.167 82 168.5s88.167 83 151.5 107s140 36 230 36c175.333 0 301.166 -45.667 377.499 -137
s114.5 -226.333 114.5 -405v-612c0 -178.667 -38.167 -314.5 -114.5 -407.5s-202.166 -139.5 -377.499 -139.5zM587 221.002c25.333 0 47.166 4.16699 65.499 12.5s32.666 18.833 42.999 31.5s18.5 29.334 24.5 50.001s9.83301 40.5 11.5 59.5s2.5 41.833 2.5 68.5v776
c0 26.667 -0.833008 49.5 -2.5 68.5s-5.5 38.5 -11.5 58.5s-14.167 36.167 -24.5 48.5s-24.666 22.5 -42.999 30.5s-40.166 12 -65.499 12s-47 -4 -65 -12s-32 -18.167 -42 -30.5s-17.833 -28.666 -23.5 -48.999s-9.33398 -39.833 -11.001 -58.5s-2.5 -41.334 -2.5 -68.001
v-776c0 -26.667 0.833008 -49.5 2.5 -68.5s5.33398 -38.833 11.001 -59.5s13.5 -37.334 23.5 -50.001s24 -23.167 42 -31.5s39.667 -12.5 65 -12.5z" />
    <glyph glyph-name="obreve" unicode="&#x14f;" horiz-adv-x="962" 
d="M481 1325c-95.333 0 -167.833 24.167 -217.5 72.5s-74.5 114.833 -74.5 199.5h144c0 -48 11.833 -82.833 35.5 -104.5s61.167 -32.5 112.5 -32.5s88.833 11 112.5 33s35.5 56.667 35.5 104h144c0 -84.667 -24.667 -151.167 -74 -199.5s-122 -72.5 -218 -72.5zM479 -20
c-128 0 -226 34.5 -294 103.5s-102 168.167 -102 297.5v422c0 128.667 34 227.5 102 296.5s166 103.5 294 103.5c128.667 0 227.5 -34.5 296.5 -103.5s103.5 -167.833 103.5 -296.5v-422c0 -128.667 -34.5 -227.667 -103.5 -297s-167.833 -104 -296.5 -104zM480 192
c36.667 0 61.334 14.168 74.001 42.501s19 69.833 19 124.5v465c0 55.333 -6.33301 97.166 -19 125.499s-37.334 42.5 -74.001 42.5c-36 0 -60.167 -14.5 -72.5 -43.5s-18.5 -70.5 -18.5 -124.5v-465c0 -54 6.16699 -95.333 18.5 -124s36.5 -43 72.5 -43z" />
    <glyph glyph-name="Ohungarumlaut" unicode="&#x150;" horiz-adv-x="1177" 
d="M678 1801l128 420h278l-246 -420h-160zM339 1801l110 420h251l-204 -420h-157zM587 -22c-90 0 -166.667 12.1689 -230 36.502s-113.833 60.666 -151.5 108.999s-65 105.166 -82 170.499s-25.5 142.333 -25.5 231v612c0 88.667 8.5 165.5 25.5 230.5
s44.333 121.167 82 168.5s88.167 83 151.5 107s140 36 230 36c175.333 0 301.166 -45.667 377.499 -137s114.5 -226.333 114.5 -405v-612c0 -178.667 -38.167 -314.5 -114.5 -407.5s-202.166 -139.5 -377.499 -139.5zM587 221.002c25.333 0 47.166 4.16699 65.499 12.5
s32.666 18.833 42.999 31.5s18.5 29.334 24.5 50.001s9.83301 40.5 11.5 59.5s2.5 41.833 2.5 68.5v776c0 26.667 -0.833008 49.5 -2.5 68.5s-5.5 38.5 -11.5 58.5s-14.167 36.167 -24.5 48.5s-24.666 22.5 -42.999 30.5s-40.166 12 -65.499 12s-47 -4 -65 -12
s-32 -18.167 -42 -30.5s-17.833 -28.666 -23.5 -48.999s-9.33398 -39.833 -11.001 -58.5s-2.5 -41.334 -2.5 -68.001v-776c0 -26.667 0.833008 -49.5 2.5 -68.5s5.33398 -38.833 11.001 -59.5s13.5 -37.334 23.5 -50.001s24 -23.167 42 -31.5s39.667 -12.5 65 -12.5z" />
    <glyph glyph-name="ohungarumlaut" unicode="&#x151;" horiz-adv-x="962" 
d="M571 1325l128 420h278l-246 -420h-160zM232 1325l110 420h251l-204 -420h-157zM479 -20c-128 0 -226 34.5 -294 103.5s-102 168.167 -102 297.5v422c0 128.667 34 227.5 102 296.5s166 103.5 294 103.5c128.667 0 227.5 -34.5 296.5 -103.5s103.5 -167.833 103.5 -296.5
v-422c0 -128.667 -34.5 -227.667 -103.5 -297s-167.833 -104 -296.5 -104zM480 192c36.667 0 61.334 14.168 74.001 42.501s19 69.833 19 124.5v465c0 55.333 -6.33301 97.166 -19 125.499s-37.334 42.5 -74.001 42.5c-36 0 -60.167 -14.5 -72.5 -43.5
s-18.5 -70.5 -18.5 -124.5v-465c0 -54 6.16699 -95.333 18.5 -124s36.5 -43 72.5 -43z" />
    <glyph glyph-name="OE" unicode="&#x152;" horiz-adv-x="1459" 
d="M605 236l101 0.00195312v1179h-103c-22.667 0 -42.834 -3 -60.501 -9s-32.334 -13.333 -44.001 -22s-21.5 -21.5 -29.5 -38.5s-14.167 -32.5 -18.5 -46.5s-7.5 -33.5 -9.5 -58.5s-3.16699 -45.667 -3.5 -62s-0.5 -39.5 -0.5 -69.5v-598c0 -26 0.333008 -47.833 1 -65.5
s2.33398 -36.834 5.00098 -57.501s6.33398 -37.834 11.001 -51.501s11 -27.5 19 -41.5s18 -25 30 -33s26.5 -14.333 43.5 -19s36.5 -7 58.5 -7zM603 0.00195312c-92.667 0 -172 12.335 -238 37.002s-118.333 61.5 -157 110.5s-66.667 106.5 -84 172.5s-26 144 -26 234v521
c0 89.333 8.66699 168.166 26 236.499s44.833 128.666 82.5 180.999s89.167 92.333 154.5 120s143.333 41.5 234 41.5h808v-233h-360v-447h274v-236h-274v-508h363v-230h-803z" />
    <glyph glyph-name="oe" unicode="&#x153;" horiz-adv-x="1441" 
d="M898 737h165v123c0 46 -6.66699 84.167 -20 114.5s-34.333 45.5 -63 45.5c-28 0 -48.667 -14.833 -62 -44.5s-20 -68.167 -20 -115.5v-123zM484 182c34 0 58 14.667 72 44s21 75.333 21 138v492c0 54 -6.5 95 -19.5 123s-36.167 42 -69.5 42
c-32.667 0 -55.667 -14 -69 -42s-20 -69 -20 -123v-491c0 -58 6 -103 18 -135s34.333 -48 67 -48zM445 -23c-109.333 0 -195.334 33.832 -258.001 101.499s-94 165.167 -94 292.5v474c0 123.333 31.667 217.333 95 282s154.333 97 273 97c58 0 112.833 -13 164.5 -39
s86.834 -61.667 105.501 -107c19.333 45.333 54.833 81 106.5 107s105.834 39 162.501 39c66.667 0 123.5 -10.333 170.5 -31s83.667 -51 110 -91s45.333 -86 57 -138s17.5 -112.667 17.5 -182v-207h-457v-167c0 -25.333 0.333008 -46.333 1 -63s2.5 -36.167 5.5 -58.5
s7.16699 -40.166 12.5 -53.499s13.333 -25 24 -35s23.334 -15.333 38.001 -16h3c29.333 0 49.666 10.333 60.999 31c12 21.333 18 56 18 104v135h294v-134c0 -112 -30 -197.333 -90 -256c-58 -57.333 -142.333 -86 -253 -86h-11c-68.667 0.666992 -126.667 13.5 -174 38.5
s-81 59.833 -101 104.5c-52.667 -94.667 -146.334 -142 -281.001 -142z" />
    <glyph glyph-name="Racute" unicode="&#x154;" horiz-adv-x="1185" 
d="M524 1801l124 411h315l-253 -411h-186zM460 952h84c81.333 0 139 19.167 173 57.5s51 99.5 51 183.5c0 82 -14.833 141.833 -44.5 179.5s-83.167 56.5 -160.5 56.5h-103v-477zM123 0v1658h419c88 0 163.667 -6.83301 227 -20.5s119.5 -36.834 168.5 -69.501
s85.667 -78 110 -136s36.5 -129.333 36.5 -214c0 -106.667 -15.167 -193 -45.5 -259s-82.5 -116 -156.5 -150l229 -809h-344l-190 748h-117v-748h-337z" />
    <glyph glyph-name="racute" unicode="&#x155;" horiz-adv-x="738" 
d="M315 1325l124 411h315l-253 -411h-186zM110 0l0.00195312 1184h309v-190c73.333 136.667 154 205 242 205c14 0 29 -2.33301 45 -7v-287c-22.667 8 -47 12 -73 12c-44.667 -2 -83.834 -13.5 -117.501 -34.5s-65.834 -54.167 -96.501 -99.5v-783h-309z" />
    <glyph glyph-name="Rcommaaccent" unicode="&#x156;" horiz-adv-x="1185" 
d="M526 -681l-35.999 114.998c43.333 4.66699 77.166 18.334 101.499 41.001s36.5 59.334 36.5 110.001h-159v293h295l-1 -257c-0.666992 -98.667 -19.5 -173.5 -56.5 -224.5s-97.167 -76.833 -180.5 -77.5zM460.001 951.998h84c81.333 0 139 19.167 173 57.5
s51 99.5 51 183.5c0 82 -14.833 141.833 -44.5 179.5s-83.167 56.5 -160.5 56.5h-103v-477zM123.001 -0.00195312v1658h419c88 0 163.667 -6.83301 227 -20.5s119.5 -36.834 168.5 -69.501s85.667 -78 110 -136s36.5 -129.333 36.5 -214c0 -106.667 -15.167 -193 -45.5 -259
s-82.5 -116 -156.5 -150l229 -809h-344l-190 748h-117v-748h-337z" />
    <glyph glyph-name="rcommaaccent" unicode="&#x157;" horiz-adv-x="738" 
d="M318 -681l-35.999 114.998c43.333 4.66699 77.166 18.334 101.499 41.001s36.5 59.334 36.5 110.001h-159v293h295l-1 -257c-0.666992 -98.667 -19.5 -173.5 -56.5 -224.5s-97.167 -76.833 -180.5 -77.5zM110.001 -0.00195312l0.00195312 1184h309v-190
c73.333 136.667 154 205 242 205c14 0 29 -2.33301 45 -7v-287c-22.667 8 -47 12 -73 12c-44.667 -2 -83.834 -13.5 -117.501 -34.5s-65.834 -54.167 -96.501 -99.5v-783h-309z" />
    <glyph glyph-name="Rcaron" unicode="&#x158;" horiz-adv-x="1185" 
d="M465 1801l-177 374h221l107 -226l108 226h222l-181 -374h-300zM460 952h84c81.333 0 139 19.167 173 57.5s51 99.5 51 183.5c0 82 -14.833 141.833 -44.5 179.5s-83.167 56.5 -160.5 56.5h-103v-477zM123 0v1658h419c88 0 163.667 -6.83301 227 -20.5
s119.5 -36.834 168.5 -69.501s85.667 -78 110 -136s36.5 -129.333 36.5 -214c0 -106.667 -15.167 -193 -45.5 -259s-82.5 -116 -156.5 -150l229 -809h-344l-190 748h-117v-748h-337z" />
    <glyph glyph-name="rcaron" unicode="&#x159;" horiz-adv-x="738" 
d="M256 1325l-177 374h221l107 -226l108 226h222l-181 -374h-300zM110 0l0.00195312 1184h309v-190c73.333 136.667 154 205 242 205c14 0 29 -2.33301 45 -7v-287c-22.667 8 -47 12 -73 12c-44.667 -2 -83.834 -13.5 -117.501 -34.5s-65.834 -54.167 -96.501 -99.5v-783
h-309z" />
    <glyph glyph-name="Sacute" unicode="&#x15a;" horiz-adv-x="1033" 
d="M439 1801l124 411h315l-253 -411h-186zM553 -22c-154 0 -269.002 42.3301 -345.002 126.997s-117.333 214.667 -124 390l292 52c1.33301 -103.333 15.166 -181.166 41.499 -233.499s66.833 -78.5 121.5 -78.5c39.333 0 67.833 12.667 85.5 38s26.5 58 26.5 98
c0 65.333 -14.167 120.166 -42.5 164.499s-73.833 93.833 -136.5 148.5l-178 154c-45.333 39.333 -81.833 76.166 -109.5 110.499s-51 78 -70 131s-28.5 111.833 -28.5 176.5c0 134 39.667 237.833 119 311.5s188.333 110.834 327 111.501
c46.667 0 89.334 -4.66699 128.001 -14s71.834 -22 99.501 -38s52.167 -36 73.5 -60s38.666 -48.833 51.999 -74.5s24.666 -54.667 33.999 -87s16 -63 20 -92s7 -60.5 9 -94.5l-290 -46c-1.33301 34 -3 62.333 -5 85s-5.83301 46.167 -11.5 70.5s-13.167 43.333 -22.5 57
s-22 24.834 -38 33.501s-35 12.334 -57 11.001c-37.333 -2 -66.166 -16.333 -86.499 -43s-30.5 -59 -30.5 -97c0 -30 3.5 -57.167 10.5 -81.5s18.5 -47.5 34.5 -69.5s30.5 -39.667 43.5 -53s31.833 -31.333 56.5 -54l175 -152c37.333 -33.333 69.833 -65.666 97.5 -96.999
s53.834 -67 78.501 -107s43.5 -84 56.5 -132s19.5 -99 19.5 -153c0 -120.667 -39.167 -219.667 -117.5 -297s-181.166 -116 -308.499 -116z" />
    <glyph glyph-name="sacute" unicode="&#x15b;" horiz-adv-x="841" 
d="M329 1325l124 411h315l-253 -411h-186zM435 -20c-197.333 0 -328.669 102.333 -394.002 307l223 90c38 -122 91.667 -183 161 -183h8c25.333 1.33301 46 10.666 62 27.999c14.667 16 22 35.333 22 58v6c-1.33301 35.333 -47.666 92 -138.999 170l-122 104
c-124 105.333 -186 212 -186 320c0 96 34 174 102 234c66.667 59.333 149.667 89 249 89c94.667 0 172.834 -27.167 234.501 -81.5s103.834 -129.166 126.501 -224.499l-202 -90c-12 48.667 -30.167 90.167 -54.5 124.5s-53.833 51.833 -88.5 52.5h-6
c-24 0 -43.333 -7.33301 -58 -22c-16 -16 -24.333 -35 -25 -57c-0.666992 -15.333 6.5 -33.5 21.5 -54.5s29.667 -38.333 44 -52s36.833 -33.834 67.5 -60.501l122 -110c24.667 -21.333 44.167 -38.833 58.5 -52.5s31.666 -32.167 51.999 -55.5s36 -45 47 -65
s20.667 -43.667 29 -71s12.5 -55.666 12.5 -84.999c0 -66.667 -17 -124.667 -51 -174s-78.333 -85.833 -133 -109.5s-115.667 -35.5 -183 -35.5z" />
    <glyph glyph-name="Scircumflex" unicode="&#x15c;" horiz-adv-x="1033" 
d="M208 1801l189 382h265l193 -382h-228l-96 241l-96 -241h-227zM553 -22c-154 0 -269.002 42.3301 -345.002 126.997s-117.333 214.667 -124 390l292 52c1.33301 -103.333 15.166 -181.166 41.499 -233.499s66.833 -78.5 121.5 -78.5c39.333 0 67.833 12.667 85.5 38
s26.5 58 26.5 98c0 65.333 -14.167 120.166 -42.5 164.499s-73.833 93.833 -136.5 148.5l-178 154c-45.333 39.333 -81.833 76.166 -109.5 110.499s-51 78 -70 131s-28.5 111.833 -28.5 176.5c0 134 39.667 237.833 119 311.5s188.333 110.834 327 111.501
c46.667 0 89.334 -4.66699 128.001 -14s71.834 -22 99.501 -38s52.167 -36 73.5 -60s38.666 -48.833 51.999 -74.5s24.666 -54.667 33.999 -87s16 -63 20 -92s7 -60.5 9 -94.5l-290 -46c-1.33301 34 -3 62.333 -5 85s-5.83301 46.167 -11.5 70.5s-13.167 43.333 -22.5 57
s-22 24.834 -38 33.501s-35 12.334 -57 11.001c-37.333 -2 -66.166 -16.333 -86.499 -43s-30.5 -59 -30.5 -97c0 -30 3.5 -57.167 10.5 -81.5s18.5 -47.5 34.5 -69.5s30.5 -39.667 43.5 -53s31.833 -31.333 56.5 -54l175 -152c37.333 -33.333 69.833 -65.666 97.5 -96.999
s53.834 -67 78.501 -107s43.5 -84 56.5 -132s19.5 -99 19.5 -153c0 -120.667 -39.167 -219.667 -117.5 -297s-181.166 -116 -308.499 -116z" />
    <glyph glyph-name="scircumflex" unicode="&#x15d;" horiz-adv-x="841" 
d="M98 1325l189 382h265l193 -382h-228l-96 241l-96 -241h-227zM435 -20c-197.333 0 -328.669 102.333 -394.002 307l223 90c38 -122 91.667 -183 161 -183h8c25.333 1.33301 46 10.666 62 27.999c14.667 16 22 35.333 22 58v6c-1.33301 35.333 -47.666 92 -138.999 170
l-122 104c-124 105.333 -186 212 -186 320c0 96 34 174 102 234c66.667 59.333 149.667 89 249 89c94.667 0 172.834 -27.167 234.501 -81.5s103.834 -129.166 126.501 -224.499l-202 -90c-12 48.667 -30.167 90.167 -54.5 124.5s-53.833 51.833 -88.5 52.5h-6
c-24 0 -43.333 -7.33301 -58 -22c-16 -16 -24.333 -35 -25 -57c-0.666992 -15.333 6.5 -33.5 21.5 -54.5s29.667 -38.333 44 -52s36.833 -33.834 67.5 -60.501l122 -110c24.667 -21.333 44.167 -38.833 58.5 -52.5s31.666 -32.167 51.999 -55.5s36 -45 47 -65
s20.667 -43.667 29 -71s12.5 -55.666 12.5 -84.999c0 -66.667 -17 -124.667 -51 -174s-78.333 -85.833 -133 -109.5s-115.667 -35.5 -183 -35.5z" />
    <glyph glyph-name="Scedilla" unicode="&#x15e;" horiz-adv-x="1033" 
d="M406 -526l0.000976562 138.001c21.333 -6 45.333 -10.333 72 -13c16.667 -1.33301 33 -2 49 -2c10 0.666992 20 1 30 1c26 1.33301 47.833 7.16602 65.5 17.499s26.5 24.5 26.5 42.5c0 20 -5.5 37.333 -16.5 52s-26.5 26.5 -46.5 35.5s-39.5 15.833 -58.5 20.5
s-40.5 8.66699 -64.5 12v222h123v-131c74 -4 137.167 -24 189.5 -60s79.166 -82.333 80.499 -139v-7c0 -46.667 -13 -86.667 -39 -120c-27.333 -34.667 -63 -59 -107 -73c-42 -13.333 -88.333 -20 -139 -20h-7c-53.333 0.666992 -106 8.66699 -158 24zM553.001 -21.999
c-154 0 -269.002 42.3301 -345.002 126.997s-117.333 214.667 -124 390l292 52c1.33301 -103.333 15.166 -181.166 41.499 -233.499s66.833 -78.5 121.5 -78.5c39.333 0 67.833 12.667 85.5 38s26.5 58 26.5 98c0 65.333 -14.167 120.166 -42.5 164.499
s-73.833 93.833 -136.5 148.5l-178 154c-45.333 39.333 -81.833 76.166 -109.5 110.499s-51 78 -70 131s-28.5 111.833 -28.5 176.5c0 134 39.667 237.833 119 311.5s188.333 110.834 327 111.501c46.667 0 89.334 -4.66699 128.001 -14s71.834 -22 99.501 -38
s52.167 -36 73.5 -60s38.666 -48.833 51.999 -74.5s24.666 -54.667 33.999 -87s16 -63 20 -92s7 -60.5 9 -94.5l-290 -46c-1.33301 34 -3 62.333 -5 85s-5.83301 46.167 -11.5 70.5s-13.167 43.333 -22.5 57s-22 24.834 -38 33.501s-35 12.334 -57 11.001
c-37.333 -2 -66.166 -16.333 -86.499 -43s-30.5 -59 -30.5 -97c0 -30 3.5 -57.167 10.5 -81.5s18.5 -47.5 34.5 -69.5s30.5 -39.667 43.5 -53s31.833 -31.333 56.5 -54l175 -152c37.333 -33.333 69.833 -65.666 97.5 -96.999s53.834 -67 78.501 -107s43.5 -84 56.5 -132
s19.5 -99 19.5 -153c0 -120.667 -39.167 -219.667 -117.5 -297s-181.166 -116 -308.499 -116z" />
    <glyph glyph-name="scedilla" unicode="&#x15f;" horiz-adv-x="841" 
d="M316 -526l0.000976562 138.001c21.333 -6 45.333 -10.333 72 -13c16.667 -1.33301 33 -2 49 -2c10 0.666992 20 1 30 1c26 1.33301 47.833 7.16602 65.5 17.499s26.5 24.5 26.5 42.5c0 20 -5.5 37.333 -16.5 52s-26.5 26.5 -46.5 35.5s-39.5 15.833 -58.5 20.5
s-40.5 8.66699 -64.5 12v222h123v-131c74 -4 137.167 -24 189.5 -60s79.166 -82.333 80.499 -139v-7c0 -46.667 -13 -86.667 -39 -120c-27.333 -34.667 -63 -59 -107 -73c-42 -13.333 -88.333 -20 -139 -20h-7c-53.333 0.666992 -106 8.66699 -158 24zM435.001 -19.999
c-197.333 0 -328.669 102.333 -394.002 307l223 90c38 -122 91.667 -183 161 -183h8c25.333 1.33301 46 10.666 62 27.999c14.667 16 22 35.333 22 58v6c-1.33301 35.333 -47.666 92 -138.999 170l-122 104c-124 105.333 -186 212 -186 320c0 96 34 174 102 234
c66.667 59.333 149.667 89 249 89c94.667 0 172.834 -27.167 234.501 -81.5s103.834 -129.166 126.501 -224.499l-202 -90c-12 48.667 -30.167 90.167 -54.5 124.5s-53.833 51.833 -88.5 52.5h-6c-24 0 -43.333 -7.33301 -58 -22c-16 -16 -24.333 -35 -25 -57
c-0.666992 -15.333 6.5 -33.5 21.5 -54.5s29.667 -38.333 44 -52s36.833 -33.834 67.5 -60.501l122 -110c24.667 -21.333 44.167 -38.833 58.5 -52.5s31.666 -32.167 51.999 -55.5s36 -45 47 -65s20.667 -43.667 29 -71s12.5 -55.666 12.5 -84.999
c0 -66.667 -17 -124.667 -51 -174s-78.333 -85.833 -133 -109.5s-115.667 -35.5 -183 -35.5z" />
    <glyph glyph-name="Scaron" unicode="&#x160;" horiz-adv-x="1033" 
d="M380 1801l-177 374h221l107 -226l108 226h222l-181 -374h-300zM553 -22c-154 0 -269.002 42.3301 -345.002 126.997s-117.333 214.667 -124 390l292 52c1.33301 -103.333 15.166 -181.166 41.499 -233.499s66.833 -78.5 121.5 -78.5c39.333 0 67.833 12.667 85.5 38
s26.5 58 26.5 98c0 65.333 -14.167 120.166 -42.5 164.499s-73.833 93.833 -136.5 148.5l-178 154c-45.333 39.333 -81.833 76.166 -109.5 110.499s-51 78 -70 131s-28.5 111.833 -28.5 176.5c0 134 39.667 237.833 119 311.5s188.333 110.834 327 111.501
c46.667 0 89.334 -4.66699 128.001 -14s71.834 -22 99.501 -38s52.167 -36 73.5 -60s38.666 -48.833 51.999 -74.5s24.666 -54.667 33.999 -87s16 -63 20 -92s7 -60.5 9 -94.5l-290 -46c-1.33301 34 -3 62.333 -5 85s-5.83301 46.167 -11.5 70.5s-13.167 43.333 -22.5 57
s-22 24.834 -38 33.501s-35 12.334 -57 11.001c-37.333 -2 -66.166 -16.333 -86.499 -43s-30.5 -59 -30.5 -97c0 -30 3.5 -57.167 10.5 -81.5s18.5 -47.5 34.5 -69.5s30.5 -39.667 43.5 -53s31.833 -31.333 56.5 -54l175 -152c37.333 -33.333 69.833 -65.666 97.5 -96.999
s53.834 -67 78.501 -107s43.5 -84 56.5 -132s19.5 -99 19.5 -153c0 -120.667 -39.167 -219.667 -117.5 -297s-181.166 -116 -308.499 -116z" />
    <glyph glyph-name="scaron" unicode="&#x161;" horiz-adv-x="841" 
d="M270 1325l-177 374h221l107 -226l108 226h222l-181 -374h-300zM435 -20c-197.333 0 -328.669 102.333 -394.002 307l223 90c38 -122 91.667 -183 161 -183h8c25.333 1.33301 46 10.666 62 27.999c14.667 16 22 35.333 22 58v6c-1.33301 35.333 -47.666 92 -138.999 170
l-122 104c-124 105.333 -186 212 -186 320c0 96 34 174 102 234c66.667 59.333 149.667 89 249 89c94.667 0 172.834 -27.167 234.501 -81.5s103.834 -129.166 126.501 -224.499l-202 -90c-12 48.667 -30.167 90.167 -54.5 124.5s-53.833 51.833 -88.5 52.5h-6
c-24 0 -43.333 -7.33301 -58 -22c-16 -16 -24.333 -35 -25 -57c-0.666992 -15.333 6.5 -33.5 21.5 -54.5s29.667 -38.333 44 -52s36.833 -33.834 67.5 -60.501l122 -110c24.667 -21.333 44.167 -38.833 58.5 -52.5s31.666 -32.167 51.999 -55.5s36 -45 47 -65
s20.667 -43.667 29 -71s12.5 -55.666 12.5 -84.999c0 -66.667 -17 -124.667 -51 -174s-78.333 -85.833 -133 -109.5s-115.667 -35.5 -183 -35.5z" />
    <glyph glyph-name="Tcommaaccent" unicode="&#x162;" horiz-adv-x="892" 
d="M316 -526l0.000976562 138.001c21.333 -6 45.333 -10.333 72 -13c16.667 -1.33301 33 -2 49 -2c10 0.666992 20 1 30 1c26 1.33301 47.833 7.16602 65.5 17.499s26.5 24.5 26.5 42.5c0 20 -5.5 37.333 -16.5 52s-26.5 26.5 -46.5 35.5s-39.5 15.833 -58.5 20.5
s-40.5 8.66699 -64.5 12v222h123v-131c74 -4 137.167 -24 189.5 -60s79.166 -82.333 80.499 -139v-7c0 -46.667 -13 -86.667 -39 -120c-27.333 -34.667 -63 -59 -107 -73c-42 -13.333 -88.333 -20 -139 -20h-7c-53.333 0.666992 -106 8.66699 -158 24zM280.001 0.000976562
v1409h-265v249h863v-249h-261v-1409h-337z" />
    <glyph glyph-name="tcommaaccent" unicode="&#x163;" horiz-adv-x="704" 
d="M286 -526l0.000976562 138.001c21.333 -6 45.333 -10.333 72 -13c16.667 -1.33301 33 -2 49 -2c10 0.666992 20 1 30 1c26 1.33301 47.833 7.16602 65.5 17.499s26.5 24.5 26.5 42.5c0 20 -5.5 37.333 -16.5 52s-26.5 26.5 -46.5 35.5s-39.5 15.833 -58.5 20.5
s-40.5 8.66699 -64.5 12v222h123v-131c74 -4 137.167 -24 189.5 -60s79.166 -82.333 80.499 -139v-7c0 -46.667 -13 -86.667 -39 -120c-27.333 -34.667 -63 -59 -107 -73c-42 -13.333 -88.333 -20 -139 -20h-7c-53.333 0.666992 -106 8.66699 -158 24zM439.001 -14.999
c-48 1.33301 -89.667 9.16504 -125 23.498s-63.5 32.833 -84.5 55.5s-37.833 51.334 -50.5 86.001s-21.334 69.834 -26.001 105.501s-7 76.5 -7 122.5v603h-114v203h114v354h312v-354h175v-203h-175v-644c0 -66.667 35.667 -101 107 -103h7c21.333 0 48 2.66699 80 8v-242
c-81.333 -10 -146.666 -15 -195.999 -15h-17z" />
    <glyph glyph-name="Tcaron" unicode="&#x164;" horiz-adv-x="892" 
d="M294 1801l-177 374h221l107 -226l108 226h222l-181 -374h-300zM280 0v1409h-265v249h863v-249h-261v-1409h-337z" />
    <glyph glyph-name="tcaron" unicode="&#x165;" horiz-adv-x="716" 
d="M591 1373v589h258l-104 -589h-154zM439 -15c-48 1.33301 -89.667 9.16504 -125 23.498s-63.5 32.833 -84.5 55.5s-37.833 51.334 -50.5 86.001s-21.334 69.834 -26.001 105.501s-7 76.5 -7 122.5v603h-114v203h114v354h312v-354h175v-203h-175v-644
c0 -66.667 35.667 -101 107 -103h7c21.333 0 48 2.66699 80 8v-242c-81.333 -10 -146.666 -15 -195.999 -15h-17z" />
    <glyph glyph-name="Tbar" unicode="&#x166;" horiz-adv-x="892" 
d="M92 765v168h188v476h-265v249h863v-249h-261v-476h191v-168h-191v-765h-337v765h-188z" />
    <glyph glyph-name="tbar" unicode="&#x167;" horiz-adv-x="704" 
d="M439 -15c-48 1.33301 -89.667 9.16504 -125 23.498s-63.5 32.833 -84.5 55.5s-37.833 51.334 -50.5 86.001s-21.334 69.834 -26.001 105.501s-7 76.5 -7 122.5v261h-112v138h112v204h-114v203h114v354h312v-354h175v-203h-175v-204h180v-138h-180v-302
c0 -66.667 35.667 -101 107 -103h7c21.333 0 48 2.66699 80 8v-242c-81.333 -10 -146.666 -15 -195.999 -15h-17z" />
    <glyph glyph-name="Utilde" unicode="&#x168;" horiz-adv-x="1180" 
d="M767 1801l-7.00098 0.000976562c-27.333 0 -58.666 7.33301 -93.999 22c-38.667 16 -75.5 32.667 -110.5 50s-61.833 26 -80.5 26c-36 0 -54 -28 -54 -84h-154c0 86.667 12.5 153.334 37.5 200.001s70.167 72 135.5 76h13c30 0 61.667 -6 95 -18
c37.333 -14.667 71.333 -30.334 102 -47.001s52.334 -25.667 65.001 -27c19.333 -2.66699 33.166 3 41.499 17s12.5 34.333 12.5 61h144v-7c0 -174.667 -48.667 -264.334 -146 -269.001zM589.999 -21.999c-92.667 0 -170.5 12.165 -233.5 36.498s-112.333 61.333 -148 111
s-60.834 107.334 -75.501 173.001s-22 145.167 -22 238.5v1121h331v-1164c0 -31.333 0.833008 -58.166 2.5 -80.499s5.33398 -46.166 11.001 -71.499s13.667 -45.833 24 -61.5s24.833 -28.667 43.5 -39s41 -15.5 67 -15.5s48.5 5.16699 67.5 15.5s33.5 23.333 43.5 39
s18 36.167 24 61.5s9.66699 49 11 71s2 49 2 81v1164h331v-1121c0 -93.333 -7.33301 -172.833 -22 -238.5s-39.667 -123.334 -75 -173.001s-84.5 -86.667 -147.5 -111s-141.167 -36.5 -234.5 -36.5z" />
    <glyph glyph-name="utilde" unicode="&#x169;" horiz-adv-x="1001" 
d="M672 1325l-7.00098 0.000976562c-27.333 0 -58.666 7.33301 -93.999 22c-38.667 16 -75.5 32.667 -110.5 50s-61.833 26 -80.5 26c-36 0 -54 -28 -54 -84h-154c0 86.667 12.5 153.334 37.5 200.001s70.167 72 135.5 76h13c30 0 61.667 -6 95 -18
c37.333 -14.667 71.333 -30.334 102 -47.001s52.334 -25.667 65.001 -27c19.333 -2.66699 33.166 3 41.499 17s12.5 34.333 12.5 61h144v-7c0 -174.667 -48.667 -264.334 -146 -269.001zM302.999 -18.999c-68.667 0 -120.334 25.167 -155.001 75.5s-52 113.833 -52 190.5
v937h309v-889c0.666992 -32.667 6.33398 -57 17.001 -73s28.667 -24 54 -24h3c30.667 0.666992 66 14.667 106 42v944h310v-1184h-310v110c-91.333 -86 -185.333 -129 -282 -129z" />
    <glyph glyph-name="Umacron" unicode="&#x16a;" horiz-adv-x="1180" 
d="M329 1801v153h521v-153h-521zM590 -22c-92.667 0 -170.5 12.165 -233.5 36.498s-112.333 61.333 -148 111s-60.834 107.334 -75.501 173.001s-22 145.167 -22 238.5v1121h331v-1164c0 -31.333 0.833008 -58.166 2.5 -80.499s5.33398 -46.166 11.001 -71.499
s13.667 -45.833 24 -61.5s24.833 -28.667 43.5 -39s41 -15.5 67 -15.5s48.5 5.16699 67.5 15.5s33.5 23.333 43.5 39s18 36.167 24 61.5s9.66699 49 11 71s2 49 2 81v1164h331v-1121c0 -93.333 -7.33301 -172.833 -22 -238.5s-39.667 -123.334 -75 -173.001
s-84.5 -86.667 -147.5 -111s-141.167 -36.5 -234.5 -36.5z" />
    <glyph glyph-name="umacron" unicode="&#x16b;" horiz-adv-x="1001" 
d="M235 1325v153h521v-153h-521zM303 -19c-68.667 0 -120.334 25.167 -155.001 75.5s-52 113.833 -52 190.5v937h309v-889c0.666992 -32.667 6.33398 -57 17.001 -73s28.667 -24 54 -24h3c30.667 0.666992 66 14.667 106 42v944h310v-1184h-310v110
c-91.333 -86 -185.333 -129 -282 -129z" />
    <glyph glyph-name="Ubreve" unicode="&#x16c;" horiz-adv-x="1180" 
d="M590 1801c-95.333 0 -167.833 24.167 -217.5 72.5s-74.5 114.833 -74.5 199.5h144c0 -48 11.833 -82.833 35.5 -104.5s61.167 -32.5 112.5 -32.5s88.833 11 112.5 33s35.5 56.667 35.5 104h144c0 -84.667 -24.667 -151.167 -74 -199.5s-122 -72.5 -218 -72.5zM590 -22
c-92.667 0 -170.5 12.165 -233.5 36.498s-112.333 61.333 -148 111s-60.834 107.334 -75.501 173.001s-22 145.167 -22 238.5v1121h331v-1164c0 -31.333 0.833008 -58.166 2.5 -80.499s5.33398 -46.166 11.001 -71.499s13.667 -45.833 24 -61.5s24.833 -28.667 43.5 -39
s41 -15.5 67 -15.5s48.5 5.16699 67.5 15.5s33.5 23.333 43.5 39s18 36.167 24 61.5s9.66699 49 11 71s2 49 2 81v1164h331v-1121c0 -93.333 -7.33301 -172.833 -22 -238.5s-39.667 -123.334 -75 -173.001s-84.5 -86.667 -147.5 -111s-141.167 -36.5 -234.5 -36.5z" />
    <glyph glyph-name="ubreve" unicode="&#x16d;" horiz-adv-x="1001" 
d="M496 1325c-95.333 0 -167.833 24.167 -217.5 72.5s-74.5 114.833 -74.5 199.5h144c0 -48 11.833 -82.833 35.5 -104.5s61.167 -32.5 112.5 -32.5s88.833 11 112.5 33s35.5 56.667 35.5 104h144c0 -84.667 -24.667 -151.167 -74 -199.5s-122 -72.5 -218 -72.5zM303 -19
c-68.667 0 -120.334 25.167 -155.001 75.5s-52 113.833 -52 190.5v937h309v-889c0.666992 -32.667 6.33398 -57 17.001 -73s28.667 -24 54 -24h3c30.667 0.666992 66 14.667 106 42v944h310v-1184h-310v110c-91.333 -86 -185.333 -129 -282 -129z" />
    <glyph glyph-name="Uring" unicode="&#x16e;" horiz-adv-x="1180" 
d="M589 1920c33.333 0 59.333 10.5 78 31.5s28 47.5 28 79.5s-9.33301 58.5 -28 79.5s-44.667 31.5 -78 31.5s-59.333 -10.5 -78 -31.5s-28 -47.5 -28 -79.5s9.33301 -58.5 28 -79.5s44.667 -31.5 78 -31.5zM589 1801c-69.333 0 -126.333 20.5 -171 61.5
s-67 97.167 -67 168.5s22.333 127.333 67 168s101.667 61 171 61c70 0 127.667 -20.333 173 -61s68 -96.667 68 -168s-22.667 -127.5 -68 -168.5s-103 -61.5 -173 -61.5zM590 -22c-92.667 0 -170.5 12.165 -233.5 36.498s-112.333 61.333 -148 111
s-60.834 107.334 -75.501 173.001s-22 145.167 -22 238.5v1121h331v-1164c0 -31.333 0.833008 -58.166 2.5 -80.499s5.33398 -46.166 11.001 -71.499s13.667 -45.833 24 -61.5s24.833 -28.667 43.5 -39s41 -15.5 67 -15.5s48.5 5.16699 67.5 15.5s33.5 23.333 43.5 39
s18 36.167 24 61.5s9.66699 49 11 71s2 49 2 81v1164h331v-1121c0 -93.333 -7.33301 -172.833 -22 -238.5s-39.667 -123.334 -75 -173.001s-84.5 -86.667 -147.5 -111s-141.167 -36.5 -234.5 -36.5z" />
    <glyph glyph-name="uring" unicode="&#x16f;" horiz-adv-x="1001" 
d="M494 1444c33.333 0 59.333 10.5 78 31.5s28 47.5 28 79.5s-9.33301 58.5 -28 79.5s-44.667 31.5 -78 31.5s-59.333 -10.5 -78 -31.5s-28 -47.5 -28 -79.5s9.33301 -58.5 28 -79.5s44.667 -31.5 78 -31.5zM494 1325c-69.333 0 -126.333 20.5 -171 61.5
s-67 97.167 -67 168.5s22.333 127.333 67 168s101.667 61 171 61c70 0 127.667 -20.333 173 -61s68 -96.667 68 -168s-22.667 -127.5 -68 -168.5s-103 -61.5 -173 -61.5zM303 -19c-68.667 0 -120.334 25.167 -155.001 75.5s-52 113.833 -52 190.5v937h309v-889
c0.666992 -32.667 6.33398 -57 17.001 -73s28.667 -24 54 -24h3c30.667 0.666992 66 14.667 106 42v944h310v-1184h-310v110c-91.333 -86 -185.333 -129 -282 -129z" />
    <glyph glyph-name="Uhungarumlaut" unicode="&#x170;" horiz-adv-x="1180" 
d="M679 1801l128 420h278l-246 -420h-160zM340 1801l110 420h251l-204 -420h-157zM590 -22c-92.667 0 -170.5 12.165 -233.5 36.498s-112.333 61.333 -148 111s-60.834 107.334 -75.501 173.001s-22 145.167 -22 238.5v1121h331v-1164
c0 -31.333 0.833008 -58.166 2.5 -80.499s5.33398 -46.166 11.001 -71.499s13.667 -45.833 24 -61.5s24.833 -28.667 43.5 -39s41 -15.5 67 -15.5s48.5 5.16699 67.5 15.5s33.5 23.333 43.5 39s18 36.167 24 61.5s9.66699 49 11 71s2 49 2 81v1164h331v-1121
c0 -93.333 -7.33301 -172.833 -22 -238.5s-39.667 -123.334 -75 -173.001s-84.5 -86.667 -147.5 -111s-141.167 -36.5 -234.5 -36.5z" />
    <glyph glyph-name="uhungarumlaut" unicode="&#x171;" horiz-adv-x="1001" 
d="M585 1325l128 420h278l-246 -420h-160zM246 1325l110 420h251l-204 -420h-157zM303 -19c-68.667 0 -120.334 25.167 -155.001 75.5s-52 113.833 -52 190.5v937h309v-889c0.666992 -32.667 6.33398 -57 17.001 -73s28.667 -24 54 -24h3c30.667 0.666992 66 14.667 106 42
v944h310v-1184h-310v110c-91.333 -86 -185.333 -129 -282 -129z" />
    <glyph glyph-name="Uogonek" unicode="&#x172;" horiz-adv-x="1180" 
d="M846 -504h-49.9961h-41c-24.667 0.666992 -53.834 2.83398 -87.501 6.50098s-61.667 10.167 -84 19.5s-44 21.333 -65 36s-36.833 34.5 -47.5 59.5s-16 53.833 -16 86.5c0 57.333 17.833 115.5 53.5 174.5s78.5 104.5 128.5 136.5h143
c-6.66699 -16.667 -19.667 -43.5 -39 -80.5s-35 -71.333 -47 -103s-18 -61.834 -18 -90.501c0 -13.333 2.16699 -25.166 6.5 -35.499s9.66602 -18.833 15.999 -25.5s15 -12.334 26 -17.001s20.667 -8 29 -10s19.666 -3.66699 33.999 -5s25.333 -2 33 -2
s18.667 0.166992 33 0.5s23.166 0.5 26.499 0.5zM590.004 -22c-92.667 0 -170.5 12.165 -233.5 36.498s-112.333 61.333 -148 111s-60.834 107.334 -75.501 173.001s-22 145.167 -22 238.5v1121h331v-1164c0 -31.333 0.833008 -58.166 2.5 -80.499
s5.33398 -46.166 11.001 -71.499s13.667 -45.833 24 -61.5s24.833 -28.667 43.5 -39s41 -15.5 67 -15.5s48.5 5.16699 67.5 15.5s33.5 23.333 43.5 39s18 36.167 24 61.5s9.66699 49 11 71s2 49 2 81v1164h331v-1121c0 -93.333 -7.33301 -172.833 -22 -238.5
s-39.667 -123.334 -75 -173.001s-84.5 -86.667 -147.5 -111s-141.167 -36.5 -234.5 -36.5z" />
    <glyph glyph-name="uogonek" unicode="&#x173;" horiz-adv-x="1001" 
d="M883 -504h-49.9961h-41c-24.667 0.666992 -53.834 2.83398 -87.501 6.50098s-61.667 10.167 -84 19.5s-44 21.333 -65 36s-36.833 34.5 -47.5 59.5s-16 53.833 -16 86.5c0 57.333 17.833 115.5 53.5 174.5s78.5 104.5 128.5 136.5h143
c-6.66699 -16.667 -19.667 -43.5 -39 -80.5s-35 -71.333 -47 -103s-18 -61.834 -18 -90.501c0 -13.333 2.16699 -25.166 6.5 -35.499s9.66602 -18.833 15.999 -25.5s15 -12.334 26 -17.001s20.667 -8 29 -10s19.666 -3.66699 33.999 -5s25.333 -2 33 -2
s18.667 0.166992 33 0.5s23.166 0.5 26.499 0.5zM303.004 -19c-68.667 0 -120.334 25.167 -155.001 75.5s-52 113.833 -52 190.5v937h309v-889c0.666992 -32.667 6.33398 -57 17.001 -73s28.667 -24 54 -24h3c30.667 0.666992 66 14.667 106 42v944h310v-1184h-310v110
c-91.333 -86 -185.333 -129 -282 -129z" />
    <glyph glyph-name="Wcircumflex" unicode="&#x174;" horiz-adv-x="1449" 
d="M401 1801l189 382h265l193 -382h-228l-96 241l-96 -241h-227zM278 0l-216 1658h285l115 -1011l149 1011h225l155 -1008l115 1008h282l-217 -1658h-284l-162 1048l-158 -1048h-289z" />
    <glyph glyph-name="wcircumflex" unicode="&#x175;" horiz-adv-x="1221" 
d="M287 1325l189 382h265l193 -382h-228l-96 241l-96 -241h-227zM224 0l-177 1184h257l93 -715l108 715h225l98 -725l104 725h243l-184 -1184h-263l-115 698l-123 -698h-266z" />
    <glyph glyph-name="Ycircumflex" unicode="&#x176;" horiz-adv-x="1007" 
d="M180 1801l189 382h265l193 -382h-228l-96 241l-96 -241h-227zM343 0v657l-325 1001h316l179 -586l167 586h309l-323 -1001v-657h-323z" />
    <glyph glyph-name="ycircumflex" unicode="&#x177;" horiz-adv-x="888" 
d="M115 1325l189 382h265l193 -382h-228l-96 241l-96 -241h-227zM126 -331l-0.000976562 218c77.333 0 130 7.66699 158 23c22.667 12.667 34.334 36.667 35.001 72c0 8 -0.666992 16.333 -2 25c-4.66699 34 -18.667 94.333 -42 181c-12 50.667 -56.333 216.667 -133 498
s-121 447.333 -133 498h296l147 -725l120 725h296l-280 -1247c-38.667 -178.667 -175.667 -268 -411 -268h-10h-41z" />
    <glyph glyph-name="Ydieresis" unicode="&#x178;" horiz-adv-x="1007" 
d="M583 1801v286h261v-286h-261zM163 1801v286h261v-286h-261zM343 0v657l-325 1001h316l179 -586l167 586h309l-323 -1001v-657h-323z" />
    <glyph glyph-name="Zacute" unicode="&#x179;" horiz-adv-x="879" 
d="M354 1801l124 411h315l-253 -411h-186zM67 0v211l419 1216h-401v231h739v-178l-435 -1250h438v-230h-760z" />
    <glyph glyph-name="zacute" unicode="&#x17a;" horiz-adv-x="780" 
d="M305 1325l124 411h315l-253 -411h-186zM69 0v201l333 756h-305v227h628v-184l-331 -772h333v-228h-658z" />
    <glyph glyph-name="Zdotaccent" unicode="&#x17b;" horiz-adv-x="879" 
d="M299 1801v298h296v-298h-296zM67 0v211l419 1216h-401v231h739v-178l-435 -1250h438v-230h-760z" />
    <glyph glyph-name="zdotaccent" unicode="&#x17c;" horiz-adv-x="780" 
d="M250 1325v298h296v-298h-296zM69 0v201l333 756h-305v227h628v-184l-331 -772h333v-228h-658z" />
    <glyph glyph-name="Zcaron" unicode="&#x17d;" horiz-adv-x="879" 
d="M295 1801l-177 374h221l107 -226l108 226h222l-181 -374h-300zM67 0v211l419 1216h-401v231h739v-178l-435 -1250h438v-230h-760z" />
    <glyph glyph-name="zcaron" unicode="&#x17e;" horiz-adv-x="780" 
d="M246 1325l-177 374h221l107 -226l108 226h222l-181 -374h-300zM69 0v201l333 756h-305v227h628v-184l-331 -772h333v-228h-658z" />
    <glyph glyph-name="florin" unicode="&#x192;" horiz-adv-x="900" 
d="M187 -332c-40.667 0 -92.332 3.66699 -154.999 11l24 230c33.333 -6.66699 57.333 -10 72 -10c56 0 87.667 35.667 95 107l98 957h-120v221h143l8 80c4.66699 46.667 10.667 86.334 18 119.001s19 64.5 35 95.5s36.167 55.667 60.5 74s55.833 33 94.5 44
s84.667 16.5 138 16.5c40.667 0 92.334 -3.66699 155.001 -11l-23 -230c-46.667 6.66699 -70.667 10 -72 10c-56.667 0 -88.667 -35.333 -96 -106l-9 -92h137v-221h-159l-97 -946c-4.66699 -46.667 -10.834 -86.334 -18.501 -119.001s-19.334 -64.5 -35.001 -95.5
s-35.667 -55.667 -60 -74s-56 -33 -95 -44s-85.167 -16.5 -138.5 -16.5z" />
    <glyph glyph-name="uni01C4" unicode="&#x1c4;" horiz-adv-x="2046" 
d="M1462 1801l-177 374h221l107 -226l108 226h222l-181 -374h-300zM1234 0v211l419 1216h-401v231h739v-178l-435 -1250h438v-230h-760zM123 0l-0.00292969 1658h403c104.667 0 191.834 -9.66699 261.501 -29s125.334 -51 167.001 -95s71.167 -97.5 88.5 -160.5
s26 -141.833 26 -236.5v-598c0 -96 -8.66699 -176.667 -26 -242s-46.666 -120.833 -87.999 -166.5s-96.333 -78.834 -165 -99.501s-154 -31 -256 -31h-411zM459.997 235.001l70.002 -0.00195312c23.333 0 44.166 1.33301 62.499 4s34.166 7.33398 47.499 14.001
s24.666 13.5 33.999 20.5s17.166 17.167 23.499 30.5s11.333 25.833 15 37.5s6.33398 27.834 8.00098 48.501s2.66699 39 3 55s0.5 37.667 0.5 65v665c0 39.333 -1 70.666 -3 93.999s-6.66699 45.833 -14 67.5s-18.166 37.834 -32.499 48.501s-33.5 19.167 -57.5 25.5
s-54 9.5 -90 9.5h-67v-1185z" />
    <glyph glyph-name="uni01C5" unicode="&#x1c5;" horiz-adv-x="1947" 
d="M1413 1325l-177 374h221l107 -226l108 226h222l-181 -374h-300zM1236 0v201l333 756h-305v227h628v-184l-331 -772h333v-228h-658zM123 0l-0.00292969 1658h403c104.667 0 191.834 -9.66699 261.501 -29s125.334 -51 167.001 -95s71.167 -97.5 88.5 -160.5
s26 -141.833 26 -236.5v-598c0 -96 -8.66699 -176.667 -26 -242s-46.666 -120.833 -87.999 -166.5s-96.333 -78.834 -165 -99.501s-154 -31 -256 -31h-411zM459.997 235.001l70.002 -0.00195312c23.333 0 44.166 1.33301 62.499 4s34.166 7.33398 47.499 14.001
s24.666 13.5 33.999 20.5s17.166 17.167 23.499 30.5s11.333 25.833 15 37.5s6.33398 27.834 8.00098 48.501s2.66699 39 3 55s0.5 37.667 0.5 65v665c0 39.333 -1 70.666 -3 93.999s-6.66699 45.833 -14 67.5s-18.166 37.834 -32.499 48.501s-33.5 19.167 -57.5 25.5
s-54 9.5 -90 9.5h-67v-1185z" />
    <glyph glyph-name="uni01C6" unicode="&#x1c6;" horiz-adv-x="1783" 
d="M1249 1325l-177 374h221l107 -226l108 226h222l-181 -374h-300zM1072 0v201l333 756h-305v227h628v-184l-331 -772h333v-228h-658zM492 188c27.333 0 59.333 10 96 30v751c-33.333 20 -65.333 30 -96 30c-33.333 0 -57.5 -14.167 -72.5 -42.5s-22.5 -64.833 -22.5 -109.5
v-492c0 -111.333 31.667 -167 95 -167zM369 -20c-188 0 -282 132.001 -282 396.001v419c0 79.333 9 148.666 27 207.999s48.5 107.5 91.5 144.5s96.833 55.5 161.5 55.5c78 0 151.667 -30.667 221 -92v547h309v-1658h-309v86c-70 -70 -143 -105.333 -219 -106z" />
    <glyph glyph-name="uni01C7" unicode="&#x1c7;" horiz-adv-x="1578" 
d="M908 -38l-0.000976562 236.002h7c78.667 0 131.667 12 159 36c28.667 24 43 74.333 43 151v1273h338l-1 -1285c-1.33301 -72 -8 -132.333 -20 -181s-32.5 -90.834 -61.5 -126.501s-68.167 -61.834 -117.5 -78.501s-110.666 -25 -183.999 -25h-163zM122.999 0.00195312
v1658h337v-1428h387v-230h-724z" />
    <glyph glyph-name="uni01C8" unicode="&#x1c8;" horiz-adv-x="1429" 
d="M1017 1378v235h311v-235h-311zM861 -325l-0.000976562 222c26.667 -4.66699 46.334 -7 59.001 -7c65.333 0 98 36 98 108v1186h309v-1222c0 -94.667 -26.5 -170 -79.5 -226s-127.5 -84 -223.5 -84c-56 0 -110.333 7.66699 -163 23zM122.999 0v1658h337v-1428h387v-230
h-724z" />
    <glyph glyph-name="uni01C9" unicode="&#x1c9;" horiz-adv-x="1086" 
d="M674 1378v235h311v-235h-311zM518 -325l-0.000976562 222c26.667 -4.66699 46.334 -7 59.001 -7c65.333 0 98 36 98 108v1186h309v-1222c0 -94.667 -26.5 -170 -79.5 -226s-127.5 -84 -223.5 -84c-56 0 -110.333 7.66699 -163 23zM120.999 0v1658h310v-1658h-310z" />
    <glyph glyph-name="uni01CA" unicode="&#x1ca;" horiz-adv-x="1824" 
d="M1154 -38l-0.000976562 236.002h7c78.667 0 131.667 12 159 36c28.667 24 43 74.333 43 151v1273h338l-1 -1285c-1.33301 -72 -8 -132.333 -20 -181s-32.5 -90.834 -61.5 -126.501s-68.167 -61.834 -117.5 -78.501s-110.666 -25 -183.999 -25h-163zM122.999 0.00195312
v1658h235l370 -861v861h280v-1658h-225l-372 916v-916h-288z" />
    <glyph glyph-name="uni01CB" unicode="&#x1cb;" horiz-adv-x="1675" 
d="M1263 1378v235h311v-235h-311zM1107 -325l-0.000976562 222c26.667 -4.66699 46.334 -7 59.001 -7c65.333 0 98 36 98 108v1186h309v-1222c0 -94.667 -26.5 -170 -79.5 -226s-127.5 -84 -223.5 -84c-56 0 -110.333 7.66699 -163 23zM122.999 0v1658h235l370 -861v861h280
v-1658h-225l-372 916v-916h-288z" />
    <glyph glyph-name="uni01CC" unicode="&#x1cc;" horiz-adv-x="1552" 
d="M1140 1378v235h311v-235h-311zM984 -325l-0.000976562 222c26.667 -4.66699 46.334 -7 59.001 -7c65.333 0 98 36 98 108v1186h309v-1222c0 -94.667 -26.5 -170 -79.5 -226s-127.5 -84 -223.5 -84c-56 0 -110.333 7.66699 -163 23zM105.999 0l-0.000976562 1184h309v-117
c95.333 90.667 191.333 136 288 136c68.667 0 120.334 -25.167 155.001 -75.5s52 -113.833 52 -190.5v-937h-310v882c0 32.667 -5 57 -15 73s-28.667 23.667 -56 23c-32 0 -70 -15.667 -114 -47v-931h-309z" />
    <glyph glyph-name="uni01F1" unicode="&#x1f1;" horiz-adv-x="2046" 
d="M1234 0v211l419 1216h-401v231h739v-178l-435 -1250h438v-230h-760zM123 0l-0.00292969 1658h403c104.667 0 191.834 -9.66699 261.501 -29s125.334 -51 167.001 -95s71.167 -97.5 88.5 -160.5s26 -141.833 26 -236.5v-598c0 -96 -8.66699 -176.667 -26 -242
s-46.666 -120.833 -87.999 -166.5s-96.333 -78.834 -165 -99.501s-154 -31 -256 -31h-411zM459.997 235.001l70.002 -0.00195312c23.333 0 44.166 1.33301 62.499 4s34.166 7.33398 47.499 14.001s24.666 13.5 33.999 20.5s17.166 17.167 23.499 30.5s11.333 25.833 15 37.5
s6.33398 27.834 8.00098 48.501s2.66699 39 3 55s0.5 37.667 0.5 65v665c0 39.333 -1 70.666 -3 93.999s-6.66699 45.833 -14 67.5s-18.166 37.834 -32.499 48.501s-33.5 19.167 -57.5 25.5s-54 9.5 -90 9.5h-67v-1185z" />
    <glyph glyph-name="uni01F2" unicode="&#x1f2;" horiz-adv-x="1947" 
d="M1236 0v201l333 756h-305v227h628v-184l-331 -772h333v-228h-658zM123 0l-0.00292969 1658h403c104.667 0 191.834 -9.66699 261.501 -29s125.334 -51 167.001 -95s71.167 -97.5 88.5 -160.5s26 -141.833 26 -236.5v-598c0 -96 -8.66699 -176.667 -26 -242
s-46.666 -120.833 -87.999 -166.5s-96.333 -78.834 -165 -99.501s-154 -31 -256 -31h-411zM459.997 235.001l70.002 -0.00195312c23.333 0 44.166 1.33301 62.499 4s34.166 7.33398 47.499 14.001s24.666 13.5 33.999 20.5s17.166 17.167 23.499 30.5s11.333 25.833 15 37.5
s6.33398 27.834 8.00098 48.501s2.66699 39 3 55s0.5 37.667 0.5 65v665c0 39.333 -1 70.666 -3 93.999s-6.66699 45.833 -14 67.5s-18.166 37.834 -32.499 48.501s-33.5 19.167 -57.5 25.5s-54 9.5 -90 9.5h-67v-1185z" />
    <glyph glyph-name="uni01F3" unicode="&#x1f3;" horiz-adv-x="1783" 
d="M1072 0v201l333 756h-305v227h628v-184l-331 -772h333v-228h-658zM492 188c27.333 0 59.333 10 96 30v751c-33.333 20 -65.333 30 -96 30c-33.333 0 -57.5 -14.167 -72.5 -42.5s-22.5 -64.833 -22.5 -109.5v-492c0 -111.333 31.667 -167 95 -167zM369 -20
c-188 0 -282 132.001 -282 396.001v419c0 79.333 9 148.666 27 207.999s48.5 107.5 91.5 144.5s96.833 55.5 161.5 55.5c78 0 151.667 -30.667 221 -92v547h309v-1658h-309v86c-70 -70 -143 -105.333 -219 -106z" />
    <glyph glyph-name="uni01F4" unicode="&#x1f4;" horiz-adv-x="1169" 
d="M488 1801l124 411h315l-253 -411h-186zM548 -23c-82 0 -152.333 13.334 -211 40.001s-105.334 65.667 -140.001 117s-59.834 111.166 -75.501 179.499s-23.5 147.833 -23.5 238.5v546c0 74.667 4.83301 141 14.5 199s26.167 111.5 49.5 160.5s53.333 89.333 90 121
s82.834 56.334 138.501 74.001s120.167 26.5 193.5 26.5c86.667 0 161 -10.833 223 -32.5s111.167 -54.167 147.5 -97.5s62.666 -94 78.999 -152s24.5 -126 24.5 -204v-94h-327v112c0 30.667 -0.666992 55.667 -2 75s-4.66602 39.5 -9.99902 60.5s-13 37.5 -23 49.5
s-23.833 21.833 -41.5 29.5s-39.5 11.5 -65.5 11.5c-27.333 0 -50.333 -4.83301 -69 -14.5s-33 -21.334 -43 -35.001s-17.833 -32.834 -23.5 -57.501s-9 -46.667 -10 -66s-1.5 -44.666 -1.5 -75.999v-719c0 -80.667 11 -142 33 -184s63 -63 123 -63
c60.667 0 102.834 22.5 126.501 67.5s35.5 109.167 35.5 192.5v163h-163v208h467v-853h-221l-22 152c-50 -116.667 -141 -175 -273 -175z" />
    <glyph glyph-name="uni01F5" unicode="&#x1f5;" horiz-adv-x="990" 
d="M440 1366l124 411h315l-253 -411h-186zM485 556c42 0 69.333 16.335 82 49.002s19 91.667 19 177c0 36 -0.5 64.667 -1.5 86s-3.33301 42.333 -7 63s-9.16699 36.167 -16.5 46.5s-17.166 18.666 -29.499 24.999s-27.5 9.5 -45.5 9.5
c-18.667 0 -34.167 -3.33301 -46.5 -10s-22 -15.334 -29 -26.001s-12.333 -26.5 -16 -47.5s-6 -42 -7 -63s-1.5 -48.833 -1.5 -83.5c0 -39.333 1.16699 -71.5 3.5 -96.5s6.83301 -48 13.5 -69s16.667 -36.333 30 -46s30.666 -14.5 51.999 -14.5zM534 -152.998
c55.333 0 95.833 6.33398 121.5 19.001s39.5 33.667 41.5 63c0.666992 5.33301 1 10.333 1 15c0 28 -8.33301 48.667 -25 62c-19.333 16 -54.333 26.667 -105 32l-183 19c-35.333 -46.667 -53 -87.667 -53 -123c0 -30.667 14 -52.834 42 -66.501s81.333 -20.5 160 -20.5z
M535 -356.997c-39.333 0 -74.501 0.668945 -105.501 2.00195s-66.833 4.16602 -107.5 8.49902s-75.667 11.5 -105 21.5s-57.5 22.5 -84.5 37.5s-47.667 34.833 -62 59.5s-21.5 53 -21.5 85c0 88 55.667 168.667 167 242c-46 16.667 -79.667 36 -101 58
s-33.666 47.333 -36.999 76c-1.33301 9.33301 -2 18 -2 26c0 32.667 9.33301 62.334 28 89.001c23.333 33.333 61.333 71 114 113c-42.667 32 -75 72 -97 120s-33 111 -33 189c0 146 34 254.667 102 326s164.667 107 290 107s213 -36 263 -108c48.667 56 102 98.667 160 128
l42 21l72 -161c-22 -6 -55.5 -18.333 -100.5 -37s-78.167 -34.334 -99.5 -47.001c14.667 -23.333 27.334 -55.666 38.001 -96.999s16 -85.333 16 -132c0 -128 -30.333 -227.667 -91 -299s-154.667 -107 -282 -107c-26.667 0 -57.5 3.16699 -92.5 9.5
s-60.833 13.166 -77.5 20.499c-22.667 -29.333 -34 -54 -34 -74v-6c2.66699 -22.667 38.667 -38.334 108 -47.001c12.667 -2.66699 50 -7.5 112 -14.5s103.667 -12.167 125 -15.5c107.333 -12.667 184.166 -42 230.499 -88s69.5 -112 69.5 -198
c0 -101.333 -31 -178 -93 -230s-165.667 -78 -311 -78z" />
    <glyph glyph-name="uni0200" unicode="&#x200;" horiz-adv-x="1099" 
d="M635 1801l-177 406h230l111 -406h-164zM300 1801l-215 406h253l127 -406h-165zM453 576h197l-99 660zM41 0l324 1658h370l323 -1658h-313l-61 367h-263l-61 -367h-319z" />
    <glyph glyph-name="uni0201" unicode="&#x201;" horiz-adv-x="954" 
d="M563 1325l-177 406h230l111 -406h-164zM228 1325l-215 406h253l127 -406h-165zM457 204c18 0 36.499 6.66699 55.499 20s34.167 28 45.5 44v324c-55.333 -28.667 -101.5 -66.167 -138.5 -112.5s-55.5 -94.5 -55.5 -144.5c0 -40 8.33301 -71.833 25 -95.5
s39.334 -35.5 68.001 -35.5zM341.999 -20c-53.333 0.666992 -100.833 15.3311 -142.5 43.998s-72.667 64.334 -93 107.001s-30.5 87.667 -30.5 135c0 30.667 3 60 9 88s13.333 53 22 75s21 43.167 37 63.5s31 38 45 53s32.5 30.167 55.5 45.5s42.833 27.833 59.5 37.5
s38.334 20.5 65.001 32.5s47.834 21.167 63.501 27.5l65 25.5l60.5 23v109c0 42.667 -5.5 74.5 -16.5 95.5s-32.167 31.5 -63.5 31.5c-52.667 0 -80.334 -37 -83.001 -111l-6 -81l-293 12c0 13.333 1 27 3 41c8.66699 126.667 47 219.834 115 279.501s165 89.5 291 89.5
c116.667 0 204.5 -32 263.5 -96s88.5 -151.667 88.5 -263v-547c0 -90.667 7.33301 -189.667 22 -297h-277c-16.667 87.333 -26.334 144 -29.001 170c-16 -54 -43.5 -99.167 -82.5 -135.5s-88.5 -54.5 -148.5 -54.5z" />
    <glyph glyph-name="uni0202" unicode="&#x202;" horiz-adv-x="1099" 
d="M283 1801c0 85.333 22.001 152 66.001 200s111 72 201 72c89.333 0 156 -24 200 -72s66 -114.667 66 -200h-144c0 48.667 -9 83.667 -27 105s-49.667 32 -95 32c-44.667 0 -76.334 -10.667 -95.001 -32s-28 -56.333 -28 -105h-144zM453.001 576h197l-99 660zM41.001 0
l324 1658h370l323 -1658h-313l-61 367h-263l-61 -367h-319z" />
    <glyph glyph-name="uni0203" unicode="&#x203;" horiz-adv-x="954" 
d="M211 1325c0 85.333 22.001 152 66.001 200s111 72 201 72c89.333 0 156 -24 200 -72s66 -114.667 66 -200h-144c0 48.667 -9 83.667 -27 105s-49.667 32 -95 32c-44.667 0 -76.334 -10.667 -95.001 -32s-28 -56.333 -28 -105h-144zM457.001 204
c18 0 36.499 6.66699 55.499 20s34.167 28 45.5 44v324c-55.333 -28.667 -101.5 -66.167 -138.5 -112.5s-55.5 -94.5 -55.5 -144.5c0 -40 8.33301 -71.833 25 -95.5s39.334 -35.5 68.001 -35.5zM342 -20c-53.333 0.666992 -100.833 15.3311 -142.5 43.998
s-72.667 64.334 -93 107.001s-30.5 87.667 -30.5 135c0 30.667 3 60 9 88s13.333 53 22 75s21 43.167 37 63.5s31 38 45 53s32.5 30.167 55.5 45.5s42.833 27.833 59.5 37.5s38.334 20.5 65.001 32.5s47.834 21.167 63.501 27.5l65 25.5l60.5 23v109
c0 42.667 -5.5 74.5 -16.5 95.5s-32.167 31.5 -63.5 31.5c-52.667 0 -80.334 -37 -83.001 -111l-6 -81l-293 12c0 13.333 1 27 3 41c8.66699 126.667 47 219.834 115 279.501s165 89.5 291 89.5c116.667 0 204.5 -32 263.5 -96s88.5 -151.667 88.5 -263v-547
c0 -90.667 7.33301 -189.667 22 -297h-277c-16.667 87.333 -26.334 144 -29.001 170c-16 -54 -43.5 -99.167 -82.5 -135.5s-88.5 -54.5 -148.5 -54.5z" />
    <glyph glyph-name="uni0204" unicode="&#x204;" 
d="M571 1801l-177 406h230l111 -406h-164zM236 1801l-215 406h253l127 -406h-165zM123 0v1658h722v-234h-385v-439h299v-236h-299v-519h389v-230h-726z" />
    <glyph glyph-name="uni0205" unicode="&#x205;" horiz-adv-x="940" 
d="M557 1325l-177 406h230l111 -406h-164zM222 1325l-215 406h253l127 -406h-165zM390 723h181v116c0 50.667 -7.5 87 -22.5 109s-38.5 33 -70.5 33s-54.667 -12.5 -68 -37.5s-20 -68.833 -20 -131.5v-89zM480 -20c-132.667 0 -232.001 36.1699 -298.001 108.503
s-99 176.166 -99 311.499v383c0 135.333 33.333 239.166 100 311.499s165.334 108.5 296.001 108.5c134 0 231.167 -36.167 291.5 -108.5s90.5 -179.833 90.5 -322.5v-198h-471v-194c0 -58.667 6 -102.834 18 -132.501s35.667 -44.5 71 -44.5c61.333 0 92 44.333 92 133v110
h289v-96c0 -120 -32.667 -211.667 -98 -275s-159.333 -95 -282 -95z" />
    <glyph glyph-name="uni0206" unicode="&#x206;" 
d="M219 1801c0 85.333 22.001 152 66.001 200s111 72 201 72c89.333 0 156 -24 200 -72s66 -114.667 66 -200h-144c0 48.667 -9 83.667 -27 105s-49.667 32 -95 32c-44.667 0 -76.334 -10.667 -95.001 -32s-28 -56.333 -28 -105h-144zM123.001 0v1658h722v-234h-385v-439
h299v-236h-299v-519h389v-230h-726z" />
    <glyph glyph-name="uni0207" unicode="&#x207;" horiz-adv-x="940" 
d="M205 1325c0 85.333 22.001 152 66.001 200s111 72 201 72c89.333 0 156 -24 200 -72s66 -114.667 66 -200h-144c0 48.667 -9 83.667 -27 105s-49.667 32 -95 32c-44.667 0 -76.334 -10.667 -95.001 -32s-28 -56.333 -28 -105h-144zM390.001 723h181v116
c0 50.667 -7.5 87 -22.5 109s-38.5 33 -70.5 33s-54.667 -12.5 -68 -37.5s-20 -68.833 -20 -131.5v-89zM480.001 -20c-132.667 0 -232.001 36.1699 -298.001 108.503s-99 176.166 -99 311.499v383c0 135.333 33.333 239.166 100 311.499s165.334 108.5 296.001 108.5
c134 0 231.167 -36.167 291.5 -108.5s90.5 -179.833 90.5 -322.5v-198h-471v-194c0 -58.667 6 -102.834 18 -132.501s35.667 -44.5 71 -44.5c61.333 0 92 44.333 92 133v110h289v-96c0 -120 -32.667 -211.667 -98 -275s-159.333 -95 -282 -95z" />
    <glyph glyph-name="uni0208" unicode="&#x208;" horiz-adv-x="591" 
d="M382 1801l-177 406h230l111 -406h-164zM47 1801l-215 406h253l127 -406h-165zM129 0v1658h335v-1658h-335z" />
    <glyph glyph-name="uni0209" unicode="&#x209;" horiz-adv-x="548" 
d="M362 1325l-177 406h230l111 -406h-164zM27 1325l-215 406h253l127 -406h-165zM122 0v1184h309v-1184h-309z" />
    <glyph glyph-name="uni020A" unicode="&#x20a;" horiz-adv-x="591" 
d="M30 1801c0 85.333 22.001 152 66.001 200s111 72 201 72c89.333 0 156 -24 200 -72s66 -114.667 66 -200h-144c0 48.667 -9 83.667 -27 105s-49.667 32 -95 32c-44.667 0 -76.334 -10.667 -95.001 -32s-28 -56.333 -28 -105h-144zM129.001 0v1658h335v-1658h-335z" />
    <glyph glyph-name="uni020B" unicode="&#x20b;" horiz-adv-x="548" 
d="M10 1325c0 85.333 22.001 152 66.001 200s111 72 201 72c89.333 0 156 -24 200 -72s66 -114.667 66 -200h-144c0 48.667 -9 83.667 -27 105s-49.667 32 -95 32c-44.667 0 -76.334 -10.667 -95.001 -32s-28 -56.333 -28 -105h-144zM122.001 0v1184h309v-1184h-309z" />
    <glyph glyph-name="uni020C" unicode="&#x20c;" horiz-adv-x="1177" 
d="M674 1801l-177 406h230l111 -406h-164zM339 1801l-215 406h253l127 -406h-165zM587 -22c-90 0 -166.667 12.1689 -230 36.502s-113.833 60.666 -151.5 108.999s-65 105.166 -82 170.499s-25.5 142.333 -25.5 231v612c0 88.667 8.5 165.5 25.5 230.5
s44.333 121.167 82 168.5s88.167 83 151.5 107s140 36 230 36c175.333 0 301.166 -45.667 377.499 -137s114.5 -226.333 114.5 -405v-612c0 -178.667 -38.167 -314.5 -114.5 -407.5s-202.166 -139.5 -377.499 -139.5zM587 221.002c25.333 0 47.166 4.16699 65.499 12.5
s32.666 18.833 42.999 31.5s18.5 29.334 24.5 50.001s9.83301 40.5 11.5 59.5s2.5 41.833 2.5 68.5v776c0 26.667 -0.833008 49.5 -2.5 68.5s-5.5 38.5 -11.5 58.5s-14.167 36.167 -24.5 48.5s-24.666 22.5 -42.999 30.5s-40.166 12 -65.499 12s-47 -4 -65 -12
s-32 -18.167 -42 -30.5s-17.833 -28.666 -23.5 -48.999s-9.33398 -39.833 -11.001 -58.5s-2.5 -41.334 -2.5 -68.001v-776c0 -26.667 0.833008 -49.5 2.5 -68.5s5.33398 -38.833 11.001 -59.5s13.5 -37.334 23.5 -50.001s24 -23.167 42 -31.5s39.667 -12.5 65 -12.5z" />
    <glyph glyph-name="uni020D" unicode="&#x20d;" horiz-adv-x="962" 
d="M567 1325l-177 406h230l111 -406h-164zM232 1325l-215 406h253l127 -406h-165zM479 -20c-128 0 -226 34.5 -294 103.5s-102 168.167 -102 297.5v422c0 128.667 34 227.5 102 296.5s166 103.5 294 103.5c128.667 0 227.5 -34.5 296.5 -103.5s103.5 -167.833 103.5 -296.5
v-422c0 -128.667 -34.5 -227.667 -103.5 -297s-167.833 -104 -296.5 -104zM480 192c36.667 0 61.334 14.168 74.001 42.501s19 69.833 19 124.5v465c0 55.333 -6.33301 97.166 -19 125.499s-37.334 42.5 -74.001 42.5c-36 0 -60.167 -14.5 -72.5 -43.5
s-18.5 -70.5 -18.5 -124.5v-465c0 -54 6.16699 -95.333 18.5 -124s36.5 -43 72.5 -43z" />
    <glyph glyph-name="uni020E" unicode="&#x20e;" horiz-adv-x="1177" 
d="M322 1801c0 85.333 22.001 152 66.001 200s111 72 201 72c89.333 0 156 -24 200 -72s66 -114.667 66 -200h-144c0 48.667 -9 83.667 -27 105s-49.667 32 -95 32c-44.667 0 -76.334 -10.667 -95.001 -32s-28 -56.333 -28 -105h-144zM587.001 -22
c-90 0 -166.667 12.1689 -230 36.502s-113.833 60.666 -151.5 108.999s-65 105.166 -82 170.499s-25.5 142.333 -25.5 231v612c0 88.667 8.5 165.5 25.5 230.5s44.333 121.167 82 168.5s88.167 83 151.5 107s140 36 230 36c175.333 0 301.166 -45.667 377.499 -137
s114.5 -226.333 114.5 -405v-612c0 -178.667 -38.167 -314.5 -114.5 -407.5s-202.166 -139.5 -377.499 -139.5zM587.001 221.002c25.333 0 47.166 4.16699 65.499 12.5s32.666 18.833 42.999 31.5s18.5 29.334 24.5 50.001s9.83301 40.5 11.5 59.5s2.5 41.833 2.5 68.5v776
c0 26.667 -0.833008 49.5 -2.5 68.5s-5.5 38.5 -11.5 58.5s-14.167 36.167 -24.5 48.5s-24.666 22.5 -42.999 30.5s-40.166 12 -65.499 12s-47 -4 -65 -12s-32 -18.167 -42 -30.5s-17.833 -28.666 -23.5 -48.999s-9.33398 -39.833 -11.001 -58.5s-2.5 -41.334 -2.5 -68.001
v-776c0 -26.667 0.833008 -49.5 2.5 -68.5s5.33398 -38.833 11.001 -59.5s13.5 -37.334 23.5 -50.001s24 -23.167 42 -31.5s39.667 -12.5 65 -12.5z" />
    <glyph glyph-name="uni020F" unicode="&#x20f;" horiz-adv-x="962" 
d="M215 1325c0 85.333 22.001 152 66.001 200s111 72 201 72c89.333 0 156 -24 200 -72s66 -114.667 66 -200h-144c0 48.667 -9 83.667 -27 105s-49.667 32 -95 32c-44.667 0 -76.334 -10.667 -95.001 -32s-28 -56.333 -28 -105h-144zM479.001 -20
c-128 0 -226 34.5 -294 103.5s-102 168.167 -102 297.5v422c0 128.667 34 227.5 102 296.5s166 103.5 294 103.5c128.667 0 227.5 -34.5 296.5 -103.5s103.5 -167.833 103.5 -296.5v-422c0 -128.667 -34.5 -227.667 -103.5 -297s-167.833 -104 -296.5 -104zM480.001 192
c36.667 0 61.334 14.168 74.001 42.501s19 69.833 19 124.5v465c0 55.333 -6.33301 97.166 -19 125.499s-37.334 42.5 -74.001 42.5c-36 0 -60.167 -14.5 -72.5 -43.5s-18.5 -70.5 -18.5 -124.5v-465c0 -54 6.16699 -95.333 18.5 -124s36.5 -43 72.5 -43z" />
    <glyph glyph-name="uni0210" unicode="&#x210;" horiz-adv-x="1185" 
d="M703 1801l-177 406h230l111 -406h-164zM368 1801l-215 406h253l127 -406h-165zM460 952h84c81.333 0 139 19.167 173 57.5s51 99.5 51 183.5c0 82 -14.833 141.833 -44.5 179.5s-83.167 56.5 -160.5 56.5h-103v-477zM123 0v1658h419c88 0 163.667 -6.83301 227 -20.5
s119.5 -36.834 168.5 -69.501s85.667 -78 110 -136s36.5 -129.333 36.5 -214c0 -106.667 -15.167 -193 -45.5 -259s-82.5 -116 -156.5 -150l229 -809h-344l-190 748h-117v-748h-337z" />
    <glyph glyph-name="uni0211" unicode="&#x211;" horiz-adv-x="738" 
d="M493 1325l-177 406h230l111 -406h-164zM158 1325l-215 406h253l127 -406h-165zM110 0l0.00195312 1184h309v-190c73.333 136.667 154 205 242 205c14 0 29 -2.33301 45 -7v-287c-22.667 8 -47 12 -73 12c-44.667 -2 -83.834 -13.5 -117.501 -34.5
s-65.834 -54.167 -96.501 -99.5v-783h-309z" />
    <glyph glyph-name="uni0212" unicode="&#x212;" horiz-adv-x="1185" 
d="M351 1801c0 85.333 22.001 152 66.001 200s111 72 201 72c89.333 0 156 -24 200 -72s66 -114.667 66 -200h-144c0 48.667 -9 83.667 -27 105s-49.667 32 -95 32c-44.667 0 -76.334 -10.667 -95.001 -32s-28 -56.333 -28 -105h-144zM460.001 952h84
c81.333 0 139 19.167 173 57.5s51 99.5 51 183.5c0 82 -14.833 141.833 -44.5 179.5s-83.167 56.5 -160.5 56.5h-103v-477zM123.001 0v1658h419c88 0 163.667 -6.83301 227 -20.5s119.5 -36.834 168.5 -69.501s85.667 -78 110 -136s36.5 -129.333 36.5 -214
c0 -106.667 -15.167 -193 -45.5 -259s-82.5 -116 -156.5 -150l229 -809h-344l-190 748h-117v-748h-337z" />
    <glyph glyph-name="uni0213" unicode="&#x213;" horiz-adv-x="738" 
d="M141 1325c0 85.333 22.001 152 66.001 200s111 72 201 72c89.333 0 156 -24 200 -72s66 -114.667 66 -200h-144c0 48.667 -9 83.667 -27 105s-49.667 32 -95 32c-44.667 0 -76.334 -10.667 -95.001 -32s-28 -56.333 -28 -105h-144zM110.001 0l0.00195312 1184h309v-190
c73.333 136.667 154 205 242 205c14 0 29 -2.33301 45 -7v-287c-22.667 8 -47 12 -73 12c-44.667 -2 -83.834 -13.5 -117.501 -34.5s-65.834 -54.167 -96.501 -99.5v-783h-309z" />
    <glyph glyph-name="uni0214" unicode="&#x214;" horiz-adv-x="1180" 
d="M675 1801l-177 406h230l111 -406h-164zM340 1801l-215 406h253l127 -406h-165zM590 -22c-92.667 0 -170.5 12.165 -233.5 36.498s-112.333 61.333 -148 111s-60.834 107.334 -75.501 173.001s-22 145.167 -22 238.5v1121h331v-1164
c0 -31.333 0.833008 -58.166 2.5 -80.499s5.33398 -46.166 11.001 -71.499s13.667 -45.833 24 -61.5s24.833 -28.667 43.5 -39s41 -15.5 67 -15.5s48.5 5.16699 67.5 15.5s33.5 23.333 43.5 39s18 36.167 24 61.5s9.66699 49 11 71s2 49 2 81v1164h331v-1121
c0 -93.333 -7.33301 -172.833 -22 -238.5s-39.667 -123.334 -75 -173.001s-84.5 -86.667 -147.5 -111s-141.167 -36.5 -234.5 -36.5z" />
    <glyph glyph-name="uni0215" unicode="&#x215;" horiz-adv-x="1001" 
d="M581 1325l-177 406h230l111 -406h-164zM246 1325l-215 406h253l127 -406h-165zM303 -19c-68.667 0 -120.334 25.167 -155.001 75.5s-52 113.833 -52 190.5v937h309v-889c0.666992 -32.667 6.33398 -57 17.001 -73s28.667 -24 54 -24h3c30.667 0.666992 66 14.667 106 42
v944h310v-1184h-310v110c-91.333 -86 -185.333 -129 -282 -129z" />
    <glyph glyph-name="uni0216" unicode="&#x216;" horiz-adv-x="1180" 
d="M323 1801c0 85.333 22.001 152 66.001 200s111 72 201 72c89.333 0 156 -24 200 -72s66 -114.667 66 -200h-144c0 48.667 -9 83.667 -27 105s-49.667 32 -95 32c-44.667 0 -76.334 -10.667 -95.001 -32s-28 -56.333 -28 -105h-144zM590.001 -22
c-92.667 0 -170.5 12.165 -233.5 36.498s-112.333 61.333 -148 111s-60.834 107.334 -75.501 173.001s-22 145.167 -22 238.5v1121h331v-1164c0 -31.333 0.833008 -58.166 2.5 -80.499s5.33398 -46.166 11.001 -71.499s13.667 -45.833 24 -61.5s24.833 -28.667 43.5 -39
s41 -15.5 67 -15.5s48.5 5.16699 67.5 15.5s33.5 23.333 43.5 39s18 36.167 24 61.5s9.66699 49 11 71s2 49 2 81v1164h331v-1121c0 -93.333 -7.33301 -172.833 -22 -238.5s-39.667 -123.334 -75 -173.001s-84.5 -86.667 -147.5 -111s-141.167 -36.5 -234.5 -36.5z" />
    <glyph glyph-name="uni0217" unicode="&#x217;" horiz-adv-x="1001" 
d="M229 1325c0 85.333 22.001 152 66.001 200s111 72 201 72c89.333 0 156 -24 200 -72s66 -114.667 66 -200h-144c0 48.667 -9 83.667 -27 105s-49.667 32 -95 32c-44.667 0 -76.334 -10.667 -95.001 -32s-28 -56.333 -28 -105h-144zM303.001 -19
c-68.667 0 -120.334 25.167 -155.001 75.5s-52 113.833 -52 190.5v937h309v-889c0.666992 -32.667 6.33398 -57 17.001 -73s28.667 -24 54 -24h3c30.667 0.666992 66 14.667 106 42v944h310v-1184h-310v110c-91.333 -86 -185.333 -129 -282 -129z" />
    <glyph glyph-name="Scommaaccent" unicode="&#x218;" horiz-adv-x="1033" 
d="M441 -703l-35.999 114.998c43.333 4.66699 77.166 18.334 101.499 41.001s36.5 59.334 36.5 110.001h-159v293h295l-1 -257c-0.666992 -98.667 -19.5 -173.5 -56.5 -224.5s-97.167 -76.833 -180.5 -77.5zM553.001 -22.002c-154 0 -269.002 42.3301 -345.002 126.997
s-117.333 214.667 -124 390l292 52c1.33301 -103.333 15.166 -181.166 41.499 -233.499s66.833 -78.5 121.5 -78.5c39.333 0 67.833 12.667 85.5 38s26.5 58 26.5 98c0 65.333 -14.167 120.166 -42.5 164.499s-73.833 93.833 -136.5 148.5l-178 154
c-45.333 39.333 -81.833 76.166 -109.5 110.499s-51 78 -70 131s-28.5 111.833 -28.5 176.5c0 134 39.667 237.833 119 311.5s188.333 110.834 327 111.501c46.667 0 89.334 -4.66699 128.001 -14s71.834 -22 99.501 -38s52.167 -36 73.5 -60s38.666 -48.833 51.999 -74.5
s24.666 -54.667 33.999 -87s16 -63 20 -92s7 -60.5 9 -94.5l-290 -46c-1.33301 34 -3 62.333 -5 85s-5.83301 46.167 -11.5 70.5s-13.167 43.333 -22.5 57s-22 24.834 -38 33.501s-35 12.334 -57 11.001c-37.333 -2 -66.166 -16.333 -86.499 -43s-30.5 -59 -30.5 -97
c0 -30 3.5 -57.167 10.5 -81.5s18.5 -47.5 34.5 -69.5s30.5 -39.667 43.5 -53s31.833 -31.333 56.5 -54l175 -152c37.333 -33.333 69.833 -65.666 97.5 -96.999s53.834 -67 78.501 -107s43.5 -84 56.5 -132s19.5 -99 19.5 -153c0 -120.667 -39.167 -219.667 -117.5 -297
s-181.166 -116 -308.499 -116z" />
    <glyph glyph-name="scommaaccent" unicode="&#x219;" horiz-adv-x="841" 
d="M331 -701l-35.999 114.998c43.333 4.66699 77.166 18.334 101.499 41.001s36.5 59.334 36.5 110.001h-159v293h295l-1 -257c-0.666992 -98.667 -19.5 -173.5 -56.5 -224.5s-97.167 -76.833 -180.5 -77.5zM435.001 -20.002c-197.333 0 -328.669 102.333 -394.002 307
l223 90c38 -122 91.667 -183 161 -183h8c25.333 1.33301 46 10.666 62 27.999c14.667 16 22 35.333 22 58v6c-1.33301 35.333 -47.666 92 -138.999 170l-122 104c-124 105.333 -186 212 -186 320c0 96 34 174 102 234c66.667 59.333 149.667 89 249 89
c94.667 0 172.834 -27.167 234.501 -81.5s103.834 -129.166 126.501 -224.499l-202 -90c-12 48.667 -30.167 90.167 -54.5 124.5s-53.833 51.833 -88.5 52.5h-6c-24 0 -43.333 -7.33301 -58 -22c-16 -16 -24.333 -35 -25 -57c-0.666992 -15.333 6.5 -33.5 21.5 -54.5
s29.667 -38.333 44 -52s36.833 -33.834 67.5 -60.501l122 -110c24.667 -21.333 44.167 -38.833 58.5 -52.5s31.666 -32.167 51.999 -55.5s36 -45 47 -65s20.667 -43.667 29 -71s12.5 -55.666 12.5 -84.999c0 -66.667 -17 -124.667 -51 -174s-78.333 -85.833 -133 -109.5
s-115.667 -35.5 -183 -35.5z" />
    <glyph glyph-name="uni021A" unicode="&#x21a;" horiz-adv-x="892" 
d="M356 -681l-35.999 114.998c43.333 4.66699 77.166 18.334 101.499 41.001s36.5 59.334 36.5 110.001h-159v293h295l-1 -257c-0.666992 -98.667 -19.5 -173.5 -56.5 -224.5s-97.167 -76.833 -180.5 -77.5zM280.001 -0.00195312v1409h-265v249h863v-249h-261v-1409h-337z
" />
    <glyph glyph-name="uni021B" unicode="&#x21b;" horiz-adv-x="704" 
d="M252 -696l-35.999 114.998c43.333 4.66699 77.166 18.334 101.499 41.001s36.5 59.334 36.5 110.001h-159v293h295l-1 -257c-0.666992 -98.667 -19.5 -173.5 -56.5 -224.5s-97.167 -76.833 -180.5 -77.5zM439.001 -15.002c-48 1.33301 -89.667 9.16504 -125 23.498
s-63.5 32.833 -84.5 55.5s-37.833 51.334 -50.5 86.001s-21.334 69.834 -26.001 105.501s-7 76.5 -7 122.5v603h-114v203h114v354h312v-354h175v-203h-175v-644c0 -66.667 35.667 -101 107 -103h7c21.333 0 48 2.66699 80 8v-242c-81.333 -10 -146.666 -15 -195.999 -15h-17
z" />
    <glyph glyph-name="uni0237" unicode="&#x237;" horiz-adv-x="533" 
d="M-27 -339l-0.000976562 222c26.667 -4.66699 46.334 -7 59.001 -7c64.667 0 97 36.333 97 109v1199h310v-1236c0 -94.667 -26.5 -170 -79.5 -226s-127.5 -84 -223.5 -84c-56 0 -110.333 7.66699 -163 23z" />
    <glyph glyph-name="afii57929" unicode="&#x2bc;" horiz-adv-x="791" 
d="M242 1069v589h258l-104 -589h-154z" />
    </font>
</defs>
</svg>
